{"glyphs":{"0":{"ha":781,"x_min":78,"x_max":703,"o":"m 390 -14 q 156 108 235 -14 q 78 450 78 229 q 156 793 78 671 q 390 915 235 915 q 624 793 546 915 q 703 450 703 671 q 624 108 703 229 q 390 -14 546 -14 m 390 50 q 542 147 493 50 q 592 450 592 243 q 542 754 592 657 q 390 851 492 851 q 238 754 288 851 q 189 450 189 657 q 238 146 189 242 q 390 50 288 50 z "},"1":{"ha":513,"x_min":69,"x_max":360,"o":"m 260 0 l 260 822 l 93 729 l 69 783 l 276 903 l 360 903 l 360 0 l 260 0 z "},"2":{"ha":660,"x_min":60,"x_max":596,"o":"m 60 83 q 192 192 92 96 q 376 413 293 288 q 460 656 460 539 q 420 801 460 754 q 285 847 381 847 q 195 831 239 847 q 119 793 151 814 q 88 771 88 772 l 76 833 q 110 858 76 836 q 194 897 144 879 q 300 915 244 915 q 505 848 439 915 q 571 664 571 781 q 446 363 571 514 q 169 94 321 213 l 596 94 l 596 0 l 60 0 l 60 83 z "},"3":{"ha":660,"x_min":54,"x_max":592,"o":"m 297 -14 q 168 8 222 -14 q 84 56 114 31 q 54 85 54 81 l 88 139 q 115 114 88 136 q 186 72 142 92 q 286 53 231 53 q 435 107 385 53 q 486 264 486 161 q 444 406 486 356 q 319 456 401 456 q 281 449 299 456 q 252 435 263 442 q 239 425 242 428 l 203 467 l 458 807 l 96 807 l 101 903 l 556 903 l 556 838 l 306 511 q 343 515 322 515 q 523 447 454 515 q 592 264 592 378 q 553 115 592 178 q 449 19 515 53 q 297 -14 382 -14 z "},"4":{"ha":683,"x_min":42,"x_max":639,"o":"m 438 228 l 49 228 l 42 281 q 162 569 99 393 q 268 915 225 744 l 364 903 q 256 583 322 743 q 119 290 190 424 l 438 290 l 461 771 l 540 771 l 540 290 l 639 290 l 639 235 l 540 228 l 540 0 l 438 0 l 438 228 z "},"5":{"ha":646,"x_min":36,"x_max":583,"o":"m 265 -14 q 144 8 194 -14 q 65 54 93 29 q 36 83 36 79 l 72 135 q 97 110 72 132 q 163 71 121 89 q 260 53 204 53 q 419 113 361 53 q 478 283 478 174 q 425 438 478 381 q 285 494 372 494 q 209 481 242 494 q 165 456 176 468 l 164 451 l 122 457 l 164 903 l 542 903 l 538 806 l 217 806 l 193 535 q 293 553 242 553 q 503 481 424 553 q 583 285 583 408 q 540 125 583 193 q 425 22 497 57 q 265 -14 353 -14 z "},"6":{"ha":718,"x_min":78,"x_max":651,"o":"m 372 -14 q 154 79 231 -14 q 78 347 78 172 q 82 449 78 403 q 175 799 96 683 q 385 915 254 915 q 467 905 428 915 q 531 883 507 894 q 563 868 556 872 l 549 807 q 521 822 543 811 q 464 842 499 832 q 393 851 429 851 q 178 483 190 851 q 379 569 261 569 q 578 493 506 569 q 651 289 651 417 q 620 135 651 204 q 526 26 589 67 q 372 -14 463 -14 m 372 47 q 504 115 463 47 q 546 290 546 182 q 501 451 546 390 q 367 513 457 513 q 258 481 301 513 q 189 411 215 450 l 190 410 q 185 368 188 394 q 183 315 183 342 q 372 47 183 47 z "},"7":{"ha":585,"x_min":57,"x_max":558,"o":"m 151 0 q 472 803 219 314 l 57 803 l 57 903 l 558 903 l 558 819 q 383 419 467 649 q 261 0 299 190 l 151 0 z "},"8":{"ha":697,"x_min":67,"x_max":632,"o":"m 349 -14 q 141 47 215 -14 q 67 236 67 108 q 120 382 67 328 q 250 461 174 436 q 133 535 182 482 q 85 685 85 588 q 156 854 85 793 q 349 915 226 915 q 542 853 471 915 q 614 681 614 792 q 565 538 614 589 q 444 463 515 486 q 576 389 521 442 q 632 233 632 336 q 557 47 632 107 q 349 -14 482 -14 m 350 486 q 456 533 406 492 q 506 678 506 574 q 349 858 506 858 q 192 681 192 858 q 242 535 192 576 q 350 486 292 493 m 349 43 q 475 91 431 43 q 519 238 519 139 q 463 385 519 343 q 344 435 407 428 q 231 385 285 428 q 178 239 178 343 q 222 91 178 139 q 349 43 267 43 z "},"9":{"ha":718,"x_min":67,"x_max":640,"o":"m 321 -14 q 219 1 261 -14 q 154 33 176 15 q 132 53 132 50 l 158 113 q 179 94 158 110 q 235 64 200 78 q 317 50 271 50 q 474 140 414 50 q 539 410 533 229 q 339 315 467 315 q 140 393 214 315 q 67 599 67 471 q 100 756 67 683 q 199 872 133 828 q 354 915 264 915 q 567 822 494 915 q 640 554 640 729 q 638 457 640 488 q 590 197 632 303 q 478 39 547 92 q 321 -14 408 -14 m 351 372 q 472 410 426 372 q 529 490 517 449 q 533 586 533 528 q 491 788 533 721 q 354 854 449 854 q 218 782 264 854 q 172 603 172 710 q 217 437 172 501 q 351 372 263 372 z "},"\u0000":{"ha":0,"x_min":0,"x_max":0,"o":""},"\r":{"ha":324,"x_min":0,"x_max":0,"o":""}," ":{"ha":324,"x_min":0,"x_max":0,"o":""},"A":{"ha":789,"x_min":32,"x_max":758,"o":"m 32 0 l 336 903 l 460 903 l 758 0 l 649 0 l 554 278 l 200 278 l 106 0 l 32 0 m 219 335 l 536 335 l 379 822 l 219 335 z "},"Á":{"ha":789,"x_min":32,"x_max":758,"o":"m 407 981 l 354 988 l 461 1189 l 549 1168 l 407 981 m 32 0 l 336 903 l 460 903 l 758 0 l 649 0 l 554 278 l 200 278 l 106 0 l 32 0 m 219 335 l 536 335 l 379 822 l 219 335 z "},"Ă":{"ha":789,"x_min":32,"x_max":758,"o":"m 394 988 q 274 1018 317 988 q 218 1081 232 1049 q 204 1125 204 1114 l 267 1133 l 267 1131 q 278 1105 267 1125 q 317 1067 289 1085 q 394 1049 344 1049 q 474 1067 444 1049 q 514 1105 503 1085 q 525 1131 525 1125 l 525 1133 l 588 1125 q 573 1081 588 1114 q 515 1018 558 1049 q 394 988 472 988 m 32 0 l 336 903 l 460 903 l 758 0 l 649 0 l 554 278 l 200 278 l 106 0 l 32 0 m 219 335 l 536 335 l 379 822 l 219 335 z "},"Ắ":{"ha":789,"x_min":32,"x_max":758,"o":"m 32 0 l 336 903 l 460 903 l 758 0 l 649 0 l 554 278 l 200 278 l 106 0 l 32 0 m 219 335 l 536 335 l 379 822 l 219 335 m 393 1008 q 273 1039 315 1008 q 217 1102 231 1069 q 203 1146 203 1135 l 265 1154 l 265 1151 q 276 1126 265 1146 q 315 1088 288 1106 q 393 1069 343 1069 q 472 1088 443 1069 q 513 1126 501 1106 q 524 1151 524 1146 l 524 1154 l 586 1146 q 572 1102 586 1135 q 514 1039 557 1069 q 393 1008 471 1008 m 408 1182 l 356 1189 l 463 1390 l 550 1369 l 408 1182 z "},"Ặ":{"ha":789,"x_min":32,"x_max":758,"o":"m 32 0 l 336 903 l 460 903 l 758 0 l 649 0 l 554 278 l 200 278 l 106 0 l 32 0 m 219 335 l 536 335 l 379 822 l 219 335 m 394 -224 q 351 -207 369 -224 q 332 -160 332 -189 q 351 -112 332 -131 q 394 -96 369 -96 q 439 -112 419 -96 q 457 -160 457 -131 q 439 -207 457 -189 q 394 -224 419 -224 m 393 1008 q 273 1039 315 1008 q 217 1102 231 1069 q 203 1146 203 1135 l 265 1154 l 265 1151 q 276 1126 265 1146 q 315 1088 288 1106 q 393 1069 343 1069 q 472 1088 443 1069 q 513 1126 501 1106 q 524 1151 524 1146 l 524 1154 l 586 1146 q 572 1102 586 1135 q 514 1039 557 1069 q 393 1008 471 1008 z "},"Ằ":{"ha":789,"x_min":32,"x_max":758,"o":"m 32 0 l 336 903 l 460 903 l 758 0 l 649 0 l 554 278 l 200 278 l 106 0 l 32 0 m 219 335 l 536 335 l 379 822 l 219 335 m 393 1008 q 273 1039 315 1008 q 217 1102 231 1069 q 203 1146 203 1135 l 265 1154 l 265 1151 q 276 1126 265 1146 q 315 1088 288 1106 q 393 1069 343 1069 q 472 1088 443 1069 q 513 1126 501 1106 q 524 1151 524 1146 l 524 1154 l 586 1146 q 572 1102 586 1135 q 514 1039 557 1069 q 393 1008 471 1008 m 375 1168 l 229 1356 l 315 1378 l 431 1179 l 375 1168 z "},"Ẳ":{"ha":789,"x_min":32,"x_max":758,"o":"m 32 0 l 336 903 l 460 903 l 758 0 l 649 0 l 554 278 l 200 278 l 106 0 l 32 0 m 219 335 l 536 335 l 379 822 l 219 335 m 393 1008 q 273 1039 315 1008 q 217 1102 231 1069 q 203 1146 203 1135 l 265 1154 l 265 1151 q 276 1126 265 1146 q 315 1088 288 1106 q 393 1069 343 1069 q 472 1088 443 1069 q 513 1126 501 1106 q 524 1151 524 1146 l 524 1154 l 586 1146 q 572 1102 586 1135 q 514 1039 557 1069 q 393 1008 471 1008 m 365 1175 q 364 1204 364 1185 q 385 1231 364 1213 q 413 1258 403 1246 q 422 1286 422 1269 q 368 1342 422 1342 q 338 1336 351 1342 q 316 1325 324 1331 q 307 1318 308 1319 l 276 1378 q 295 1387 281 1381 q 331 1399 310 1393 q 374 1406 353 1406 q 458 1378 424 1406 q 492 1292 492 1350 q 480 1251 492 1265 q 446 1219 468 1236 q 426 1203 432 1210 q 419 1188 419 1197 l 419 1176 l 365 1175 z "},"Ẵ":{"ha":789,"x_min":32,"x_max":758,"o":"m 32 0 l 336 903 l 460 903 l 758 0 l 649 0 l 554 278 l 200 278 l 106 0 l 32 0 m 219 335 l 536 335 l 379 822 l 219 335 m 393 1008 q 273 1039 315 1008 q 217 1102 231 1069 q 203 1146 203 1135 l 265 1154 l 265 1151 q 276 1126 265 1146 q 315 1088 288 1106 q 393 1069 343 1069 q 472 1088 443 1069 q 513 1126 501 1106 q 524 1151 524 1146 l 524 1154 l 586 1146 q 572 1102 586 1135 q 514 1039 557 1069 q 393 1008 471 1008 m 500 1194 q 447 1203 472 1194 q 389 1228 421 1213 q 333 1251 356 1243 q 286 1258 310 1258 q 244 1247 263 1258 q 215 1222 225 1235 q 203 1204 206 1208 l 171 1239 q 188 1265 171 1242 q 234 1307 204 1288 q 304 1326 264 1326 q 360 1318 335 1326 q 421 1292 385 1310 q 472 1269 451 1276 q 515 1263 493 1263 q 553 1271 538 1263 q 577 1288 569 1279 q 586 1300 585 1297 l 618 1265 q 604 1244 618 1263 q 565 1210 590 1226 q 500 1194 539 1194 z "},"Â":{"ha":789,"x_min":32,"x_max":758,"o":"m 242 1017 l 215 1061 l 368 1219 l 422 1219 l 572 1061 l 547 1017 l 394 1151 l 242 1017 m 32 0 l 336 903 l 460 903 l 758 0 l 649 0 l 554 278 l 200 278 l 106 0 l 32 0 m 219 335 l 536 335 l 379 822 l 219 335 z "},"Ấ":{"ha":789,"x_min":32,"x_max":758,"o":"m 32 0 l 336 903 l 460 903 l 758 0 l 649 0 l 554 278 l 200 278 l 106 0 l 32 0 m 219 335 l 536 335 l 379 822 l 219 335 m 242 990 l 215 1035 l 368 1193 l 422 1193 l 572 1035 l 547 990 l 394 1125 l 242 990 m 600 1107 l 547 1114 l 654 1315 l 742 1294 l 600 1107 z "},"Ậ":{"ha":789,"x_min":32,"x_max":758,"o":"m 32 0 l 336 903 l 460 903 l 758 0 l 649 0 l 554 278 l 200 278 l 106 0 l 32 0 m 219 335 l 536 335 l 379 822 l 219 335 m 394 -224 q 351 -207 369 -224 q 332 -160 332 -189 q 351 -112 332 -131 q 394 -96 369 -96 q 439 -112 419 -96 q 457 -160 457 -131 q 439 -207 457 -189 q 394 -224 419 -224 m 242 990 l 215 1035 l 368 1193 l 422 1193 l 572 1035 l 547 990 l 394 1125 l 242 990 z "},"Ầ":{"ha":789,"x_min":32,"x_max":758,"o":"m 32 0 l 336 903 l 460 903 l 758 0 l 649 0 l 554 278 l 200 278 l 106 0 l 32 0 m 219 335 l 536 335 l 379 822 l 219 335 m 242 990 l 215 1035 l 368 1193 l 422 1193 l 572 1035 l 547 990 l 394 1125 l 242 990 m 543 1171 l 397 1358 l 483 1381 l 599 1182 l 543 1171 z "},"Ẩ":{"ha":789,"x_min":32,"x_max":758,"o":"m 32 0 l 336 903 l 460 903 l 758 0 l 649 0 l 554 278 l 200 278 l 106 0 l 32 0 m 219 335 l 536 335 l 379 822 l 219 335 m 242 990 l 215 1035 l 368 1193 l 422 1193 l 572 1035 l 547 990 l 394 1125 l 242 990 m 554 1169 q 553 1199 553 1179 q 574 1225 553 1207 q 601 1252 592 1240 q 611 1281 611 1264 q 557 1336 611 1336 q 526 1331 540 1336 q 505 1319 513 1325 q 496 1313 497 1314 l 465 1372 q 484 1381 469 1375 q 520 1394 499 1388 q 563 1400 542 1400 q 647 1372 613 1400 q 681 1286 681 1344 q 669 1245 681 1260 q 635 1214 657 1231 q 615 1198 621 1204 q 608 1182 608 1192 l 608 1171 l 554 1169 z "},"Ẫ":{"ha":789,"x_min":32,"x_max":758,"o":"m 32 0 l 336 903 l 460 903 l 758 0 l 649 0 l 554 278 l 200 278 l 106 0 l 32 0 m 219 335 l 536 335 l 379 822 l 219 335 m 242 990 l 215 1035 l 368 1193 l 422 1193 l 572 1035 l 547 990 l 394 1125 l 242 990 m 513 1214 q 459 1223 485 1214 q 401 1247 433 1232 q 345 1270 368 1263 q 299 1278 322 1278 q 256 1266 275 1278 q 228 1241 238 1254 q 215 1224 218 1228 l 183 1258 q 200 1284 183 1261 q 247 1326 217 1307 q 317 1346 276 1346 q 372 1338 347 1346 q 433 1311 397 1329 q 485 1289 464 1296 q 528 1282 506 1282 q 566 1290 550 1282 q 590 1308 582 1299 q 599 1319 597 1317 l 631 1285 q 617 1264 631 1282 q 577 1230 603 1246 q 513 1214 551 1214 z "},"Ä":{"ha":789,"x_min":32,"x_max":758,"o":"m 292 1028 q 254 1042 272 1028 q 239 1082 239 1057 q 254 1124 239 1108 q 292 1138 272 1138 q 328 1124 310 1138 q 343 1082 343 1106 q 328 1042 343 1060 q 292 1028 310 1028 m 504 1028 q 468 1042 486 1028 q 453 1082 453 1057 q 468 1124 453 1108 q 504 1138 486 1138 q 540 1124 522 1138 q 557 1082 557 1107 q 540 1042 557 1058 q 504 1028 522 1028 m 32 0 l 336 903 l 460 903 l 758 0 l 649 0 l 554 278 l 200 278 l 106 0 l 32 0 m 219 335 l 536 335 l 379 822 l 219 335 z "},"Ạ":{"ha":789,"x_min":32,"x_max":758,"o":"m 32 0 l 336 903 l 460 903 l 758 0 l 649 0 l 554 278 l 200 278 l 106 0 l 32 0 m 219 335 l 536 335 l 379 822 l 219 335 m 394 -224 q 351 -207 369 -224 q 332 -160 332 -189 q 351 -112 332 -131 q 394 -96 369 -96 q 439 -112 419 -96 q 457 -160 457 -131 q 439 -207 457 -189 q 394 -224 419 -224 z "},"À":{"ha":789,"x_min":32,"x_max":758,"o":"m 389 983 l 243 1171 l 329 1193 l 444 994 l 389 983 m 32 0 l 336 903 l 460 903 l 758 0 l 649 0 l 554 278 l 200 278 l 106 0 l 32 0 m 219 335 l 536 335 l 379 822 l 219 335 z "},"Ả":{"ha":789,"x_min":32,"x_max":758,"o":"m 32 0 l 336 903 l 460 903 l 758 0 l 649 0 l 554 278 l 200 278 l 106 0 l 32 0 m 219 335 l 536 335 l 379 822 l 219 335 m 367 967 q 365 996 365 976 q 386 1022 365 1004 q 414 1049 404 1038 q 424 1078 424 1061 q 369 1133 424 1133 q 339 1128 353 1133 q 317 1117 325 1122 q 308 1110 310 1111 l 278 1169 q 297 1178 282 1172 q 333 1191 311 1185 q 375 1197 354 1197 q 459 1169 425 1197 q 493 1083 493 1142 q 481 1042 493 1057 q 447 1011 469 1028 q 427 995 433 1001 q 421 979 421 989 l 421 968 l 367 967 z "},"Ā":{"ha":789,"x_min":32,"x_max":758,"o":"m 267 1071 l 267 1121 l 525 1121 l 525 1071 l 267 1071 m 32 0 l 336 903 l 460 903 l 758 0 l 649 0 l 554 278 l 200 278 l 106 0 l 32 0 m 219 335 l 536 335 l 379 822 l 219 335 z "},"Ą":{"ha":789,"x_min":32,"x_max":758,"o":"m 735 -347 q 580 -315 640 -347 q 519 -193 519 -282 q 558 -81 519 -131 q 647 3 596 -32 l 554 278 l 200 278 l 106 0 l 32 0 l 336 903 l 460 903 l 758 0 l 701 0 q 626 -71 664 -24 q 589 -187 589 -118 q 628 -278 589 -253 q 735 -303 668 -303 l 735 -347 m 219 335 l 536 335 l 379 822 l 219 335 z "},"Å":{"ha":789,"x_min":32,"x_max":758,"o":"m 394 953 q 305 986 339 953 q 271 1082 271 1019 q 306 1178 271 1143 q 394 1213 340 1213 q 483 1178 447 1213 q 518 1082 518 1143 q 484 986 518 1019 q 394 953 450 953 m 394 989 q 455 1012 432 989 q 478 1082 478 1035 q 455 1152 478 1129 q 394 1175 432 1175 q 333 1151 357 1175 q 310 1082 310 1128 q 333 1012 310 1035 q 394 989 357 989 m 32 0 l 336 903 l 460 903 l 758 0 l 649 0 l 554 278 l 200 278 l 106 0 l 32 0 m 219 335 l 536 335 l 379 822 l 219 335 z "},"Ã":{"ha":789,"x_min":32,"x_max":758,"o":"m 510 1014 q 456 1023 482 1014 q 399 1047 431 1032 q 342 1070 365 1063 q 296 1078 319 1078 q 253 1066 272 1078 q 225 1041 235 1054 q 213 1024 215 1028 l 181 1058 q 197 1084 181 1061 q 244 1126 214 1107 q 314 1146 274 1146 q 369 1138 344 1146 q 431 1111 394 1129 q 482 1089 461 1096 q 525 1082 503 1082 q 563 1090 547 1082 q 587 1108 579 1099 q 596 1119 594 1117 l 628 1085 q 614 1064 628 1082 q 574 1030 600 1046 q 510 1014 549 1014 m 32 0 l 336 903 l 460 903 l 758 0 l 649 0 l 554 278 l 200 278 l 106 0 l 32 0 m 219 335 l 536 335 l 379 822 l 219 335 z "},"Æ":{"ha":1096,"x_min":-17,"x_max":1046,"o":"m -17 0 l 499 903 l 1017 903 l 1017 836 l 635 836 l 635 489 l 983 489 l 983 425 l 635 425 l 635 67 l 1046 67 l 1046 0 l 529 0 l 529 285 l 224 285 l 63 0 l -17 0 m 254 342 l 529 342 l 529 836 l 524 836 l 254 342 z "},"B":{"ha":753,"x_min":131,"x_max":686,"o":"m 131 903 l 358 903 q 569 841 494 903 q 643 678 643 779 q 606 553 643 603 q 513 474 568 503 q 640 396 593 451 q 686 256 686 340 q 605 67 686 133 q 360 0 524 0 l 131 0 l 131 903 m 400 494 q 462 511 429 494 q 518 567 494 528 q 542 671 542 607 q 490 799 542 756 q 354 842 439 842 l 236 842 l 236 494 l 400 494 m 356 61 q 582 260 582 61 q 533 393 582 349 q 406 438 485 438 l 236 438 l 236 61 l 356 61 z "},"C":{"ha":792,"x_min":67,"x_max":764,"o":"m 463 -14 q 171 108 275 -14 q 67 443 67 229 q 115 693 67 586 q 251 858 163 800 q 456 915 339 915 q 578 899 519 915 q 679 861 638 882 q 721 839 721 840 l 708 772 q 668 793 708 774 q 574 829 628 813 q 467 846 521 846 q 256 744 332 846 q 179 446 179 642 q 257 154 179 253 q 475 56 335 56 q 604 86 549 56 q 692 151 660 117 q 725 192 725 186 l 764 147 q 728 99 764 140 q 624 22 692 58 q 463 -14 557 -14 z "},"Ć":{"ha":792,"x_min":67,"x_max":764,"o":"m 463 981 l 410 988 l 517 1189 l 604 1168 l 463 981 m 463 -14 q 171 108 275 -14 q 67 443 67 229 q 115 693 67 586 q 251 858 163 800 q 456 915 339 915 q 578 899 519 915 q 679 861 638 882 q 721 839 721 840 l 708 772 q 668 793 708 774 q 574 829 628 813 q 467 846 521 846 q 256 744 332 846 q 179 446 179 642 q 257 154 179 253 q 475 56 335 56 q 604 86 549 56 q 692 151 660 117 q 725 192 725 186 l 764 147 q 728 99 764 140 q 624 22 692 58 q 463 -14 557 -14 z "},"Č":{"ha":792,"x_min":67,"x_max":764,"o":"m 417 983 l 251 1154 l 292 1188 l 443 1047 l 597 1188 l 636 1151 l 471 983 l 417 983 m 463 -14 q 171 108 275 -14 q 67 443 67 229 q 115 693 67 586 q 251 858 163 800 q 456 915 339 915 q 578 899 519 915 q 679 861 638 882 q 721 839 721 840 l 708 772 q 668 793 708 774 q 574 829 628 813 q 467 846 521 846 q 256 744 332 846 q 179 446 179 642 q 257 154 179 253 q 475 56 335 56 q 604 86 549 56 q 692 151 660 117 q 725 192 725 186 l 764 147 q 728 99 764 140 q 624 22 692 58 q 463 -14 557 -14 z "},"Ç":{"ha":792,"x_min":67,"x_max":764,"o":"m 444 -349 q 374 -335 403 -349 q 331 -308 346 -322 q 317 -290 317 -293 l 342 -262 q 355 -277 344 -267 q 386 -297 365 -287 q 435 -307 407 -307 q 526 -212 526 -307 q 497 -155 526 -171 q 438 -134 467 -139 q 410 -128 410 -129 l 425 -12 q 160 119 254 0 q 67 443 67 239 q 115 693 67 586 q 251 858 163 800 q 456 915 339 915 q 578 899 519 915 q 679 861 638 882 q 721 839 721 840 l 708 772 q 668 793 708 774 q 574 829 628 813 q 467 846 521 846 q 256 744 332 846 q 179 446 179 642 q 257 154 179 253 q 475 56 335 56 q 604 86 549 56 q 692 151 660 117 q 725 192 725 186 l 764 147 q 728 99 764 140 q 625 22 692 58 q 464 -14 558 -14 l 456 -96 q 491 -106 456 -97 q 558 -142 526 -115 q 589 -215 589 -168 q 552 -313 589 -278 q 444 -349 515 -349 z "},"D":{"ha":881,"x_min":131,"x_max":815,"o":"m 131 903 l 406 903 q 708 785 600 903 q 815 449 815 668 q 709 115 815 231 q 406 0 603 0 l 131 0 l 131 903 m 407 67 q 701 449 701 67 q 406 836 701 836 l 236 836 l 236 67 l 407 67 z "},"Ð":{"ha":886,"x_min":35,"x_max":815,"o":"m 131 419 l 35 419 l 35 478 l 131 478 l 131 903 l 406 903 q 708 785 600 903 q 815 449 815 668 q 709 115 815 231 q 406 0 603 0 l 131 0 l 131 419 m 407 67 q 701 449 701 67 q 406 836 701 836 l 236 836 l 236 478 l 499 478 l 499 419 l 236 419 l 236 67 l 407 67 z "},"Ď":{"ha":886,"x_min":131,"x_max":815,"o":"m 357 983 l 192 1154 l 232 1188 l 383 1047 l 538 1188 l 576 1151 l 411 983 l 357 983 m 131 903 l 406 903 q 708 785 600 903 q 815 449 815 668 q 709 115 815 231 q 406 0 603 0 l 131 0 l 131 903 m 407 67 q 701 449 701 67 q 406 836 701 836 l 236 836 l 236 67 l 407 67 z "},"Đ":{"ha":886,"x_min":35,"x_max":815,"o":"m 131 419 l 35 419 l 35 478 l 131 478 l 131 903 l 406 903 q 708 785 600 903 q 815 449 815 668 q 709 115 815 231 q 406 0 603 0 l 131 0 l 131 419 m 407 67 q 701 449 701 67 q 406 836 701 836 l 236 836 l 236 478 l 499 478 l 499 419 l 236 419 l 236 67 l 407 67 z "},"E":{"ha":704,"x_min":131,"x_max":647,"o":"m 131 0 l 131 903 l 617 903 l 617 836 l 236 836 l 236 489 l 585 489 l 585 425 l 236 425 l 236 67 l 647 67 l 647 0 l 131 0 z "},"É":{"ha":704,"x_min":131,"x_max":647,"o":"m 397 981 l 344 988 l 451 1189 l 539 1168 l 397 981 m 131 0 l 131 903 l 617 903 l 617 836 l 236 836 l 236 489 l 585 489 l 585 425 l 236 425 l 236 67 l 647 67 l 647 0 l 131 0 z "},"Ě":{"ha":704,"x_min":131,"x_max":647,"o":"m 350 983 l 185 1154 l 225 1188 l 376 1047 l 531 1188 l 569 1151 l 404 983 l 350 983 m 131 0 l 131 903 l 617 903 l 617 836 l 236 836 l 236 489 l 585 489 l 585 425 l 236 425 l 236 67 l 647 67 l 647 0 l 131 0 z "},"Ê":{"ha":704,"x_min":131,"x_max":647,"o":"m 238 1017 l 211 1061 l 364 1219 l 418 1219 l 568 1061 l 543 1017 l 390 1151 l 238 1017 m 131 0 l 131 903 l 617 903 l 617 836 l 236 836 l 236 489 l 585 489 l 585 425 l 236 425 l 236 67 l 647 67 l 647 0 l 131 0 z "},"Ế":{"ha":704,"x_min":131,"x_max":700,"o":"m 131 0 l 131 903 l 617 903 l 617 836 l 236 836 l 236 489 l 585 489 l 585 425 l 236 425 l 236 67 l 647 67 l 647 0 l 131 0 m 200 990 l 174 1035 l 326 1193 l 381 1193 l 531 1035 l 506 990 l 353 1125 l 200 990 m 558 1107 l 506 1114 l 613 1315 l 700 1294 l 558 1107 z "},"Ệ":{"ha":704,"x_min":131,"x_max":647,"o":"m 131 0 l 131 903 l 617 903 l 617 836 l 236 836 l 236 489 l 585 489 l 585 425 l 236 425 l 236 67 l 647 67 l 647 0 l 131 0 m 353 -224 q 310 -207 328 -224 q 290 -160 290 -189 q 310 -112 290 -131 q 353 -96 328 -96 q 397 -112 378 -96 q 415 -160 415 -131 q 397 -207 415 -189 q 353 -224 378 -224 m 200 990 l 174 1035 l 326 1193 l 381 1193 l 531 1035 l 506 990 l 353 1125 l 200 990 z "},"Ề":{"ha":704,"x_min":131,"x_max":647,"o":"m 131 0 l 131 903 l 617 903 l 617 836 l 236 836 l 236 489 l 585 489 l 585 425 l 236 425 l 236 67 l 647 67 l 647 0 l 131 0 m 200 990 l 174 1035 l 326 1193 l 381 1193 l 531 1035 l 506 990 l 353 1125 l 200 990 m 501 1171 l 356 1358 l 442 1381 l 557 1182 l 501 1171 z "},"Ể":{"ha":704,"x_min":131,"x_max":647,"o":"m 131 0 l 131 903 l 617 903 l 617 836 l 236 836 l 236 489 l 585 489 l 585 425 l 236 425 l 236 67 l 647 67 l 647 0 l 131 0 m 200 990 l 174 1035 l 326 1193 l 381 1193 l 531 1035 l 506 990 l 353 1125 l 200 990 m 513 1169 q 511 1199 511 1179 q 532 1225 511 1207 q 560 1252 550 1240 q 569 1281 569 1264 q 515 1336 569 1336 q 485 1331 499 1336 q 463 1319 471 1325 q 454 1313 456 1314 l 424 1372 q 442 1381 428 1375 q 478 1394 457 1388 q 521 1400 500 1400 q 605 1372 571 1400 q 639 1286 639 1344 q 627 1245 639 1260 q 593 1214 615 1231 q 573 1198 579 1204 q 567 1182 567 1192 l 567 1171 l 513 1169 z "},"Ễ":{"ha":704,"x_min":131,"x_max":647,"o":"m 131 0 l 131 903 l 617 903 l 617 836 l 236 836 l 236 489 l 585 489 l 585 425 l 236 425 l 236 67 l 647 67 l 647 0 l 131 0 m 200 990 l 174 1035 l 326 1193 l 381 1193 l 531 1035 l 506 990 l 353 1125 l 200 990 m 471 1214 q 417 1223 443 1214 q 360 1247 392 1232 q 303 1270 326 1263 q 257 1278 281 1278 q 215 1266 233 1278 q 186 1241 196 1254 q 174 1224 176 1228 l 142 1258 q 158 1284 142 1261 q 205 1326 175 1307 q 275 1346 235 1346 q 331 1338 306 1346 q 392 1311 356 1329 q 443 1289 422 1296 q 486 1282 464 1282 q 524 1290 508 1282 q 548 1308 540 1299 q 557 1319 556 1317 l 589 1285 q 575 1264 589 1282 q 535 1230 561 1246 q 471 1214 510 1214 z "},"Ë":{"ha":704,"x_min":131,"x_max":647,"o":"m 264 1028 q 228 1042 246 1028 q 213 1082 213 1057 q 228 1124 213 1108 q 264 1138 246 1138 q 301 1124 283 1138 q 317 1082 317 1106 q 301 1042 317 1060 q 264 1028 283 1028 m 478 1028 q 442 1042 460 1028 q 426 1082 426 1057 q 442 1124 426 1108 q 478 1138 460 1138 q 514 1124 496 1138 q 531 1082 531 1107 q 514 1042 531 1058 q 478 1028 496 1028 m 131 0 l 131 903 l 617 903 l 617 836 l 236 836 l 236 489 l 585 489 l 585 425 l 236 425 l 236 67 l 647 67 l 647 0 l 131 0 z "},"Ė":{"ha":704,"x_min":131,"x_max":647,"o":"m 383 1022 q 343 1038 358 1022 q 325 1082 325 1056 q 343 1126 325 1108 q 383 1142 358 1142 q 425 1128 410 1142 q 442 1082 442 1110 q 425 1038 442 1057 q 383 1022 406 1022 m 131 0 l 131 903 l 617 903 l 617 836 l 236 836 l 236 489 l 585 489 l 585 425 l 236 425 l 236 67 l 647 67 l 647 0 l 131 0 z "},"Ẹ":{"ha":704,"x_min":131,"x_max":647,"o":"m 131 0 l 131 903 l 617 903 l 617 836 l 236 836 l 236 489 l 585 489 l 585 425 l 236 425 l 236 67 l 647 67 l 647 0 l 131 0 m 353 -224 q 310 -207 328 -224 q 290 -160 290 -189 q 310 -112 290 -131 q 353 -96 328 -96 q 397 -112 378 -96 q 415 -160 415 -131 q 397 -207 415 -189 q 353 -224 378 -224 z "},"È":{"ha":704,"x_min":131,"x_max":647,"o":"m 379 983 l 233 1171 l 319 1193 l 435 994 l 379 983 m 131 0 l 131 903 l 617 903 l 617 836 l 236 836 l 236 489 l 585 489 l 585 425 l 236 425 l 236 67 l 647 67 l 647 0 l 131 0 z "},"Ẻ":{"ha":704,"x_min":131,"x_max":647,"o":"m 131 0 l 131 903 l 617 903 l 617 836 l 236 836 l 236 489 l 585 489 l 585 425 l 236 425 l 236 67 l 647 67 l 647 0 l 131 0 m 325 967 q 324 996 324 976 q 344 1022 324 1004 q 372 1049 363 1038 q 382 1078 382 1061 q 328 1133 382 1133 q 297 1128 311 1133 q 276 1117 283 1122 q 267 1110 268 1111 l 236 1169 q 255 1178 240 1172 q 291 1191 269 1185 q 333 1197 313 1197 q 417 1169 383 1197 q 451 1083 451 1142 q 440 1042 451 1057 q 406 1011 428 1028 q 385 995 392 1001 q 379 979 379 989 l 379 968 l 325 967 z "},"Ē":{"ha":704,"x_min":131,"x_max":647,"o":"m 260 1071 l 260 1121 l 518 1121 l 518 1071 l 260 1071 m 131 0 l 131 903 l 617 903 l 617 836 l 236 836 l 236 489 l 585 489 l 585 425 l 236 425 l 236 67 l 647 67 l 647 0 l 131 0 z "},"Ę":{"ha":704,"x_min":131,"x_max":668,"o":"m 668 -347 q 513 -315 574 -347 q 453 -193 453 -282 q 489 -83 453 -132 q 575 0 525 -35 l 131 0 l 131 903 l 617 903 l 617 836 l 236 836 l 236 489 l 585 489 l 585 425 l 236 425 l 236 67 l 647 67 l 647 0 l 635 0 q 560 -71 597 -24 q 522 -187 522 -118 q 562 -278 522 -253 q 668 -303 601 -303 l 668 -347 z "},"Ẽ":{"ha":704,"x_min":129,"x_max":647,"o":"m 131 0 l 131 903 l 617 903 l 617 836 l 236 836 l 236 489 l 585 489 l 585 425 l 236 425 l 236 67 l 647 67 l 647 0 l 131 0 m 458 1035 q 405 1044 431 1035 q 347 1068 379 1053 q 291 1091 314 1083 q 244 1099 268 1099 q 202 1087 221 1099 q 174 1062 183 1075 q 161 1044 164 1049 l 129 1079 q 146 1105 129 1082 q 192 1147 163 1128 q 263 1167 222 1167 q 318 1158 293 1167 q 379 1132 343 1150 q 431 1110 410 1117 q 474 1103 451 1103 q 512 1111 496 1103 q 535 1128 528 1119 q 544 1140 543 1138 l 576 1106 q 563 1085 576 1103 q 523 1051 549 1067 q 458 1035 497 1035 z "},"F":{"ha":644,"x_min":131,"x_max":626,"o":"m 131 0 l 131 903 l 626 903 l 626 836 l 236 836 l 236 476 l 572 476 l 572 413 l 236 413 l 236 0 l 131 0 z "},"G":{"ha":861,"x_min":67,"x_max":754,"o":"m 438 -14 q 164 108 261 -14 q 67 449 67 231 q 172 792 67 669 q 471 915 278 915 q 594 899 535 915 q 694 861 653 882 q 736 839 736 840 l 724 772 q 683 793 724 774 q 590 829 643 813 q 482 846 536 846 q 253 747 328 846 q 179 449 179 647 q 251 155 179 254 q 453 56 324 56 q 604 106 557 56 q 665 206 651 156 l 665 410 l 481 410 l 481 469 l 754 469 l 754 0 l 703 0 l 676 99 q 585 18 643 50 q 438 -14 526 -14 z "},"Ğ":{"ha":861,"x_min":67,"x_max":754,"o":"m 465 988 q 345 1018 388 988 q 289 1081 303 1049 q 275 1125 275 1114 l 338 1133 l 338 1131 q 349 1105 338 1125 q 388 1067 360 1085 q 465 1049 415 1049 q 544 1067 515 1049 q 585 1105 574 1085 q 596 1131 596 1125 l 596 1133 l 658 1125 q 644 1081 658 1114 q 586 1018 629 1049 q 465 988 543 988 m 438 -14 q 164 108 261 -14 q 67 449 67 231 q 172 792 67 669 q 471 915 278 915 q 594 899 535 915 q 694 861 653 882 q 736 839 736 840 l 724 772 q 683 793 724 774 q 590 829 643 813 q 482 846 536 846 q 253 747 328 846 q 179 449 179 647 q 251 155 179 254 q 453 56 324 56 q 604 106 557 56 q 665 206 651 156 l 665 410 l 481 410 l 481 469 l 754 469 l 754 0 l 703 0 l 676 99 q 585 18 643 50 q 438 -14 526 -14 z "},"Ģ":{"ha":861,"x_min":67,"x_max":754,"o":"m 438 -14 q 164 108 261 -14 q 67 449 67 231 q 172 792 67 669 q 471 915 278 915 q 594 899 535 915 q 694 861 653 882 q 736 839 736 840 l 724 772 q 683 793 724 774 q 590 829 643 813 q 482 846 536 846 q 253 747 328 846 q 179 449 179 647 q 251 155 179 254 q 453 56 324 56 q 604 106 557 56 q 665 206 651 156 l 665 410 l 481 410 l 481 469 l 754 469 l 754 0 l 703 0 l 676 99 q 585 18 643 50 q 438 -14 526 -14 m 369 -374 q 431 -285 410 -336 q 453 -187 453 -235 q 451 -162 453 -171 q 415 -150 431 -162 q 400 -112 400 -135 q 415 -75 400 -90 q 450 -62 431 -62 q 485 -75 471 -62 q 488 -78 488 -78 q 511 -154 511 -103 q 478 -287 511 -217 q 394 -400 446 -358 l 369 -374 z "},"H":{"ha":886,"x_min":131,"x_max":754,"o":"m 131 0 l 131 903 l 236 903 l 236 497 l 649 497 l 649 903 l 754 903 l 754 0 l 649 0 l 649 433 l 236 433 l 236 0 l 131 0 z "},"I":{"ha":368,"x_min":131,"x_max":236,"o":"m 131 0 l 131 903 l 236 903 l 236 0 l 131 0 z "},"Í":{"ha":368,"x_min":131,"x_max":332,"o":"m 190 981 l 138 988 l 244 1189 l 332 1168 l 190 981 m 131 0 l 131 903 l 236 903 l 236 0 l 131 0 z "},"Î":{"ha":368,"x_min":3,"x_max":360,"o":"m 29 1017 l 3 1061 l 156 1219 l 210 1219 l 360 1061 l 335 1017 l 182 1151 l 29 1017 m 131 0 l 131 903 l 236 903 l 236 0 l 131 0 z "},"Ï":{"ha":368,"x_min":22,"x_max":340,"o":"m 75 1028 q 38 1042 56 1028 q 22 1082 22 1057 q 38 1124 22 1108 q 75 1138 56 1138 q 111 1124 93 1138 q 126 1082 126 1106 q 111 1042 126 1060 q 75 1028 93 1028 m 288 1028 q 251 1042 269 1028 q 236 1082 236 1057 q 251 1124 236 1108 q 288 1138 269 1138 q 324 1124 306 1138 q 340 1082 340 1107 q 324 1042 340 1058 q 288 1028 306 1028 m 131 0 l 131 903 l 236 903 l 236 0 l 131 0 z "},"İ":{"ha":368,"x_min":125,"x_max":242,"o":"m 183 1022 q 143 1038 158 1022 q 125 1082 125 1056 q 143 1126 125 1108 q 183 1142 158 1142 q 225 1128 210 1142 q 242 1082 242 1110 q 225 1038 242 1057 q 183 1022 206 1022 m 131 0 l 131 903 l 236 903 l 236 0 l 131 0 z "},"Ị":{"ha":368,"x_min":122,"x_max":247,"o":"m 131 0 l 131 903 l 236 903 l 236 0 l 131 0 m 185 -224 q 142 -207 160 -224 q 122 -160 122 -189 q 142 -112 122 -131 q 185 -96 160 -96 q 229 -112 210 -96 q 247 -160 247 -131 q 229 -207 247 -189 q 185 -224 210 -224 z "},"Ì":{"ha":368,"x_min":26,"x_max":236,"o":"m 172 983 l 26 1171 l 113 1193 l 228 994 l 172 983 m 131 0 l 131 903 l 236 903 l 236 0 l 131 0 z "},"Ỉ":{"ha":368,"x_min":68,"x_max":283,"o":"m 131 0 l 131 903 l 236 903 l 236 0 l 131 0 m 157 967 q 156 996 156 976 q 176 1022 156 1004 q 204 1049 194 1038 q 214 1078 214 1061 q 160 1133 214 1133 q 129 1128 143 1133 q 108 1117 115 1122 q 99 1110 100 1111 l 68 1169 q 87 1178 72 1172 q 123 1191 101 1185 q 165 1197 144 1197 q 249 1169 215 1197 q 283 1083 283 1142 q 272 1042 283 1057 q 238 1011 260 1028 q 217 995 224 1001 q 211 979 211 989 l 211 968 l 157 967 z "},"Ī":{"ha":368,"x_min":56,"x_max":314,"o":"m 56 1071 l 56 1121 l 314 1121 l 314 1071 l 56 1071 m 131 0 l 131 903 l 236 903 l 236 0 l 131 0 z "},"Į":{"ha":368,"x_min":-7,"x_max":236,"o":"m 208 -347 q 53 -315 114 -347 q -7 -193 -7 -282 q 35 -76 -7 -126 q 131 10 76 -25 l 131 903 l 236 903 l 236 0 l 175 0 q 100 -71 138 -24 q 63 -187 63 -118 q 102 -278 63 -253 q 208 -303 142 -303 l 208 -347 z "},"Ĩ":{"ha":368,"x_min":-39,"x_max":408,"o":"m 131 0 l 131 903 l 236 903 l 236 0 l 131 0 m 290 1035 q 237 1044 263 1035 q 179 1068 211 1053 q 123 1091 146 1083 q 76 1099 100 1099 q 34 1087 53 1099 q 6 1062 15 1075 q -7 1044 -4 1049 l -39 1079 q -22 1105 -39 1082 q 24 1147 -6 1128 q 94 1167 54 1167 q 150 1158 125 1167 q 211 1132 175 1150 q 263 1110 242 1117 q 306 1103 283 1103 q 344 1111 328 1103 q 367 1128 360 1119 q 376 1140 375 1138 l 408 1106 q 394 1085 408 1103 q 355 1051 381 1067 q 290 1035 329 1035 z "},"J":{"ha":503,"x_min":8,"x_max":382,"o":"m 172 -14 q 79 -1 115 -14 q 26 27 43 13 q 8 44 8 42 l 36 99 q 49 85 36 97 q 88 63 63 74 q 149 53 113 53 q 242 98 207 53 q 278 265 278 143 l 278 903 l 382 903 l 382 265 q 326 48 382 110 q 172 -14 271 -14 z "},"K":{"ha":806,"x_min":131,"x_max":778,"o":"m 131 0 l 131 903 l 236 903 l 236 411 l 346 508 l 650 903 l 735 903 l 418 500 l 778 0 l 646 0 l 340 419 l 236 332 l 236 0 l 131 0 z "},"Ķ":{"ha":833,"x_min":131,"x_max":778,"o":"m 131 0 l 131 903 l 236 903 l 236 411 l 346 508 l 650 903 l 735 903 l 418 500 l 778 0 l 646 0 l 340 419 l 236 332 l 236 0 l 131 0 m 333 -374 q 395 -285 374 -336 q 417 -187 417 -235 q 415 -162 417 -171 q 379 -150 394 -162 q 364 -112 364 -135 q 379 -75 364 -90 q 414 -62 394 -62 q 449 -75 435 -62 q 475 -154 475 -100 q 442 -287 475 -217 q 358 -400 410 -358 l 333 -374 z "},"L":{"ha":654,"x_min":131,"x_max":638,"o":"m 131 0 l 131 903 l 236 903 l 236 67 l 638 67 l 638 0 l 131 0 z "},"Ĺ":{"ha":660,"x_min":131,"x_max":638,"o":"m 201 981 l 149 988 l 256 1189 l 343 1168 l 201 981 m 131 0 l 131 903 l 236 903 l 236 67 l 638 67 l 638 0 l 131 0 z "},"Ľ":{"ha":660,"x_min":-8,"x_max":638,"o":"m 157 983 l -8 1154 l 32 1188 l 183 1047 l 338 1188 l 376 1151 l 211 983 l 157 983 m 131 0 l 131 903 l 236 903 l 236 67 l 638 67 l 638 0 l 131 0 z "},"Ļ":{"ha":660,"x_min":131,"x_max":638,"o":"m 131 0 l 131 903 l 236 903 l 236 67 l 638 67 l 638 0 l 131 0 m 288 -374 q 349 -285 328 -336 q 371 -187 371 -235 q 369 -162 371 -171 q 333 -150 349 -162 q 318 -112 318 -135 q 333 -75 318 -90 q 368 -62 347 -62 q 403 -75 389 -62 q 429 -154 429 -100 q 397 -287 429 -217 q 313 -400 364 -358 l 288 -374 z "},"Ł":{"ha":689,"x_min":47,"x_max":674,"o":"m 167 0 l 167 357 l 75 290 l 47 328 l 167 415 l 167 903 l 272 903 l 272 492 l 442 617 l 469 579 l 272 435 l 272 67 l 674 67 l 674 0 l 167 0 z "},"M":{"ha":1160,"x_min":131,"x_max":1029,"o":"m 131 0 l 135 903 l 138 899 l 136 903 l 265 903 l 583 129 l 585 129 l 903 903 l 1025 903 l 1029 0 l 926 0 l 922 774 l 921 774 l 608 0 l 524 0 l 210 774 l 207 0 l 131 0 z "},"N":{"ha":904,"x_min":131,"x_max":774,"o":"m 131 0 l 131 903 l 240 903 l 701 158 l 697 192 l 697 903 l 774 903 l 774 0 l 682 0 l 201 769 l 200 769 l 207 726 l 207 0 l 131 0 z "},"Ń":{"ha":904,"x_min":131,"x_max":774,"o":"m 489 981 l 436 988 l 543 1189 l 631 1168 l 489 981 m 131 0 l 131 903 l 240 903 l 701 158 l 697 192 l 697 903 l 774 903 l 774 0 l 682 0 l 201 769 l 200 769 l 207 726 l 207 0 l 131 0 z "},"Ň":{"ha":904,"x_min":131,"x_max":774,"o":"m 458 983 l 293 1154 l 333 1188 l 485 1047 l 639 1188 l 678 1151 l 513 983 l 458 983 m 131 0 l 131 903 l 240 903 l 701 158 l 697 192 l 697 903 l 774 903 l 774 0 l 682 0 l 201 769 l 200 769 l 207 726 l 207 0 l 131 0 z "},"Ņ":{"ha":904,"x_min":131,"x_max":774,"o":"m 131 0 l 131 903 l 240 903 l 701 158 l 697 192 l 697 903 l 774 903 l 774 0 l 682 0 l 201 769 l 200 769 l 207 726 l 207 0 l 131 0 m 369 -374 q 431 -285 410 -336 q 453 -187 453 -235 q 451 -162 453 -171 q 415 -150 431 -162 q 400 -112 400 -135 q 415 -75 400 -90 q 450 -62 431 -62 q 485 -75 471 -62 q 511 -154 511 -100 q 478 -287 511 -217 q 394 -400 446 -358 l 369 -374 z "},"Ñ":{"ha":904,"x_min":131,"x_max":774,"o":"m 569 1014 q 516 1023 542 1014 q 458 1047 490 1032 q 402 1070 425 1063 q 356 1078 379 1078 q 313 1066 332 1078 q 285 1041 294 1054 q 272 1024 275 1028 l 240 1058 q 257 1084 240 1061 q 303 1126 274 1107 q 374 1146 333 1146 q 429 1138 404 1146 q 490 1111 454 1129 q 542 1089 521 1096 q 585 1082 563 1082 q 623 1090 607 1082 q 647 1108 639 1099 q 656 1119 654 1117 l 688 1085 q 674 1064 688 1082 q 634 1030 660 1046 q 569 1014 608 1014 m 131 0 l 131 903 l 240 903 l 701 158 l 697 192 l 697 903 l 774 903 l 774 0 l 682 0 l 201 769 l 200 769 l 207 726 l 207 0 l 131 0 z "},"O":{"ha":908,"x_min":67,"x_max":842,"o":"m 453 -14 q 245 42 332 -14 q 113 202 158 97 q 67 450 67 307 q 113 698 67 593 q 245 859 158 803 q 453 915 332 915 q 661 859 574 915 q 795 698 749 803 q 842 450 842 593 q 795 202 842 307 q 661 42 749 97 q 453 -14 574 -14 m 453 53 q 658 154 586 53 q 729 450 729 256 q 658 746 729 643 q 453 849 586 849 q 250 746 321 849 q 179 450 179 643 q 249 154 179 256 q 453 53 319 53 z "},"Ó":{"ha":908,"x_min":67,"x_max":842,"o":"m 460 981 l 407 988 l 514 1189 l 601 1168 l 460 981 m 453 -14 q 245 42 332 -14 q 113 202 158 97 q 67 450 67 307 q 113 698 67 593 q 245 859 158 803 q 453 915 332 915 q 661 859 574 915 q 795 698 749 803 q 842 450 842 593 q 795 202 842 307 q 661 42 749 97 q 453 -14 574 -14 m 453 53 q 658 154 586 53 q 729 450 729 256 q 658 746 729 643 q 453 849 586 849 q 250 746 321 849 q 179 450 179 643 q 249 154 179 256 q 453 53 319 53 z "},"Ô":{"ha":908,"x_min":67,"x_max":842,"o":"m 300 1017 l 274 1061 l 426 1219 l 481 1219 l 631 1061 l 606 1017 l 453 1151 l 300 1017 m 453 -14 q 245 42 332 -14 q 113 202 158 97 q 67 450 67 307 q 113 698 67 593 q 245 859 158 803 q 453 915 332 915 q 661 859 574 915 q 795 698 749 803 q 842 450 842 593 q 795 202 842 307 q 661 42 749 97 q 453 -14 574 -14 m 453 53 q 658 154 586 53 q 729 450 729 256 q 658 746 729 643 q 453 849 586 849 q 250 746 321 849 q 179 450 179 643 q 249 154 179 256 q 453 53 319 53 z "},"Ố":{"ha":908,"x_min":67,"x_max":842,"o":"m 453 -14 q 245 42 332 -14 q 113 202 158 97 q 67 450 67 307 q 113 698 67 593 q 245 859 158 803 q 453 915 332 915 q 661 859 574 915 q 795 698 749 803 q 842 450 842 593 q 795 202 842 307 q 661 42 749 97 q 453 -14 574 -14 m 453 53 q 658 154 586 53 q 729 450 729 256 q 658 746 729 643 q 453 849 586 849 q 250 746 321 849 q 179 450 179 643 q 249 154 179 256 q 453 53 319 53 m 301 990 l 275 1035 l 428 1193 l 482 1193 l 632 1035 l 607 990 l 454 1125 l 301 990 m 660 1107 l 607 1114 l 714 1315 l 801 1294 l 660 1107 z "},"Ộ":{"ha":908,"x_min":67,"x_max":842,"o":"m 453 -14 q 245 42 332 -14 q 113 202 158 97 q 67 450 67 307 q 113 698 67 593 q 245 859 158 803 q 453 915 332 915 q 661 859 574 915 q 795 698 749 803 q 842 450 842 593 q 795 202 842 307 q 661 42 749 97 q 453 -14 574 -14 m 453 53 q 658 154 586 53 q 729 450 729 256 q 658 746 729 643 q 453 849 586 849 q 250 746 321 849 q 179 450 179 643 q 249 154 179 256 q 453 53 319 53 m 454 -224 q 411 -207 429 -224 q 392 -160 392 -189 q 411 -112 392 -131 q 454 -96 429 -96 q 499 -112 479 -96 q 517 -160 517 -131 q 499 -207 517 -189 q 454 -224 479 -224 m 301 990 l 275 1035 l 428 1193 l 482 1193 l 632 1035 l 607 990 l 454 1125 l 301 990 z "},"Ồ":{"ha":908,"x_min":67,"x_max":842,"o":"m 453 -14 q 245 42 332 -14 q 113 202 158 97 q 67 450 67 307 q 113 698 67 593 q 245 859 158 803 q 453 915 332 915 q 661 859 574 915 q 795 698 749 803 q 842 450 842 593 q 795 202 842 307 q 661 42 749 97 q 453 -14 574 -14 m 453 53 q 658 154 586 53 q 729 450 729 256 q 658 746 729 643 q 453 849 586 849 q 250 746 321 849 q 179 450 179 643 q 249 154 179 256 q 453 53 319 53 m 301 990 l 275 1035 l 428 1193 l 482 1193 l 632 1035 l 607 990 l 454 1125 l 301 990 m 603 1171 l 457 1358 l 543 1381 l 658 1182 l 603 1171 z "},"Ổ":{"ha":908,"x_min":67,"x_max":842,"o":"m 453 -14 q 245 42 332 -14 q 113 202 158 97 q 67 450 67 307 q 113 698 67 593 q 245 859 158 803 q 453 915 332 915 q 661 859 574 915 q 795 698 749 803 q 842 450 842 593 q 795 202 842 307 q 661 42 749 97 q 453 -14 574 -14 m 453 53 q 658 154 586 53 q 729 450 729 256 q 658 746 729 643 q 453 849 586 849 q 250 746 321 849 q 179 450 179 643 q 249 154 179 256 q 453 53 319 53 m 301 990 l 275 1035 l 428 1193 l 482 1193 l 632 1035 l 607 990 l 454 1125 l 301 990 m 614 1169 q 613 1199 613 1179 q 633 1225 613 1207 q 661 1252 651 1240 q 671 1281 671 1264 q 617 1336 671 1336 q 586 1331 600 1336 q 565 1319 572 1325 q 556 1313 557 1314 l 525 1372 q 544 1381 529 1375 q 580 1394 558 1388 q 622 1400 601 1400 q 706 1372 672 1400 q 740 1286 740 1344 q 728 1245 740 1260 q 694 1214 717 1231 q 674 1198 681 1204 q 668 1182 668 1192 l 668 1171 l 614 1169 z "},"Ỗ":{"ha":908,"x_min":67,"x_max":842,"o":"m 453 -14 q 245 42 332 -14 q 113 202 158 97 q 67 450 67 307 q 113 698 67 593 q 245 859 158 803 q 453 915 332 915 q 661 859 574 915 q 795 698 749 803 q 842 450 842 593 q 795 202 842 307 q 661 42 749 97 q 453 -14 574 -14 m 453 53 q 658 154 586 53 q 729 450 729 256 q 658 746 729 643 q 453 849 586 849 q 250 746 321 849 q 179 450 179 643 q 249 154 179 256 q 453 53 319 53 m 301 990 l 275 1035 l 428 1193 l 482 1193 l 632 1035 l 607 990 l 454 1125 l 301 990 m 572 1214 q 519 1223 544 1214 q 461 1247 493 1232 q 405 1270 428 1263 q 358 1278 382 1278 q 316 1266 335 1278 q 288 1241 297 1254 q 275 1224 278 1228 l 243 1258 q 260 1284 243 1261 q 306 1326 276 1307 q 376 1346 336 1346 q 432 1338 407 1346 q 493 1311 457 1329 q 544 1289 524 1296 q 588 1282 565 1282 q 626 1290 610 1282 q 649 1308 642 1299 q 658 1319 657 1317 l 690 1285 q 676 1264 690 1282 q 637 1230 663 1246 q 572 1214 611 1214 z "},"Ö":{"ha":908,"x_min":67,"x_max":842,"o":"m 344 1028 q 307 1042 325 1028 q 292 1082 292 1057 q 307 1124 292 1108 q 344 1138 325 1138 q 381 1124 363 1138 q 396 1082 396 1106 q 381 1042 396 1060 q 344 1028 363 1028 m 557 1028 q 521 1042 539 1028 q 506 1082 506 1057 q 521 1124 506 1108 q 557 1138 539 1138 q 593 1124 575 1138 q 610 1082 610 1107 q 593 1042 610 1058 q 557 1028 575 1028 m 453 -14 q 245 42 332 -14 q 113 202 158 97 q 67 450 67 307 q 113 698 67 593 q 245 859 158 803 q 453 915 332 915 q 661 859 574 915 q 795 698 749 803 q 842 450 842 593 q 795 202 842 307 q 661 42 749 97 q 453 -14 574 -14 m 453 53 q 658 154 586 53 q 729 450 729 256 q 658 746 729 643 q 453 849 586 849 q 250 746 321 849 q 179 450 179 643 q 249 154 179 256 q 453 53 319 53 z "},"Ọ":{"ha":908,"x_min":67,"x_max":842,"o":"m 453 -14 q 245 42 332 -14 q 113 202 158 97 q 67 450 67 307 q 113 698 67 593 q 245 859 158 803 q 453 915 332 915 q 661 859 574 915 q 795 698 749 803 q 842 450 842 593 q 795 202 842 307 q 661 42 749 97 q 453 -14 574 -14 m 453 53 q 658 154 586 53 q 729 450 729 256 q 658 746 729 643 q 453 849 586 849 q 250 746 321 849 q 179 450 179 643 q 249 154 179 256 q 453 53 319 53 m 454 -224 q 411 -207 429 -224 q 392 -160 392 -189 q 411 -112 392 -131 q 454 -96 429 -96 q 499 -112 479 -96 q 517 -160 517 -131 q 499 -207 517 -189 q 454 -224 479 -224 z "},"Ò":{"ha":908,"x_min":67,"x_max":842,"o":"m 442 983 l 296 1171 l 382 1193 l 497 994 l 442 983 m 453 -14 q 245 42 332 -14 q 113 202 158 97 q 67 450 67 307 q 113 698 67 593 q 245 859 158 803 q 453 915 332 915 q 661 859 574 915 q 795 698 749 803 q 842 450 842 593 q 795 202 842 307 q 661 42 749 97 q 453 -14 574 -14 m 453 53 q 658 154 586 53 q 729 450 729 256 q 658 746 729 643 q 453 849 586 849 q 250 746 321 849 q 179 450 179 643 q 249 154 179 256 q 453 53 319 53 z "},"Ỏ":{"ha":908,"x_min":67,"x_max":842,"o":"m 453 -14 q 245 42 332 -14 q 113 202 158 97 q 67 450 67 307 q 113 698 67 593 q 245 859 158 803 q 453 915 332 915 q 661 859 574 915 q 795 698 749 803 q 842 450 842 593 q 795 202 842 307 q 661 42 749 97 q 453 -14 574 -14 m 453 53 q 658 154 586 53 q 729 450 729 256 q 658 746 729 643 q 453 849 586 849 q 250 746 321 849 q 179 450 179 643 q 249 154 179 256 q 453 53 319 53 m 426 967 q 425 996 425 976 q 446 1022 425 1004 q 474 1049 464 1038 q 483 1078 483 1061 q 429 1133 483 1133 q 399 1128 413 1133 q 377 1117 385 1122 q 368 1110 369 1111 l 338 1169 q 356 1178 342 1172 q 392 1191 371 1185 q 435 1197 414 1197 q 519 1169 485 1197 q 553 1083 553 1142 q 541 1042 553 1057 q 507 1011 529 1028 q 487 995 493 1001 q 481 979 481 989 l 481 968 l 426 967 z "},"Ơ":{"ha":908,"x_min":67,"x_max":842,"o":"m 644 869 q 790 708 739 817 q 842 450 842 600 q 795 202 842 307 q 661 42 749 97 q 453 -14 574 -14 q 245 42 332 -14 q 113 202 158 97 q 67 450 67 307 q 113 698 67 593 q 245 859 158 803 q 453 915 332 915 q 557 903 508 915 q 623 934 600 906 q 647 1026 646 963 l 733 1026 q 710 930 733 969 q 644 869 686 890 m 453 53 q 658 154 586 53 q 729 450 729 256 q 658 746 729 643 q 453 849 586 849 q 250 746 321 849 q 179 450 179 643 q 249 154 179 256 q 453 53 319 53 z "},"Ớ":{"ha":908,"x_min":67,"x_max":842,"o":"m 644 869 q 790 708 739 817 q 842 450 842 600 q 795 202 842 307 q 661 42 749 97 q 453 -14 574 -14 q 245 42 332 -14 q 113 202 158 97 q 67 450 67 307 q 113 698 67 593 q 245 859 158 803 q 453 915 332 915 q 557 903 508 915 q 623 934 600 906 q 647 1026 646 963 l 733 1026 q 710 930 733 969 q 644 869 686 890 m 453 53 q 658 154 586 53 q 729 450 729 256 q 658 746 729 643 q 453 849 586 849 q 250 746 321 849 q 179 450 179 643 q 249 154 179 256 q 453 53 319 53 m 410 1001 l 357 1008 l 464 1210 l 551 1189 l 410 1001 z "},"Ợ":{"ha":908,"x_min":67,"x_max":842,"o":"m 644 869 q 790 708 739 817 q 842 450 842 600 q 795 202 842 307 q 661 42 749 97 q 453 -14 574 -14 q 245 42 332 -14 q 113 202 158 97 q 67 450 67 307 q 113 698 67 593 q 245 859 158 803 q 453 915 332 915 q 557 903 508 915 q 623 934 600 906 q 647 1026 646 963 l 733 1026 q 710 930 733 969 q 644 869 686 890 m 453 53 q 658 154 586 53 q 729 450 729 256 q 658 746 729 643 q 453 849 586 849 q 250 746 321 849 q 179 450 179 643 q 249 154 179 256 q 453 53 319 53 m 454 -224 q 411 -207 429 -224 q 392 -160 392 -189 q 411 -112 392 -131 q 454 -96 429 -96 q 499 -112 479 -96 q 517 -160 517 -131 q 499 -207 517 -189 q 454 -224 479 -224 z "},"Ờ":{"ha":908,"x_min":67,"x_max":842,"o":"m 644 869 q 790 708 739 817 q 842 450 842 600 q 795 202 842 307 q 661 42 749 97 q 453 -14 574 -14 q 245 42 332 -14 q 113 202 158 97 q 67 450 67 307 q 113 698 67 593 q 245 859 158 803 q 453 915 332 915 q 557 903 508 915 q 623 934 600 906 q 647 1026 646 963 l 733 1026 q 710 930 733 969 q 644 869 686 890 m 453 53 q 658 154 586 53 q 729 450 729 256 q 658 746 729 643 q 453 849 586 849 q 250 746 321 849 q 179 450 179 643 q 249 154 179 256 q 453 53 319 53 m 499 1004 l 353 1192 l 439 1214 l 554 1015 l 499 1004 z "},"Ở":{"ha":908,"x_min":67,"x_max":842,"o":"m 644 869 q 790 708 739 817 q 842 450 842 600 q 795 202 842 307 q 661 42 749 97 q 453 -14 574 -14 q 245 42 332 -14 q 113 202 158 97 q 67 450 67 307 q 113 698 67 593 q 245 859 158 803 q 453 915 332 915 q 557 903 508 915 q 623 934 600 906 q 647 1026 646 963 l 733 1026 q 710 930 733 969 q 644 869 686 890 m 453 53 q 658 154 586 53 q 729 450 729 256 q 658 746 729 643 q 453 849 586 849 q 250 746 321 849 q 179 450 179 643 q 249 154 179 256 q 453 53 319 53 m 426 967 q 425 996 425 976 q 446 1022 425 1004 q 474 1049 464 1038 q 483 1078 483 1061 q 429 1133 483 1133 q 399 1128 413 1133 q 377 1117 385 1122 q 368 1110 369 1111 l 338 1169 q 356 1178 342 1172 q 392 1191 371 1185 q 435 1197 414 1197 q 519 1169 485 1197 q 553 1083 553 1142 q 541 1042 553 1057 q 507 1011 529 1028 q 487 995 493 1001 q 481 979 481 989 l 481 968 l 426 967 z "},"Ỡ":{"ha":908,"x_min":67,"x_max":842,"o":"m 644 869 q 790 708 739 817 q 842 450 842 600 q 795 202 842 307 q 661 42 749 97 q 453 -14 574 -14 q 245 42 332 -14 q 113 202 158 97 q 67 450 67 307 q 113 698 67 593 q 245 859 158 803 q 453 915 332 915 q 557 903 508 915 q 623 934 600 906 q 647 1026 646 963 l 733 1026 q 710 930 733 969 q 644 869 686 890 m 453 53 q 658 154 586 53 q 729 450 729 256 q 658 746 729 643 q 453 849 586 849 q 250 746 321 849 q 179 450 179 643 q 249 154 179 256 q 453 53 319 53 m 560 1035 q 506 1044 532 1035 q 449 1068 481 1053 q 392 1091 415 1083 q 346 1099 369 1099 q 303 1087 322 1099 q 275 1062 285 1075 q 263 1044 265 1049 l 231 1079 q 247 1105 231 1082 q 294 1147 264 1128 q 364 1167 324 1167 q 419 1158 394 1167 q 481 1132 444 1150 q 532 1110 511 1117 q 575 1103 553 1103 q 613 1111 597 1103 q 637 1128 629 1119 q 646 1140 644 1138 l 678 1106 q 664 1085 678 1103 q 624 1051 650 1067 q 560 1035 599 1035 z "},"Ő":{"ha":908,"x_min":67,"x_max":842,"o":"m 369 988 l 322 1007 l 385 1185 l 457 1167 l 369 988 m 549 988 l 501 1007 l 565 1185 l 636 1167 l 549 988 m 453 -14 q 245 42 332 -14 q 113 202 158 97 q 67 450 67 307 q 113 698 67 593 q 245 859 158 803 q 453 915 332 915 q 661 859 574 915 q 795 698 749 803 q 842 450 842 593 q 795 202 842 307 q 661 42 749 97 q 453 -14 574 -14 m 453 53 q 658 154 586 53 q 729 450 729 256 q 658 746 729 643 q 453 849 586 849 q 250 746 321 849 q 179 450 179 643 q 249 154 179 256 q 453 53 319 53 z "},"Ō":{"ha":908,"x_min":67,"x_max":842,"o":"m 324 1071 l 324 1121 l 582 1121 l 582 1071 l 324 1071 m 453 -14 q 245 42 332 -14 q 113 202 158 97 q 67 450 67 307 q 113 698 67 593 q 245 859 158 803 q 453 915 332 915 q 661 859 574 915 q 795 698 749 803 q 842 450 842 593 q 795 202 842 307 q 661 42 749 97 q 453 -14 574 -14 m 453 53 q 658 154 586 53 q 729 450 729 256 q 658 746 729 643 q 453 849 586 849 q 250 746 321 849 q 179 450 179 643 q 249 154 179 256 q 453 53 319 53 z "},"Ø":{"ha":908,"x_min":67,"x_max":842,"o":"m 218 -132 l 279 22 q 122 183 176 72 q 67 450 67 293 q 113 698 67 593 q 245 859 158 803 q 453 915 332 915 q 622 879 546 915 l 675 1011 l 714 1003 l 657 861 q 794 700 746 806 q 842 450 842 594 q 795 202 842 307 q 661 42 749 97 q 453 -14 574 -14 q 314 8 381 -14 l 254 -140 l 218 -132 m 593 808 q 453 849 533 849 q 250 746 321 849 q 179 450 179 643 q 212 228 179 318 q 308 94 244 139 l 593 808 m 453 53 q 658 154 586 53 q 729 450 729 256 q 625 783 729 683 l 340 75 q 453 53 389 53 z "},"Õ":{"ha":908,"x_min":67,"x_max":842,"o":"m 563 1014 q 509 1023 535 1014 q 451 1047 483 1032 q 395 1070 418 1063 q 349 1078 372 1078 q 306 1066 325 1078 q 278 1041 288 1054 q 265 1024 268 1028 l 233 1058 q 250 1084 233 1061 q 297 1126 267 1107 q 367 1146 326 1146 q 422 1138 397 1146 q 483 1111 447 1129 q 535 1089 514 1096 q 578 1082 556 1082 q 616 1090 600 1082 q 640 1108 632 1099 q 649 1119 647 1117 l 681 1085 q 667 1064 681 1082 q 627 1030 653 1046 q 563 1014 601 1014 m 453 -14 q 245 42 332 -14 q 113 202 158 97 q 67 450 67 307 q 113 698 67 593 q 245 859 158 803 q 453 915 332 915 q 661 859 574 915 q 795 698 749 803 q 842 450 842 593 q 795 202 842 307 q 661 42 749 97 q 453 -14 574 -14 m 453 53 q 658 154 586 53 q 729 450 729 256 q 658 746 729 643 q 453 849 586 849 q 250 746 321 849 q 179 450 179 643 q 249 154 179 256 q 453 53 319 53 z "},"Œ":{"ha":1306,"x_min":67,"x_max":1250,"o":"m 453 -14 q 245 42 332 -14 q 113 202 158 97 q 67 450 67 307 q 113 698 67 593 q 245 859 158 803 q 453 915 332 915 q 732 797 629 915 l 732 903 l 1219 903 l 1219 836 l 838 836 l 838 532 q 840 489 840 504 l 1186 489 l 1186 425 l 842 425 l 838 367 l 838 67 l 1250 67 l 1250 0 l 732 0 l 732 103 q 453 -14 628 -14 m 453 53 q 658 154 586 53 q 729 450 729 256 q 658 746 729 643 q 453 849 586 849 q 250 746 321 849 q 179 450 179 643 q 249 154 179 256 q 453 53 319 53 z "},"P":{"ha":689,"x_min":131,"x_max":640,"o":"m 131 903 l 347 903 q 563 831 486 903 q 640 617 640 758 q 599 444 640 511 q 491 347 557 376 q 350 317 425 317 l 236 317 l 236 0 l 131 0 l 131 903 m 335 375 q 529 613 529 375 q 479 785 529 729 q 336 842 429 842 l 236 842 l 236 375 l 335 375 z "},"Þ":{"ha":714,"x_min":147,"x_max":657,"o":"m 147 903 l 251 903 l 251 751 l 364 751 q 580 678 503 751 q 657 460 657 606 q 615 282 657 351 q 506 182 572 213 q 365 151 440 151 l 251 151 l 251 0 l 147 0 l 147 903 m 357 214 q 498 268 446 214 q 550 456 550 322 q 501 632 550 576 q 357 688 451 688 l 251 688 l 251 214 l 357 214 z "},"Q":{"ha":908,"x_min":67,"x_max":842,"o":"m 708 -221 q 547 -162 626 -221 q 418 -12 467 -104 q 159 122 251 -1 q 67 450 67 244 q 113 698 67 593 q 245 859 158 803 q 453 915 332 915 q 661 860 574 915 q 795 701 749 804 q 842 454 842 597 q 758 138 842 261 q 525 -8 675 15 q 623 -119 571 -76 q 729 -162 675 -162 q 775 -154 751 -162 l 782 -207 q 708 -221 749 -221 m 453 53 q 658 155 586 53 q 729 450 729 257 q 657 745 729 642 q 453 849 585 849 q 250 745 321 849 q 179 450 179 642 q 250 155 179 257 q 453 53 321 53 z "},"R":{"ha":749,"x_min":131,"x_max":701,"o":"m 131 903 l 349 903 q 564 831 486 903 q 642 626 642 760 q 596 451 642 519 q 475 354 550 383 l 701 0 l 581 0 l 374 335 l 236 335 l 236 0 l 131 0 l 131 903 m 349 397 q 485 449 439 397 q 531 622 531 500 q 336 842 531 842 l 236 842 l 236 397 l 349 397 z "},"Ŕ":{"ha":749,"x_min":131,"x_max":701,"o":"m 361 981 l 308 988 l 415 1189 l 503 1168 l 361 981 m 131 903 l 349 903 q 564 831 486 903 q 642 626 642 760 q 596 451 642 519 q 475 354 550 383 l 701 0 l 581 0 l 374 335 l 236 335 l 236 0 l 131 0 l 131 903 m 349 397 q 485 449 439 397 q 531 622 531 500 q 336 842 531 842 l 236 842 l 236 397 l 349 397 z "},"Ř":{"ha":749,"x_min":131,"x_max":701,"o":"m 324 983 l 158 1154 l 199 1188 l 350 1047 l 504 1188 l 543 1151 l 378 983 l 324 983 m 131 903 l 349 903 q 564 831 486 903 q 642 626 642 760 q 596 451 642 519 q 475 354 550 383 l 701 0 l 581 0 l 374 335 l 236 335 l 236 0 l 131 0 l 131 903 m 349 397 q 485 449 439 397 q 531 622 531 500 q 336 842 531 842 l 236 842 l 236 397 l 349 397 z "},"Ŗ":{"ha":749,"x_min":131,"x_max":701,"o":"m 131 903 l 349 903 q 564 831 486 903 q 642 626 642 760 q 596 451 642 519 q 475 354 550 383 l 701 0 l 581 0 l 374 335 l 236 335 l 236 0 l 131 0 l 131 903 m 349 397 q 485 449 439 397 q 531 622 531 500 q 336 842 531 842 l 236 842 l 236 397 l 349 397 m 299 -374 q 360 -285 339 -336 q 382 -187 382 -235 q 381 -162 382 -171 q 344 -150 360 -162 q 329 -112 329 -135 q 344 -75 329 -90 q 379 -62 360 -62 q 414 -75 400 -62 q 440 -154 440 -100 q 408 -287 440 -217 q 324 -400 375 -358 l 299 -374 z "},"S":{"ha":681,"x_min":61,"x_max":615,"o":"m 328 -14 q 178 13 238 -14 q 90 69 118 39 q 61 104 61 99 l 96 158 q 122 127 96 154 q 199 77 149 100 q 324 54 250 54 q 461 105 411 54 q 511 231 511 156 q 486 317 511 282 q 424 372 461 351 q 325 419 388 393 q 208 475 253 449 q 133 548 164 501 q 103 667 103 594 q 175 848 103 781 q 368 915 247 915 q 476 898 428 915 q 553 860 524 881 q 582 838 582 840 l 568 776 q 540 799 568 779 q 469 835 513 818 q 374 851 426 851 q 251 808 296 851 q 207 692 207 765 q 231 606 207 640 q 292 551 256 572 q 390 506 329 531 q 508 448 464 475 q 584 372 553 421 q 615 247 615 324 q 580 112 615 171 q 479 19 544 53 q 328 -14 414 -14 z "},"Ś":{"ha":681,"x_min":61,"x_max":615,"o":"m 378 981 l 325 988 l 432 1189 l 519 1168 l 378 981 m 328 -14 q 178 13 238 -14 q 90 69 118 39 q 61 104 61 99 l 96 158 q 122 127 96 154 q 199 77 149 100 q 324 54 250 54 q 461 105 411 54 q 511 231 511 156 q 486 317 511 282 q 424 372 461 351 q 325 419 388 393 q 208 475 253 449 q 133 548 164 501 q 103 667 103 594 q 175 848 103 781 q 368 915 247 915 q 476 898 428 915 q 553 860 524 881 q 582 838 582 840 l 568 776 q 540 799 568 779 q 469 835 513 818 q 374 851 426 851 q 251 808 296 851 q 207 692 207 765 q 231 606 207 640 q 292 551 256 572 q 390 506 329 531 q 508 448 464 475 q 584 372 553 421 q 615 247 615 324 q 580 112 615 171 q 479 19 544 53 q 328 -14 414 -14 z "},"Š":{"ha":681,"x_min":61,"x_max":615,"o":"m 336 983 l 171 1154 l 211 1188 l 363 1047 l 517 1188 l 556 1151 l 390 983 l 336 983 m 328 -14 q 178 13 238 -14 q 90 69 118 39 q 61 104 61 99 l 96 158 q 122 127 96 154 q 199 77 149 100 q 324 54 250 54 q 461 105 411 54 q 511 231 511 156 q 486 317 511 282 q 424 372 461 351 q 325 419 388 393 q 208 475 253 449 q 133 548 164 501 q 103 667 103 594 q 175 848 103 781 q 368 915 247 915 q 476 898 428 915 q 553 860 524 881 q 582 838 582 840 l 568 776 q 540 799 568 779 q 469 835 513 818 q 374 851 426 851 q 251 808 296 851 q 207 692 207 765 q 231 606 207 640 q 292 551 256 572 q 390 506 329 531 q 508 448 464 475 q 584 372 553 421 q 615 247 615 324 q 580 112 615 171 q 479 19 544 53 q 328 -14 414 -14 z "},"Ş":{"ha":681,"x_min":61,"x_max":615,"o":"m 331 -349 q 260 -335 289 -349 q 217 -308 232 -322 q 203 -290 203 -293 l 228 -262 q 241 -277 231 -267 q 272 -297 251 -287 q 321 -307 293 -307 q 413 -212 413 -307 q 383 -155 413 -171 q 324 -134 353 -139 q 296 -128 296 -129 l 311 -14 q 171 15 226 -11 q 88 70 115 42 q 61 104 61 99 l 96 158 q 122 127 96 154 q 199 77 149 100 q 324 54 250 54 q 461 105 411 54 q 511 231 511 156 q 486 317 511 282 q 424 372 461 351 q 325 419 388 393 q 208 475 253 449 q 133 548 164 501 q 103 667 103 594 q 175 848 103 781 q 368 915 247 915 q 476 898 428 915 q 553 860 524 881 q 582 838 582 840 l 568 776 q 540 799 568 779 q 469 835 513 818 q 374 851 426 851 q 251 808 296 851 q 207 692 207 765 q 231 606 207 640 q 292 551 256 572 q 390 506 329 531 q 508 448 464 475 q 584 372 553 421 q 615 247 615 324 q 543 65 615 138 q 350 -12 471 -7 l 342 -96 q 377 -106 342 -97 q 444 -142 413 -115 q 475 -215 475 -168 q 438 -313 475 -278 q 331 -349 401 -349 z "},"ẞ":{"ha":881,"x_min":126,"x_max":815,"o":"m 528 -14 q 422 -2 464 -14 q 358 24 379 10 q 338 40 338 38 l 361 101 q 378 88 361 100 q 429 66 396 76 q 511 56 463 56 q 656 110 604 56 q 708 267 708 165 q 560 460 708 460 q 520 452 538 460 q 493 437 503 444 q 482 426 483 429 l 431 474 l 599 835 l 450 835 q 232 589 232 835 l 232 0 l 126 0 l 126 608 q 206 825 126 747 q 438 903 285 903 l 694 903 l 694 858 l 522 510 q 579 518 556 518 q 752 450 689 518 q 815 267 815 382 q 778 117 815 181 q 674 20 740 54 q 528 -14 608 -14 z "},"T":{"ha":640,"x_min":10,"x_max":631,"o":"m 267 0 l 267 836 l 10 836 l 10 903 l 631 903 l 631 836 l 372 836 l 372 0 l 267 0 z "},"Ť":{"ha":640,"x_min":10,"x_max":631,"o":"m 292 983 l 126 1154 l 167 1188 l 318 1047 l 472 1188 l 511 1151 l 346 983 l 292 983 m 267 0 l 267 836 l 10 836 l 10 903 l 631 903 l 631 836 l 372 836 l 372 0 l 267 0 z "},"Ț":{"ha":640,"x_min":10,"x_max":631,"o":"m 267 0 l 267 836 l 10 836 l 10 903 l 631 903 l 631 836 l 372 836 l 372 0 l 267 0 m 239 -374 q 301 -285 279 -336 q 322 -187 322 -235 q 321 -162 322 -171 q 285 -150 300 -162 q 269 -112 269 -135 q 285 -75 269 -90 q 319 -62 300 -62 q 354 -75 340 -62 q 381 -154 381 -100 q 348 -287 381 -217 q 264 -400 315 -358 l 239 -374 z "},"U":{"ha":861,"x_min":119,"x_max":742,"o":"m 431 -14 q 199 69 279 -14 q 119 294 119 153 l 119 903 l 224 903 l 224 318 q 279 124 224 192 q 442 57 335 57 q 609 126 553 57 q 665 318 665 194 l 665 903 l 742 903 l 742 294 q 664 69 742 153 q 431 -14 586 -14 z "},"Ú":{"ha":861,"x_min":119,"x_max":742,"o":"m 433 981 l 381 988 l 488 1189 l 575 1168 l 433 981 m 431 -14 q 199 69 279 -14 q 119 294 119 153 l 119 903 l 224 903 l 224 318 q 279 124 224 192 q 442 57 335 57 q 609 126 553 57 q 665 318 665 194 l 665 903 l 742 903 l 742 294 q 664 69 742 153 q 431 -14 586 -14 z "},"Û":{"ha":861,"x_min":119,"x_max":742,"o":"m 292 1017 l 265 1061 l 418 1219 l 472 1219 l 622 1061 l 597 1017 l 444 1151 l 292 1017 m 431 -14 q 199 69 279 -14 q 119 294 119 153 l 119 903 l 224 903 l 224 318 q 279 124 224 192 q 442 57 335 57 q 609 126 553 57 q 665 318 665 194 l 665 903 l 742 903 l 742 294 q 664 69 742 153 q 431 -14 586 -14 z "},"Ü":{"ha":861,"x_min":119,"x_max":742,"o":"m 336 1028 q 300 1042 318 1028 q 285 1082 285 1057 q 300 1124 285 1108 q 336 1138 318 1138 q 374 1124 356 1138 q 389 1082 389 1106 q 374 1042 389 1060 q 336 1028 356 1028 m 550 1028 q 514 1042 532 1028 q 499 1082 499 1057 q 514 1124 499 1108 q 550 1138 532 1138 q 586 1124 568 1138 q 603 1082 603 1107 q 586 1042 603 1058 q 550 1028 568 1028 m 431 -14 q 199 69 279 -14 q 119 294 119 153 l 119 903 l 224 903 l 224 318 q 279 124 224 192 q 442 57 335 57 q 609 126 553 57 q 665 318 665 194 l 665 903 l 742 903 l 742 294 q 664 69 742 153 q 431 -14 586 -14 z "},"Ụ":{"ha":861,"x_min":119,"x_max":742,"o":"m 431 -14 q 199 69 279 -14 q 119 294 119 153 l 119 903 l 224 903 l 224 318 q 279 124 224 192 q 442 57 335 57 q 609 126 553 57 q 665 318 665 194 l 665 903 l 742 903 l 742 294 q 664 69 742 153 q 431 -14 586 -14 m 431 -224 q 388 -207 406 -224 q 368 -160 368 -189 q 388 -112 368 -131 q 431 -96 406 -96 q 475 -112 456 -96 q 493 -160 493 -131 q 475 -207 493 -189 q 431 -224 456 -224 z "},"Ù":{"ha":861,"x_min":119,"x_max":742,"o":"m 442 983 l 296 1171 l 382 1193 l 497 994 l 442 983 m 431 -14 q 199 69 279 -14 q 119 294 119 153 l 119 903 l 224 903 l 224 318 q 279 124 224 192 q 442 57 335 57 q 609 126 553 57 q 665 318 665 194 l 665 903 l 742 903 l 742 294 q 664 69 742 153 q 431 -14 586 -14 z "},"Ủ":{"ha":861,"x_min":119,"x_max":742,"o":"m 431 -14 q 199 69 279 -14 q 119 294 119 153 l 119 903 l 224 903 l 224 318 q 279 124 224 192 q 442 57 335 57 q 609 126 553 57 q 665 318 665 194 l 665 903 l 742 903 l 742 294 q 664 69 742 153 q 431 -14 586 -14 m 418 967 q 417 996 417 976 q 438 1022 417 1004 q 465 1049 456 1038 q 475 1078 475 1061 q 421 1133 475 1133 q 390 1128 404 1133 q 369 1117 376 1122 q 360 1110 361 1111 l 329 1169 q 348 1178 333 1172 q 384 1191 363 1185 q 426 1197 406 1197 q 510 1169 476 1197 q 544 1083 544 1142 q 533 1042 544 1057 q 499 1011 521 1028 q 478 995 485 1001 q 472 979 472 989 l 472 968 l 418 967 z "},"Ư":{"ha":861,"x_min":119,"x_max":865,"o":"m 865 1026 q 831 915 865 958 q 742 856 797 871 l 742 294 q 664 69 742 153 q 431 -14 586 -14 q 199 69 279 -14 q 119 294 119 153 l 119 903 l 224 903 l 224 318 q 279 124 224 192 q 442 57 335 57 q 609 126 553 57 q 665 318 665 194 l 665 903 l 681 903 q 753 931 728 903 q 779 1026 778 960 l 865 1026 z "},"Ứ":{"ha":861,"x_min":119,"x_max":865,"o":"m 865 1026 q 831 915 865 958 q 742 856 797 871 l 742 294 q 664 69 742 153 q 431 -14 586 -14 q 199 69 279 -14 q 119 294 119 153 l 119 903 l 224 903 l 224 318 q 279 124 224 192 q 442 57 335 57 q 609 126 553 57 q 665 318 665 194 l 665 903 l 681 903 q 753 931 728 903 q 779 1026 778 960 l 865 1026 m 401 1001 l 349 1008 l 456 1210 l 543 1189 l 401 1001 z "},"Ự":{"ha":861,"x_min":119,"x_max":865,"o":"m 865 1026 q 831 915 865 958 q 742 856 797 871 l 742 294 q 664 69 742 153 q 431 -14 586 -14 q 199 69 279 -14 q 119 294 119 153 l 119 903 l 224 903 l 224 318 q 279 124 224 192 q 442 57 335 57 q 609 126 553 57 q 665 318 665 194 l 665 903 l 681 903 q 753 931 728 903 q 779 1026 778 960 l 865 1026 m 431 -224 q 388 -207 406 -224 q 368 -160 368 -189 q 388 -112 368 -131 q 431 -96 406 -96 q 475 -112 456 -96 q 493 -160 493 -131 q 475 -207 493 -189 q 431 -224 456 -224 z "},"Ừ":{"ha":861,"x_min":119,"x_max":865,"o":"m 865 1026 q 831 915 865 958 q 742 856 797 871 l 742 294 q 664 69 742 153 q 431 -14 586 -14 q 199 69 279 -14 q 119 294 119 153 l 119 903 l 224 903 l 224 318 q 279 124 224 192 q 442 57 335 57 q 609 126 553 57 q 665 318 665 194 l 665 903 l 681 903 q 753 931 728 903 q 779 1026 778 960 l 865 1026 m 490 1004 l 344 1192 l 431 1214 l 546 1015 l 490 1004 z "},"Ử":{"ha":861,"x_min":119,"x_max":865,"o":"m 865 1026 q 831 915 865 958 q 742 856 797 871 l 742 294 q 664 69 742 153 q 431 -14 586 -14 q 199 69 279 -14 q 119 294 119 153 l 119 903 l 224 903 l 224 318 q 279 124 224 192 q 442 57 335 57 q 609 126 553 57 q 665 318 665 194 l 665 903 l 681 903 q 753 931 728 903 q 779 1026 778 960 l 865 1026 m 418 967 q 417 996 417 976 q 438 1022 417 1004 q 465 1049 456 1038 q 475 1078 475 1061 q 421 1133 475 1133 q 390 1128 404 1133 q 369 1117 376 1122 q 360 1110 361 1111 l 329 1169 q 348 1178 333 1172 q 384 1191 363 1185 q 426 1197 406 1197 q 510 1169 476 1197 q 544 1083 544 1142 q 533 1042 544 1057 q 499 1011 521 1028 q 478 995 485 1001 q 472 979 472 989 l 472 968 l 418 967 z "},"Ữ":{"ha":861,"x_min":119,"x_max":865,"o":"m 865 1026 q 831 915 865 958 q 742 856 797 871 l 742 294 q 664 69 742 153 q 431 -14 586 -14 q 199 69 279 -14 q 119 294 119 153 l 119 903 l 224 903 l 224 318 q 279 124 224 192 q 442 57 335 57 q 609 126 553 57 q 665 318 665 194 l 665 903 l 681 903 q 753 931 728 903 q 779 1026 778 960 l 865 1026 m 551 1035 q 498 1044 524 1035 q 440 1068 472 1053 q 384 1091 407 1083 q 338 1099 361 1099 q 295 1087 314 1099 q 267 1062 276 1075 q 254 1044 257 1049 l 222 1079 q 239 1105 222 1082 q 285 1147 256 1128 q 356 1167 315 1167 q 411 1158 386 1167 q 472 1132 436 1150 q 524 1110 503 1117 q 567 1103 544 1103 q 605 1111 589 1103 q 628 1128 621 1119 q 638 1140 636 1138 l 669 1106 q 656 1085 669 1103 q 616 1051 642 1067 q 551 1035 590 1035 z "},"Ű":{"ha":861,"x_min":119,"x_max":742,"o":"m 349 988 l 301 1007 l 364 1185 l 436 1167 l 349 988 m 528 988 l 481 1007 l 544 1185 l 615 1167 l 528 988 m 431 -14 q 199 69 279 -14 q 119 294 119 153 l 119 903 l 224 903 l 224 318 q 279 124 224 192 q 442 57 335 57 q 609 126 553 57 q 665 318 665 194 l 665 903 l 742 903 l 742 294 q 664 69 742 153 q 431 -14 586 -14 z "},"Ū":{"ha":861,"x_min":119,"x_max":742,"o":"m 311 1071 l 311 1121 l 569 1121 l 569 1071 l 311 1071 m 431 -14 q 199 69 279 -14 q 119 294 119 153 l 119 903 l 224 903 l 224 318 q 279 124 224 192 q 442 57 335 57 q 609 126 553 57 q 665 318 665 194 l 665 903 l 742 903 l 742 294 q 664 69 742 153 q 431 -14 586 -14 z "},"Ų":{"ha":861,"x_min":119,"x_max":742,"o":"m 563 -347 q 408 -315 468 -347 q 347 -193 347 -282 q 377 -94 347 -139 q 451 -14 407 -49 l 431 -14 q 199 69 279 -14 q 119 294 119 153 l 119 903 l 224 903 l 224 318 q 279 124 224 192 q 442 57 335 57 q 609 126 553 57 q 665 318 665 194 l 665 903 l 742 903 l 742 294 q 687 97 742 175 q 521 -6 632 18 q 449 -77 482 -32 q 417 -187 417 -122 q 456 -278 417 -253 q 563 -303 496 -303 l 563 -347 z "},"Ů":{"ha":861,"x_min":119,"x_max":742,"o":"m 439 953 q 349 986 383 953 q 315 1082 315 1019 q 350 1178 315 1143 q 439 1213 385 1213 q 527 1178 492 1213 q 563 1082 563 1143 q 528 986 563 1019 q 439 953 494 953 m 439 989 q 499 1012 476 989 q 522 1082 522 1035 q 499 1152 522 1129 q 439 1175 476 1175 q 378 1151 401 1175 q 354 1082 354 1128 q 378 1012 354 1035 q 439 989 401 989 m 431 -14 q 199 69 279 -14 q 119 294 119 153 l 119 903 l 224 903 l 224 318 q 279 124 224 192 q 442 57 335 57 q 609 126 553 57 q 665 318 665 194 l 665 903 l 742 903 l 742 294 q 664 69 742 153 q 431 -14 586 -14 z "},"Ũ":{"ha":861,"x_min":119,"x_max":742,"o":"m 431 -14 q 199 69 279 -14 q 119 294 119 153 l 119 903 l 224 903 l 224 318 q 279 124 224 192 q 442 57 335 57 q 609 126 553 57 q 665 318 665 194 l 665 903 l 742 903 l 742 294 q 664 69 742 153 q 431 -14 586 -14 m 551 1035 q 498 1044 524 1035 q 440 1068 472 1053 q 384 1091 407 1083 q 338 1099 361 1099 q 295 1087 314 1099 q 267 1062 276 1075 q 254 1044 257 1049 l 222 1079 q 239 1105 222 1082 q 285 1147 256 1128 q 356 1167 315 1167 q 411 1158 386 1167 q 472 1132 436 1150 q 524 1110 503 1117 q 567 1103 544 1103 q 605 1111 589 1103 q 628 1128 621 1119 q 638 1140 636 1138 l 669 1106 q 656 1085 669 1103 q 616 1051 642 1067 q 551 1035 590 1035 z "},"V":{"ha":761,"x_min":21,"x_max":738,"o":"m 315 0 l 21 903 l 131 903 l 393 78 l 660 903 l 738 903 l 438 0 l 315 0 z "},"W":{"ha":1178,"x_min":21,"x_max":1154,"o":"m 269 0 l 21 903 l 132 903 l 338 121 l 558 903 l 651 903 l 876 122 l 1076 903 l 1154 903 l 911 0 l 814 0 l 589 769 l 367 0 l 269 0 z "},"X":{"ha":751,"x_min":25,"x_max":726,"o":"m 25 0 l 314 449 l 36 903 l 164 903 l 388 525 l 621 903 l 708 903 l 432 465 l 726 0 l 597 0 l 360 388 l 358 388 l 118 0 l 25 0 z "},"Y":{"ha":704,"x_min":3,"x_max":701,"o":"m 301 0 l 301 374 l 3 903 l 121 903 l 369 458 l 617 903 l 701 903 l 407 381 l 407 0 l 301 0 z "},"Ý":{"ha":704,"x_min":3,"x_max":701,"o":"m 382 981 l 329 988 l 436 1189 l 524 1168 l 382 981 m 301 0 l 301 374 l 3 903 l 121 903 l 369 458 l 617 903 l 701 903 l 407 381 l 407 0 l 301 0 z "},"Ÿ":{"ha":704,"x_min":3,"x_max":701,"o":"m 261 1028 q 224 1042 242 1028 q 208 1082 208 1057 q 224 1124 208 1108 q 261 1138 242 1138 q 297 1124 279 1138 q 313 1082 313 1106 q 297 1042 313 1060 q 261 1028 279 1028 m 474 1028 q 438 1042 456 1028 q 422 1082 422 1057 q 438 1124 422 1108 q 474 1138 456 1138 q 510 1124 492 1138 q 526 1082 526 1107 q 510 1042 526 1058 q 474 1028 492 1028 m 301 0 l 301 374 l 3 903 l 121 903 l 369 458 l 617 903 l 701 903 l 407 381 l 407 0 l 301 0 z "},"Ỵ":{"ha":704,"x_min":3,"x_max":701,"o":"m 301 0 l 301 374 l 3 903 l 121 903 l 369 458 l 617 903 l 701 903 l 407 381 l 407 0 l 301 0 m 353 -224 q 310 -207 328 -224 q 290 -160 290 -189 q 310 -112 290 -131 q 353 -96 328 -96 q 397 -112 378 -96 q 415 -160 415 -131 q 397 -207 415 -189 q 353 -224 378 -224 z "},"Ỳ":{"ha":704,"x_min":3,"x_max":701,"o":"m 301 0 l 301 374 l 3 903 l 121 903 l 369 458 l 617 903 l 701 903 l 407 381 l 407 0 l 301 0 m 397 1004 l 251 1192 l 338 1214 l 453 1015 l 397 1004 z "},"Ỷ":{"ha":704,"x_min":3,"x_max":701,"o":"m 301 0 l 301 374 l 3 903 l 121 903 l 369 458 l 617 903 l 701 903 l 407 381 l 407 0 l 301 0 m 325 967 q 324 996 324 976 q 344 1022 324 1004 q 372 1049 363 1038 q 382 1078 382 1061 q 328 1133 382 1133 q 297 1128 311 1133 q 276 1117 283 1122 q 267 1110 268 1111 l 236 1169 q 255 1178 240 1172 q 291 1191 269 1185 q 333 1197 313 1197 q 417 1169 383 1197 q 451 1083 451 1142 q 440 1042 451 1057 q 406 1011 428 1028 q 385 995 392 1001 q 379 979 379 989 l 379 968 l 325 967 z "},"Ỹ":{"ha":704,"x_min":3,"x_max":701,"o":"m 301 0 l 301 374 l 3 903 l 121 903 l 369 458 l 617 903 l 701 903 l 407 381 l 407 0 l 301 0 m 458 1035 q 405 1044 431 1035 q 347 1068 379 1053 q 291 1091 314 1083 q 244 1099 268 1099 q 202 1087 221 1099 q 174 1062 183 1075 q 161 1044 164 1049 l 129 1079 q 146 1105 129 1082 q 192 1147 163 1128 q 263 1167 222 1167 q 318 1158 293 1167 q 379 1132 343 1150 q 431 1110 410 1117 q 474 1103 451 1103 q 512 1111 496 1103 q 535 1128 528 1119 q 544 1140 543 1138 l 576 1106 q 563 1085 576 1103 q 523 1051 549 1067 q 458 1035 497 1035 z "},"Z":{"ha":732,"x_min":56,"x_max":674,"o":"m 56 0 l 56 56 l 544 836 l 68 836 l 68 903 l 674 903 l 674 846 l 183 67 l 674 67 l 674 0 l 56 0 z "},"Ź":{"ha":732,"x_min":56,"x_max":674,"o":"m 392 981 l 339 988 l 446 1189 l 533 1168 l 392 981 m 56 0 l 56 56 l 544 836 l 68 836 l 68 903 l 674 903 l 674 846 l 183 67 l 674 67 l 674 0 l 56 0 z "},"Ž":{"ha":732,"x_min":56,"x_max":674,"o":"m 350 983 l 185 1154 l 225 1188 l 376 1047 l 531 1188 l 569 1151 l 404 983 l 350 983 m 56 0 l 56 56 l 544 836 l 68 836 l 68 903 l 674 903 l 674 846 l 183 67 l 674 67 l 674 0 l 56 0 z "},"Ż":{"ha":732,"x_min":56,"x_max":674,"o":"m 375 1022 q 335 1038 350 1022 q 317 1082 317 1056 q 335 1126 317 1108 q 375 1142 350 1142 q 417 1128 401 1142 q 433 1082 433 1110 q 417 1038 433 1057 q 375 1022 397 1022 m 56 0 l 56 56 l 544 836 l 68 836 l 68 903 l 674 903 l 674 846 l 183 67 l 674 67 l 674 0 l 56 0 z "},"a":{"ha":663,"x_min":44,"x_max":633,"o":"m 247 -14 q 100 31 156 -14 q 44 157 44 76 q 438 403 44 361 l 438 476 q 406 611 438 575 q 293 647 374 647 q 219 634 257 647 q 156 606 182 621 q 124 588 131 592 l 113 644 q 148 665 119 650 q 220 694 176 681 q 308 708 264 708 q 483 658 428 708 q 539 482 539 608 l 539 142 q 549 67 539 86 q 575 47 560 47 q 606 52 588 47 q 629 60 624 57 l 633 13 q 586 -3 622 8 q 525 -14 550 -14 q 469 9 489 -14 q 446 90 450 32 l 444 90 q 422 58 444 85 q 356 9 400 32 q 247 -14 313 -14 m 278 47 q 364 69 328 47 q 419 118 400 92 q 438 149 438 144 l 438 351 q 230 297 311 338 q 149 169 149 257 q 183 78 149 110 q 278 47 218 47 z "},"á":{"ha":663,"x_min":44,"x_max":633,"o":"m 331 793 l 278 800 l 385 1001 l 472 981 l 331 793 m 247 -14 q 100 31 156 -14 q 44 157 44 76 q 438 403 44 361 l 438 476 q 406 611 438 575 q 293 647 374 647 q 219 634 257 647 q 156 606 182 621 q 124 588 131 592 l 113 644 q 148 665 119 650 q 220 694 176 681 q 308 708 264 708 q 483 658 428 708 q 539 482 539 608 l 539 142 q 549 67 539 86 q 575 47 560 47 q 606 52 588 47 q 629 60 624 57 l 633 13 q 586 -3 622 8 q 525 -14 550 -14 q 469 9 489 -14 q 446 90 450 32 l 444 90 q 422 58 444 85 q 356 9 400 32 q 247 -14 313 -14 m 278 47 q 364 69 328 47 q 419 118 400 92 q 438 149 438 144 l 438 351 q 230 297 311 338 q 149 169 149 257 q 183 78 149 110 q 278 47 218 47 z "},"ă":{"ha":663,"x_min":44,"x_max":633,"o":"m 324 800 q 203 831 246 800 q 147 894 161 861 q 133 938 133 926 l 196 946 l 196 943 q 207 917 196 938 q 246 879 218 897 q 324 861 274 861 q 403 879 374 861 q 443 917 432 897 q 454 943 454 938 l 454 946 l 517 938 q 502 894 517 926 q 444 831 488 861 q 324 800 401 800 m 247 -14 q 100 31 156 -14 q 44 157 44 76 q 438 403 44 361 l 438 476 q 406 611 438 575 q 293 647 374 647 q 219 634 257 647 q 156 606 182 621 q 124 588 131 592 l 113 644 q 148 665 119 650 q 220 694 176 681 q 308 708 264 708 q 483 658 428 708 q 539 482 539 608 l 539 142 q 549 67 539 86 q 575 47 560 47 q 606 52 588 47 q 629 60 624 57 l 633 13 q 586 -3 622 8 q 525 -14 550 -14 q 469 9 489 -14 q 446 90 450 32 l 444 90 q 422 58 444 85 q 356 9 400 32 q 247 -14 313 -14 m 278 47 q 364 69 328 47 q 419 118 400 92 q 438 149 438 144 l 438 351 q 230 297 311 338 q 149 169 149 257 q 183 78 149 110 q 278 47 218 47 z "},"ắ":{"ha":663,"x_min":44,"x_max":633,"o":"m 247 -14 q 100 31 156 -14 q 44 157 44 76 q 438 403 44 361 l 438 476 q 406 611 438 575 q 293 647 374 647 q 219 634 257 647 q 156 606 182 621 q 124 588 131 592 l 113 644 q 148 665 119 650 q 220 694 176 681 q 308 708 264 708 q 483 658 428 708 q 539 482 539 608 l 539 142 q 549 67 539 86 q 575 47 560 47 q 606 52 588 47 q 629 60 624 57 l 633 13 q 586 -3 622 8 q 525 -14 550 -14 q 469 9 489 -14 q 446 90 450 32 l 444 90 q 422 58 444 85 q 356 9 400 32 q 247 -14 313 -14 m 278 47 q 364 69 328 47 q 419 118 400 92 q 438 149 438 144 l 438 351 q 230 297 311 338 q 149 169 149 257 q 183 78 149 110 q 278 47 218 47 m 331 800 q 210 831 253 800 q 154 894 168 861 q 140 938 140 926 l 203 946 l 203 943 q 214 917 203 938 q 253 879 225 897 q 331 861 281 861 q 410 879 381 861 q 450 917 439 897 q 461 943 461 938 l 461 946 l 524 938 q 509 894 524 926 q 451 831 494 861 q 331 800 408 800 m 346 974 l 293 981 l 400 1182 l 488 1161 l 346 974 z "},"ặ":{"ha":663,"x_min":44,"x_max":633,"o":"m 247 -14 q 100 31 156 -14 q 44 157 44 76 q 438 403 44 361 l 438 476 q 406 611 438 575 q 293 647 374 647 q 219 634 257 647 q 156 606 182 621 q 124 588 131 592 l 113 644 q 148 665 119 650 q 220 694 176 681 q 308 708 264 708 q 483 658 428 708 q 539 482 539 608 l 539 142 q 549 67 539 86 q 575 47 560 47 q 606 52 588 47 q 629 60 624 57 l 633 13 q 586 -3 622 8 q 525 -14 550 -14 q 469 9 489 -14 q 446 90 450 32 l 444 90 q 422 58 444 85 q 356 9 400 32 q 247 -14 313 -14 m 278 47 q 364 69 328 47 q 419 118 400 92 q 438 149 438 144 l 438 351 q 230 297 311 338 q 149 169 149 257 q 183 78 149 110 q 278 47 218 47 m 332 -224 q 289 -207 307 -224 q 269 -160 269 -189 q 289 -112 269 -131 q 332 -96 307 -96 q 376 -112 357 -96 q 394 -160 394 -131 q 376 -207 394 -189 q 332 -224 357 -224 m 331 800 q 210 831 253 800 q 154 894 168 861 q 140 938 140 926 l 203 946 l 203 943 q 214 917 203 938 q 253 879 225 897 q 331 861 281 861 q 410 879 381 861 q 450 917 439 897 q 461 943 461 938 l 461 946 l 524 938 q 509 894 524 926 q 451 831 494 861 q 331 800 408 800 z "},"ằ":{"ha":663,"x_min":44,"x_max":633,"o":"m 247 -14 q 100 31 156 -14 q 44 157 44 76 q 438 403 44 361 l 438 476 q 406 611 438 575 q 293 647 374 647 q 219 634 257 647 q 156 606 182 621 q 124 588 131 592 l 113 644 q 148 665 119 650 q 220 694 176 681 q 308 708 264 708 q 483 658 428 708 q 539 482 539 608 l 539 142 q 549 67 539 86 q 575 47 560 47 q 606 52 588 47 q 629 60 624 57 l 633 13 q 586 -3 622 8 q 525 -14 550 -14 q 469 9 489 -14 q 446 90 450 32 l 444 90 q 422 58 444 85 q 356 9 400 32 q 247 -14 313 -14 m 278 47 q 364 69 328 47 q 419 118 400 92 q 438 149 438 144 l 438 351 q 230 297 311 338 q 149 169 149 257 q 183 78 149 110 q 278 47 218 47 m 331 800 q 210 831 253 800 q 154 894 168 861 q 140 938 140 926 l 203 946 l 203 943 q 214 917 203 938 q 253 879 225 897 q 331 861 281 861 q 410 879 381 861 q 450 917 439 897 q 461 943 461 938 l 461 946 l 524 938 q 509 894 524 926 q 451 831 494 861 q 331 800 408 800 m 313 960 l 167 1147 l 253 1169 l 368 971 l 313 960 z "},"ẳ":{"ha":663,"x_min":44,"x_max":633,"o":"m 247 -14 q 100 31 156 -14 q 44 157 44 76 q 438 403 44 361 l 438 476 q 406 611 438 575 q 293 647 374 647 q 219 634 257 647 q 156 606 182 621 q 124 588 131 592 l 113 644 q 148 665 119 650 q 220 694 176 681 q 308 708 264 708 q 483 658 428 708 q 539 482 539 608 l 539 142 q 549 67 539 86 q 575 47 560 47 q 606 52 588 47 q 629 60 624 57 l 633 13 q 586 -3 622 8 q 525 -14 550 -14 q 469 9 489 -14 q 446 90 450 32 l 444 90 q 422 58 444 85 q 356 9 400 32 q 247 -14 313 -14 m 278 47 q 364 69 328 47 q 419 118 400 92 q 438 149 438 144 l 438 351 q 230 297 311 338 q 149 169 149 257 q 183 78 149 110 q 278 47 218 47 m 331 800 q 210 831 253 800 q 154 894 168 861 q 140 938 140 926 l 203 946 l 203 943 q 214 917 203 938 q 253 879 225 897 q 331 861 281 861 q 410 879 381 861 q 450 917 439 897 q 461 943 461 938 l 461 946 l 524 938 q 509 894 524 926 q 451 831 494 861 q 331 800 408 800 m 303 967 q 301 996 301 976 q 322 1022 301 1004 q 350 1049 340 1038 q 360 1078 360 1061 q 306 1133 360 1133 q 275 1128 289 1133 q 253 1117 261 1122 q 244 1110 246 1111 l 214 1169 q 233 1178 218 1172 q 269 1191 247 1185 q 311 1197 290 1197 q 395 1169 361 1197 q 429 1083 429 1142 q 417 1042 429 1057 q 383 1011 406 1028 q 363 995 369 1001 q 357 979 357 989 l 357 968 l 303 967 z "},"ẵ":{"ha":663,"x_min":44,"x_max":633,"o":"m 247 -14 q 100 31 156 -14 q 44 157 44 76 q 438 403 44 361 l 438 476 q 406 611 438 575 q 293 647 374 647 q 219 634 257 647 q 156 606 182 621 q 124 588 131 592 l 113 644 q 148 665 119 650 q 220 694 176 681 q 308 708 264 708 q 483 658 428 708 q 539 482 539 608 l 539 142 q 549 67 539 86 q 575 47 560 47 q 606 52 588 47 q 629 60 624 57 l 633 13 q 586 -3 622 8 q 525 -14 550 -14 q 469 9 489 -14 q 446 90 450 32 l 444 90 q 422 58 444 85 q 356 9 400 32 q 247 -14 313 -14 m 278 47 q 364 69 328 47 q 419 118 400 92 q 438 149 438 144 l 438 351 q 230 297 311 338 q 149 169 149 257 q 183 78 149 110 q 278 47 218 47 m 331 800 q 210 831 253 800 q 154 894 168 861 q 140 938 140 926 l 203 946 l 203 943 q 214 917 203 938 q 253 879 225 897 q 331 861 281 861 q 410 879 381 861 q 450 917 439 897 q 461 943 461 938 l 461 946 l 524 938 q 509 894 524 926 q 451 831 494 861 q 331 800 408 800 m 438 986 q 384 995 410 986 q 326 1019 358 1004 q 270 1042 293 1035 q 224 1050 247 1050 q 181 1038 200 1050 q 153 1013 163 1026 q 140 996 143 1000 l 108 1031 q 125 1056 108 1033 q 172 1099 142 1079 q 242 1118 201 1118 q 297 1110 272 1118 q 358 1083 322 1101 q 410 1061 389 1068 q 453 1054 431 1054 q 491 1063 475 1054 q 515 1080 507 1071 q 524 1092 522 1089 l 556 1057 q 542 1036 556 1054 q 502 1002 528 1018 q 438 986 476 986 z "},"â":{"ha":663,"x_min":44,"x_max":633,"o":"m 171 829 l 144 874 l 297 1032 l 351 1032 l 501 874 l 476 829 l 324 964 l 171 829 m 247 -14 q 100 31 156 -14 q 44 157 44 76 q 438 403 44 361 l 438 476 q 406 611 438 575 q 293 647 374 647 q 219 634 257 647 q 156 606 182 621 q 124 588 131 592 l 113 644 q 148 665 119 650 q 220 694 176 681 q 308 708 264 708 q 483 658 428 708 q 539 482 539 608 l 539 142 q 549 67 539 86 q 575 47 560 47 q 606 52 588 47 q 629 60 624 57 l 633 13 q 586 -3 622 8 q 525 -14 550 -14 q 469 9 489 -14 q 446 90 450 32 l 444 90 q 422 58 444 85 q 356 9 400 32 q 247 -14 313 -14 m 278 47 q 364 69 328 47 q 419 118 400 92 q 438 149 438 144 l 438 351 q 230 297 311 338 q 149 169 149 257 q 183 78 149 110 q 278 47 218 47 z "},"ấ":{"ha":663,"x_min":44,"x_max":679,"o":"m 247 -14 q 100 31 156 -14 q 44 157 44 76 q 438 403 44 361 l 438 476 q 406 611 438 575 q 293 647 374 647 q 219 634 257 647 q 156 606 182 621 q 124 588 131 592 l 113 644 q 148 665 119 650 q 220 694 176 681 q 308 708 264 708 q 483 658 428 708 q 539 482 539 608 l 539 142 q 549 67 539 86 q 575 47 560 47 q 606 52 588 47 q 629 60 624 57 l 633 13 q 586 -3 622 8 q 525 -14 550 -14 q 469 9 489 -14 q 446 90 450 32 l 444 90 q 422 58 444 85 q 356 9 400 32 q 247 -14 313 -14 m 278 47 q 364 69 328 47 q 419 118 400 92 q 438 149 438 144 l 438 351 q 230 297 311 338 q 149 169 149 257 q 183 78 149 110 q 278 47 218 47 m 179 782 l 153 826 l 306 985 l 360 985 l 510 826 l 485 782 l 332 917 l 179 782 m 538 899 l 485 906 l 592 1107 l 679 1086 l 538 899 z "},"ậ":{"ha":663,"x_min":44,"x_max":633,"o":"m 247 -14 q 100 31 156 -14 q 44 157 44 76 q 438 403 44 361 l 438 476 q 406 611 438 575 q 293 647 374 647 q 219 634 257 647 q 156 606 182 621 q 124 588 131 592 l 113 644 q 148 665 119 650 q 220 694 176 681 q 308 708 264 708 q 483 658 428 708 q 539 482 539 608 l 539 142 q 549 67 539 86 q 575 47 560 47 q 606 52 588 47 q 629 60 624 57 l 633 13 q 586 -3 622 8 q 525 -14 550 -14 q 469 9 489 -14 q 446 90 450 32 l 444 90 q 422 58 444 85 q 356 9 400 32 q 247 -14 313 -14 m 278 47 q 364 69 328 47 q 419 118 400 92 q 438 149 438 144 l 438 351 q 230 297 311 338 q 149 169 149 257 q 183 78 149 110 q 278 47 218 47 m 332 -224 q 289 -207 307 -224 q 269 -160 269 -189 q 289 -112 269 -131 q 332 -96 307 -96 q 376 -112 357 -96 q 394 -160 394 -131 q 376 -207 394 -189 q 332 -224 357 -224 m 179 782 l 153 826 l 306 985 l 360 985 l 510 826 l 485 782 l 332 917 l 179 782 z "},"ầ":{"ha":663,"x_min":44,"x_max":633,"o":"m 247 -14 q 100 31 156 -14 q 44 157 44 76 q 438 403 44 361 l 438 476 q 406 611 438 575 q 293 647 374 647 q 219 634 257 647 q 156 606 182 621 q 124 588 131 592 l 113 644 q 148 665 119 650 q 220 694 176 681 q 308 708 264 708 q 483 658 428 708 q 539 482 539 608 l 539 142 q 549 67 539 86 q 575 47 560 47 q 606 52 588 47 q 629 60 624 57 l 633 13 q 586 -3 622 8 q 525 -14 550 -14 q 469 9 489 -14 q 446 90 450 32 l 444 90 q 422 58 444 85 q 356 9 400 32 q 247 -14 313 -14 m 278 47 q 364 69 328 47 q 419 118 400 92 q 438 149 438 144 l 438 351 q 230 297 311 338 q 149 169 149 257 q 183 78 149 110 q 278 47 218 47 m 179 782 l 153 826 l 306 985 l 360 985 l 510 826 l 485 782 l 332 917 l 179 782 m 481 963 l 335 1150 l 421 1172 l 536 974 l 481 963 z "},"ẩ":{"ha":663,"x_min":44,"x_max":633,"o":"m 247 -14 q 100 31 156 -14 q 44 157 44 76 q 438 403 44 361 l 438 476 q 406 611 438 575 q 293 647 374 647 q 219 634 257 647 q 156 606 182 621 q 124 588 131 592 l 113 644 q 148 665 119 650 q 220 694 176 681 q 308 708 264 708 q 483 658 428 708 q 539 482 539 608 l 539 142 q 549 67 539 86 q 575 47 560 47 q 606 52 588 47 q 629 60 624 57 l 633 13 q 586 -3 622 8 q 525 -14 550 -14 q 469 9 489 -14 q 446 90 450 32 l 444 90 q 422 58 444 85 q 356 9 400 32 q 247 -14 313 -14 m 278 47 q 364 69 328 47 q 419 118 400 92 q 438 149 438 144 l 438 351 q 230 297 311 338 q 149 169 149 257 q 183 78 149 110 q 278 47 218 47 m 179 782 l 153 826 l 306 985 l 360 985 l 510 826 l 485 782 l 332 917 l 179 782 m 492 961 q 490 990 490 971 q 511 1017 490 999 q 539 1044 529 1032 q 549 1072 549 1056 q 494 1128 549 1128 q 464 1122 478 1128 q 442 1111 450 1117 q 433 1104 435 1106 l 403 1164 q 422 1173 407 1167 q 458 1185 436 1179 q 500 1192 479 1192 q 584 1164 550 1192 q 618 1078 618 1136 q 606 1037 618 1051 q 572 1006 594 1022 q 552 990 558 996 q 546 974 546 983 l 546 963 l 492 961 z "},"ẫ":{"ha":663,"x_min":44,"x_max":633,"o":"m 247 -14 q 100 31 156 -14 q 44 157 44 76 q 438 403 44 361 l 438 476 q 406 611 438 575 q 293 647 374 647 q 219 634 257 647 q 156 606 182 621 q 124 588 131 592 l 113 644 q 148 665 119 650 q 220 694 176 681 q 308 708 264 708 q 483 658 428 708 q 539 482 539 608 l 539 142 q 549 67 539 86 q 575 47 560 47 q 606 52 588 47 q 629 60 624 57 l 633 13 q 586 -3 622 8 q 525 -14 550 -14 q 469 9 489 -14 q 446 90 450 32 l 444 90 q 422 58 444 85 q 356 9 400 32 q 247 -14 313 -14 m 278 47 q 364 69 328 47 q 419 118 400 92 q 438 149 438 144 l 438 351 q 230 297 311 338 q 149 169 149 257 q 183 78 149 110 q 278 47 218 47 m 179 782 l 153 826 l 306 985 l 360 985 l 510 826 l 485 782 l 332 917 l 179 782 m 450 1006 q 397 1015 422 1006 q 339 1039 371 1024 q 283 1062 306 1054 q 236 1069 260 1069 q 194 1058 213 1069 q 165 1033 175 1046 q 153 1015 156 1019 l 121 1050 q 138 1076 121 1053 q 184 1118 154 1099 q 254 1138 214 1138 q 310 1129 285 1138 q 371 1103 335 1121 q 422 1081 401 1088 q 465 1074 443 1074 q 503 1082 488 1074 q 527 1099 519 1090 q 536 1111 535 1108 l 568 1076 q 554 1056 568 1074 q 515 1022 540 1038 q 450 1006 489 1006 z "},"ä":{"ha":663,"x_min":44,"x_max":633,"o":"m 214 840 q 178 854 196 840 q 163 894 163 869 q 178 936 163 921 q 214 950 196 950 q 251 936 233 950 q 267 894 267 918 q 251 854 267 872 q 214 840 233 840 m 428 840 q 392 854 410 840 q 376 894 376 869 q 392 936 376 921 q 428 950 410 950 q 464 936 446 950 q 481 894 481 919 q 464 854 481 871 q 428 840 446 840 m 247 -14 q 100 31 156 -14 q 44 157 44 76 q 438 403 44 361 l 438 476 q 406 611 438 575 q 293 647 374 647 q 219 634 257 647 q 156 606 182 621 q 124 588 131 592 l 113 644 q 148 665 119 650 q 220 694 176 681 q 308 708 264 708 q 483 658 428 708 q 539 482 539 608 l 539 142 q 549 67 539 86 q 575 47 560 47 q 606 52 588 47 q 629 60 624 57 l 633 13 q 586 -3 622 8 q 525 -14 550 -14 q 469 9 489 -14 q 446 90 450 32 l 444 90 q 422 58 444 85 q 356 9 400 32 q 247 -14 313 -14 m 278 47 q 364 69 328 47 q 419 118 400 92 q 438 149 438 144 l 438 351 q 230 297 311 338 q 149 169 149 257 q 183 78 149 110 q 278 47 218 47 z "},"ạ":{"ha":663,"x_min":44,"x_max":633,"o":"m 247 -14 q 100 31 156 -14 q 44 157 44 76 q 438 403 44 361 l 438 476 q 406 611 438 575 q 293 647 374 647 q 219 634 257 647 q 156 606 182 621 q 124 588 131 592 l 113 644 q 148 665 119 650 q 220 694 176 681 q 308 708 264 708 q 483 658 428 708 q 539 482 539 608 l 539 142 q 549 67 539 86 q 575 47 560 47 q 606 52 588 47 q 629 60 624 57 l 633 13 q 586 -3 622 8 q 525 -14 550 -14 q 469 9 489 -14 q 446 90 450 32 l 444 90 q 422 58 444 85 q 356 9 400 32 q 247 -14 313 -14 m 278 47 q 364 69 328 47 q 419 118 400 92 q 438 149 438 144 l 438 351 q 230 297 311 338 q 149 169 149 257 q 183 78 149 110 q 278 47 218 47 m 332 -224 q 289 -207 307 -224 q 269 -160 269 -189 q 289 -112 269 -131 q 332 -96 307 -96 q 376 -112 357 -96 q 394 -160 394 -131 q 376 -207 394 -189 q 332 -224 357 -224 z "},"à":{"ha":663,"x_min":44,"x_max":633,"o":"m 314 796 l 168 983 l 254 1006 l 369 807 l 314 796 m 247 -14 q 100 31 156 -14 q 44 157 44 76 q 438 403 44 361 l 438 476 q 406 611 438 575 q 293 647 374 647 q 219 634 257 647 q 156 606 182 621 q 124 588 131 592 l 113 644 q 148 665 119 650 q 220 694 176 681 q 308 708 264 708 q 483 658 428 708 q 539 482 539 608 l 539 142 q 549 67 539 86 q 575 47 560 47 q 606 52 588 47 q 629 60 624 57 l 633 13 q 586 -3 622 8 q 525 -14 550 -14 q 469 9 489 -14 q 446 90 450 32 l 444 90 q 422 58 444 85 q 356 9 400 32 q 247 -14 313 -14 m 278 47 q 364 69 328 47 q 419 118 400 92 q 438 149 438 144 l 438 351 q 230 297 311 338 q 149 169 149 257 q 183 78 149 110 q 278 47 218 47 z "},"ả":{"ha":663,"x_min":44,"x_max":633,"o":"m 247 -14 q 100 31 156 -14 q 44 157 44 76 q 438 403 44 361 l 438 476 q 406 611 438 575 q 293 647 374 647 q 219 634 257 647 q 156 606 182 621 q 124 588 131 592 l 113 644 q 148 665 119 650 q 220 694 176 681 q 308 708 264 708 q 483 658 428 708 q 539 482 539 608 l 539 142 q 549 67 539 86 q 575 47 560 47 q 606 52 588 47 q 629 60 624 57 l 633 13 q 586 -3 622 8 q 525 -14 550 -14 q 469 9 489 -14 q 446 90 450 32 l 444 90 q 422 58 444 85 q 356 9 400 32 q 247 -14 313 -14 m 278 47 q 364 69 328 47 q 419 118 400 92 q 438 149 438 144 l 438 351 q 230 297 311 338 q 149 169 149 257 q 183 78 149 110 q 278 47 218 47 m 304 758 q 303 788 303 768 q 324 814 303 796 q 351 841 342 829 q 361 869 361 853 q 307 925 361 925 q 276 919 290 925 q 255 908 263 914 q 246 901 247 903 l 215 961 q 234 970 219 964 q 270 983 249 976 q 313 989 292 989 q 397 961 363 989 q 431 875 431 933 q 419 834 431 849 q 385 803 407 819 q 365 787 371 793 q 358 771 358 781 l 358 760 l 304 758 z "},"ā":{"ha":663,"x_min":44,"x_max":633,"o":"m 200 883 l 200 933 l 458 933 l 458 883 l 200 883 m 247 -14 q 100 31 156 -14 q 44 157 44 76 q 438 403 44 361 l 438 476 q 406 611 438 575 q 293 647 374 647 q 219 634 257 647 q 156 606 182 621 q 124 588 131 592 l 113 644 q 148 665 119 650 q 220 694 176 681 q 308 708 264 708 q 483 658 428 708 q 539 482 539 608 l 539 142 q 549 67 539 86 q 575 47 560 47 q 606 52 588 47 q 629 60 624 57 l 633 13 q 586 -3 622 8 q 525 -14 550 -14 q 469 9 489 -14 q 446 90 450 32 l 444 90 q 422 58 444 85 q 356 9 400 32 q 247 -14 313 -14 m 278 47 q 364 69 328 47 q 419 118 400 92 q 438 149 438 144 l 438 351 q 230 297 311 338 q 149 169 149 257 q 183 78 149 110 q 278 47 218 47 z "},"ą":{"ha":663,"x_min":44,"x_max":633,"o":"m 631 -347 q 476 -315 536 -347 q 415 -193 415 -282 q 445 -94 415 -139 q 519 -14 475 -49 q 467 11 485 -11 q 446 90 450 33 l 444 90 q 422 58 444 85 q 356 9 400 32 q 247 -14 313 -14 q 100 31 156 -14 q 44 157 44 76 q 438 403 44 361 l 438 476 q 406 611 438 575 q 293 647 374 647 q 219 634 257 647 q 156 606 182 621 q 124 588 131 592 l 113 644 q 148 665 119 650 q 220 694 176 681 q 308 708 264 708 q 483 658 428 708 q 539 482 539 608 l 539 142 q 549 67 539 86 q 575 47 560 47 q 606 52 588 47 q 629 60 624 57 l 633 13 q 621 8 631 11 q 597 0 611 4 q 522 -71 560 -24 q 485 -187 485 -118 q 524 -278 485 -253 q 631 -303 564 -303 l 631 -347 m 278 47 q 364 69 328 47 q 419 118 400 92 q 438 149 438 144 l 438 351 q 230 297 311 338 q 149 169 149 257 q 183 78 149 110 q 278 47 218 47 z "},"å":{"ha":663,"x_min":44,"x_max":633,"o":"m 324 765 q 234 799 268 765 q 200 894 200 832 q 235 990 200 956 q 324 1025 269 1025 q 412 990 376 1025 q 447 894 447 956 q 413 799 447 832 q 324 765 379 765 m 324 801 q 384 824 361 801 q 407 894 407 847 q 384 965 407 942 q 324 988 361 988 q 263 964 286 988 q 239 894 239 940 q 263 824 239 847 q 324 801 286 801 m 247 -14 q 100 31 156 -14 q 44 157 44 76 q 438 403 44 361 l 438 476 q 406 611 438 575 q 293 647 374 647 q 219 634 257 647 q 156 606 182 621 q 124 588 131 592 l 113 644 q 148 665 119 650 q 220 694 176 681 q 308 708 264 708 q 483 658 428 708 q 539 482 539 608 l 539 142 q 549 67 539 86 q 575 47 560 47 q 606 52 588 47 q 629 60 624 57 l 633 13 q 586 -3 622 8 q 525 -14 550 -14 q 469 9 489 -14 q 446 90 450 32 l 444 90 q 422 58 444 85 q 356 9 400 32 q 247 -14 313 -14 m 278 47 q 364 69 328 47 q 419 118 400 92 q 438 149 438 144 l 438 351 q 230 297 311 338 q 149 169 149 257 q 183 78 149 110 q 278 47 218 47 z "},"ã":{"ha":663,"x_min":44,"x_max":633,"o":"m 435 826 q 381 835 407 826 q 324 860 356 844 q 267 883 290 875 q 221 890 244 890 q 178 878 197 890 q 150 853 160 867 q 138 836 140 840 l 106 871 q 122 897 106 874 q 169 939 139 919 q 239 958 199 958 q 294 950 269 958 q 356 924 319 942 q 407 901 386 908 q 450 894 428 894 q 488 903 472 894 q 512 920 504 911 q 521 932 519 929 l 553 897 q 539 876 553 894 q 499 842 525 858 q 435 826 474 826 m 247 -14 q 100 31 156 -14 q 44 157 44 76 q 438 403 44 361 l 438 476 q 406 611 438 575 q 293 647 374 647 q 219 634 257 647 q 156 606 182 621 q 124 588 131 592 l 113 644 q 148 665 119 650 q 220 694 176 681 q 308 708 264 708 q 483 658 428 708 q 539 482 539 608 l 539 142 q 549 67 539 86 q 575 47 560 47 q 606 52 588 47 q 629 60 624 57 l 633 13 q 586 -3 622 8 q 525 -14 550 -14 q 469 9 489 -14 q 446 90 450 32 l 444 90 q 422 58 444 85 q 356 9 400 32 q 247 -14 313 -14 m 278 47 q 364 69 328 47 q 419 118 400 92 q 438 149 438 144 l 438 351 q 230 297 311 338 q 149 169 149 257 q 183 78 149 110 q 278 47 218 47 z "},"æ":{"ha":1010,"x_min":44,"x_max":965,"o":"m 247 -14 q 101 32 157 -14 q 44 158 44 78 q 432 404 44 367 l 432 460 q 421 571 432 531 q 382 629 410 611 q 303 647 354 647 q 229 634 267 647 q 167 606 192 621 q 135 588 142 592 l 122 644 q 158 665 129 650 q 230 694 186 681 q 319 708 274 708 q 438 681 396 708 q 497 594 481 654 q 590 679 533 650 q 717 708 646 708 q 901 626 836 708 q 965 392 965 543 q 963 349 965 365 q 958 328 960 332 l 538 328 q 740 47 538 47 q 835 67 796 47 q 897 110 875 88 q 919 138 919 133 l 960 104 q 933 69 960 99 q 856 13 907 39 q 729 -14 804 -14 q 561 29 631 -14 q 460 160 492 72 q 388 36 438 86 q 247 -14 338 -14 m 871 386 l 872 413 q 717 649 872 649 q 590 584 635 649 q 539 386 546 519 l 871 386 m 278 47 q 394 119 360 47 q 435 276 428 190 q 432 333 432 313 l 432 354 q 228 299 307 340 q 149 171 149 258 q 184 79 149 111 q 278 47 219 47 z "},"b":{"ha":717,"x_min":104,"x_max":665,"o":"m 379 -15 q 263 8 307 -15 q 196 54 218 31 l 176 0 l 104 0 l 104 1039 l 206 1044 l 206 615 l 207 615 q 227 644 207 619 q 288 689 247 668 q 392 710 329 710 q 590 619 515 710 q 665 367 665 528 q 592 88 665 192 q 379 -15 518 -15 m 353 51 q 509 130 460 51 q 558 364 558 208 q 508 576 558 508 q 363 643 458 643 q 256 607 293 643 q 206 543 218 571 l 206 114 q 253 74 215 96 q 353 51 290 51 z "},"c":{"ha":588,"x_min":51,"x_max":576,"o":"m 351 -14 q 129 75 207 -14 q 51 340 51 164 q 128 613 51 518 q 354 708 206 708 q 446 695 403 708 q 519 666 489 682 q 549 649 549 650 l 536 592 q 506 609 531 596 q 444 635 482 622 q 365 647 406 647 q 208 576 258 647 q 158 342 158 506 q 211 115 158 183 q 360 47 264 47 q 452 67 414 47 q 511 108 490 86 q 532 133 532 129 l 576 104 q 551 69 576 99 q 476 13 526 39 q 351 -14 426 -14 z "},"ć":{"ha":588,"x_min":51,"x_max":576,"o":"m 340 793 l 288 800 l 394 1001 l 482 981 l 340 793 m 351 -14 q 129 75 207 -14 q 51 340 51 164 q 128 613 51 518 q 354 708 206 708 q 446 695 403 708 q 519 666 489 682 q 549 649 549 650 l 536 592 q 506 609 531 596 q 444 635 482 622 q 365 647 406 647 q 208 576 258 647 q 158 342 158 506 q 211 115 158 183 q 360 47 264 47 q 452 67 414 47 q 511 108 490 86 q 532 133 532 129 l 576 104 q 551 69 576 99 q 476 13 526 39 q 351 -14 426 -14 z "},"č":{"ha":588,"x_min":51,"x_max":576,"o":"m 324 796 l 158 967 l 199 1000 l 350 860 l 504 1000 l 543 964 l 378 796 l 324 796 m 351 -14 q 129 75 207 -14 q 51 340 51 164 q 128 613 51 518 q 354 708 206 708 q 446 695 403 708 q 519 666 489 682 q 549 649 549 650 l 536 592 q 506 609 531 596 q 444 635 482 622 q 365 647 406 647 q 208 576 258 647 q 158 342 158 506 q 211 115 158 183 q 360 47 264 47 q 452 67 414 47 q 511 108 490 86 q 532 133 532 129 l 576 104 q 551 69 576 99 q 476 13 526 39 q 351 -14 426 -14 z "},"ç":{"ha":588,"x_min":51,"x_max":576,"o":"m 342 -349 q 272 -335 300 -349 q 228 -308 243 -322 q 214 -290 214 -293 l 239 -262 q 252 -277 242 -267 q 283 -297 263 -287 q 332 -307 304 -307 q 424 -212 424 -307 q 394 -155 424 -171 q 335 -134 364 -139 q 307 -128 307 -129 l 322 -12 q 122 84 192 -4 q 51 340 51 172 q 128 613 51 518 q 354 708 206 708 q 446 695 403 708 q 519 666 489 682 q 549 649 549 650 l 536 592 q 506 609 531 596 q 444 635 482 622 q 365 647 406 647 q 208 576 258 647 q 158 342 158 506 q 211 115 158 183 q 360 47 264 47 q 452 67 414 47 q 511 108 490 86 q 532 133 532 129 l 576 104 q 552 70 576 99 q 481 15 528 42 q 361 -14 433 -11 l 353 -96 q 388 -106 353 -97 q 455 -142 424 -115 q 486 -215 486 -168 q 449 -313 486 -278 q 342 -349 413 -349 z "},"d":{"ha":717,"x_min":51,"x_max":613,"o":"m 331 -14 q 128 76 204 -14 q 51 328 51 167 q 126 605 51 501 q 335 708 200 708 q 431 694 392 708 q 490 662 469 679 q 511 642 511 644 l 513 642 l 513 1039 l 613 1044 l 613 0 l 526 0 l 515 82 q 456 19 500 51 q 331 -14 411 -14 m 353 54 q 439 76 403 54 q 494 122 475 97 q 513 151 513 147 l 513 578 q 494 597 513 581 q 442 628 475 614 q 365 642 410 642 q 208 563 258 642 q 158 331 158 485 q 208 119 158 185 q 353 54 257 54 z "},"ð":{"ha":706,"x_min":53,"x_max":644,"o":"m 347 -14 q 130 81 207 -14 q 53 347 53 176 q 126 613 53 518 q 338 708 200 708 q 445 685 394 708 q 535 617 496 661 q 408 903 503 793 l 258 817 l 242 853 l 381 932 q 300 997 346 967 l 353 1028 q 440 965 399 1003 l 556 1032 l 572 996 l 469 938 q 644 364 644 751 q 569 83 644 181 q 347 -14 493 -14 m 347 46 q 490 121 444 46 q 536 347 536 196 q 490 569 536 490 q 347 649 443 649 q 204 574 250 649 q 158 347 158 499 q 204 121 158 196 q 347 46 250 46 z "},"ď":{"ha":717,"x_min":51,"x_max":807,"o":"m 735 764 l 692 768 l 738 1068 l 807 1058 l 735 764 m 331 -14 q 128 76 204 -14 q 51 328 51 167 q 126 605 51 501 q 335 708 200 708 q 431 694 392 708 q 490 662 469 679 q 511 642 511 644 l 513 642 l 513 1039 l 613 1044 l 613 0 l 526 0 l 515 82 q 456 19 500 51 q 331 -14 411 -14 m 353 54 q 439 76 403 54 q 494 122 475 97 q 513 151 513 147 l 513 578 q 494 597 513 581 q 442 628 475 614 q 365 642 410 642 q 208 563 258 642 q 158 331 158 485 q 208 119 158 185 q 353 54 257 54 z "},"đ":{"ha":721,"x_min":46,"x_max":693,"o":"m 317 -19 q 119 74 193 -19 q 46 328 46 167 q 117 609 46 504 q 324 714 189 714 q 422 698 381 714 q 484 663 463 682 q 506 642 506 644 l 507 642 l 507 867 l 342 867 l 342 926 l 507 926 l 507 1042 l 607 1042 l 607 926 l 693 926 l 693 876 l 610 867 l 607 867 l 607 0 l 518 0 l 508 79 q 443 13 489 46 q 317 -19 397 -19 m 349 49 q 453 83 415 49 q 507 149 490 117 l 507 576 q 456 623 492 599 q 360 647 421 647 q 204 567 254 647 q 154 331 154 486 q 203 117 154 185 q 349 49 253 49 z "},"e":{"ha":629,"x_min":51,"x_max":585,"o":"m 349 -14 q 131 73 210 -14 q 51 333 51 160 q 128 608 51 508 q 336 708 204 708 q 520 626 456 708 q 585 392 585 543 q 582 349 585 365 q 578 328 579 332 l 157 328 q 360 47 157 47 q 455 67 415 47 q 517 110 494 88 q 539 138 539 133 l 579 104 q 553 69 579 99 q 475 13 526 39 q 349 -14 424 -14 m 490 386 l 492 413 q 336 649 492 649 q 210 584 254 649 q 158 386 165 519 l 490 386 z "},"é":{"ha":629,"x_min":51,"x_max":585,"o":"m 344 793 l 292 800 l 399 1001 l 486 981 l 344 793 m 349 -14 q 131 73 210 -14 q 51 333 51 160 q 128 608 51 508 q 336 708 204 708 q 520 626 456 708 q 585 392 585 543 q 582 349 585 365 q 578 328 579 332 l 157 328 q 360 47 157 47 q 455 67 415 47 q 517 110 494 88 q 539 138 539 133 l 579 104 q 553 69 579 99 q 475 13 526 39 q 349 -14 424 -14 m 490 386 l 492 413 q 336 649 492 649 q 210 584 254 649 q 158 386 165 519 l 490 386 z "},"ě":{"ha":629,"x_min":51,"x_max":585,"o":"m 310 796 l 144 967 l 185 1000 l 336 860 l 490 1000 l 529 964 l 364 796 l 310 796 m 349 -14 q 131 73 210 -14 q 51 333 51 160 q 128 608 51 508 q 336 708 204 708 q 520 626 456 708 q 585 392 585 543 q 582 349 585 365 q 578 328 579 332 l 157 328 q 360 47 157 47 q 455 67 415 47 q 517 110 494 88 q 539 138 539 133 l 579 104 q 553 69 579 99 q 475 13 526 39 q 349 -14 424 -14 m 490 386 l 492 413 q 336 649 492 649 q 210 584 254 649 q 158 386 165 519 l 490 386 z "},"ê":{"ha":629,"x_min":51,"x_max":585,"o":"m 183 829 l 157 874 l 310 1032 l 364 1032 l 514 874 l 489 829 l 336 964 l 183 829 m 349 -14 q 131 73 210 -14 q 51 333 51 160 q 128 608 51 508 q 336 708 204 708 q 520 626 456 708 q 585 392 585 543 q 582 349 585 365 q 578 328 579 332 l 157 328 q 360 47 157 47 q 455 67 415 47 q 517 110 494 88 q 539 138 539 133 l 579 104 q 553 69 579 99 q 475 13 526 39 q 349 -14 424 -14 m 490 386 l 492 413 q 336 649 492 649 q 210 584 254 649 q 158 386 165 519 l 490 386 z "},"ế":{"ha":629,"x_min":51,"x_max":663,"o":"m 349 -14 q 131 73 210 -14 q 51 333 51 160 q 128 608 51 508 q 336 708 204 708 q 520 626 456 708 q 585 392 585 543 q 582 349 585 365 q 578 328 579 332 l 157 328 q 360 47 157 47 q 455 67 415 47 q 517 110 494 88 q 539 138 539 133 l 579 104 q 553 69 579 99 q 475 13 526 39 q 349 -14 424 -14 m 490 386 l 492 413 q 336 649 492 649 q 210 584 254 649 q 158 386 165 519 l 490 386 m 163 782 l 136 826 l 289 985 l 343 985 l 493 826 l 468 782 l 315 917 l 163 782 m 521 899 l 468 906 l 575 1107 l 663 1086 l 521 899 z "},"ệ":{"ha":629,"x_min":51,"x_max":585,"o":"m 349 -14 q 131 73 210 -14 q 51 333 51 160 q 128 608 51 508 q 336 708 204 708 q 520 626 456 708 q 585 392 585 543 q 582 349 585 365 q 578 328 579 332 l 157 328 q 360 47 157 47 q 455 67 415 47 q 517 110 494 88 q 539 138 539 133 l 579 104 q 553 69 579 99 q 475 13 526 39 q 349 -14 424 -14 m 490 386 l 492 413 q 336 649 492 649 q 210 584 254 649 q 158 386 165 519 l 490 386 m 315 -224 q 272 -207 290 -224 q 253 -160 253 -189 q 272 -112 253 -131 q 315 -96 290 -96 q 360 -112 340 -96 q 378 -160 378 -131 q 360 -207 378 -189 q 315 -224 340 -224 m 163 782 l 136 826 l 289 985 l 343 985 l 493 826 l 468 782 l 315 917 l 163 782 z "},"ề":{"ha":629,"x_min":51,"x_max":585,"o":"m 349 -14 q 131 73 210 -14 q 51 333 51 160 q 128 608 51 508 q 336 708 204 708 q 520 626 456 708 q 585 392 585 543 q 582 349 585 365 q 578 328 579 332 l 157 328 q 360 47 157 47 q 455 67 415 47 q 517 110 494 88 q 539 138 539 133 l 579 104 q 553 69 579 99 q 475 13 526 39 q 349 -14 424 -14 m 490 386 l 492 413 q 336 649 492 649 q 210 584 254 649 q 158 386 165 519 l 490 386 m 163 782 l 136 826 l 289 985 l 343 985 l 493 826 l 468 782 l 315 917 l 163 782 m 464 963 l 318 1150 l 404 1172 l 519 974 l 464 963 z "},"ể":{"ha":629,"x_min":51,"x_max":601,"o":"m 349 -14 q 131 73 210 -14 q 51 333 51 160 q 128 608 51 508 q 336 708 204 708 q 520 626 456 708 q 585 392 585 543 q 582 349 585 365 q 578 328 579 332 l 157 328 q 360 47 157 47 q 455 67 415 47 q 517 110 494 88 q 539 138 539 133 l 579 104 q 553 69 579 99 q 475 13 526 39 q 349 -14 424 -14 m 490 386 l 492 413 q 336 649 492 649 q 210 584 254 649 q 158 386 165 519 l 490 386 m 163 782 l 136 826 l 289 985 l 343 985 l 493 826 l 468 782 l 315 917 l 163 782 m 475 961 q 474 990 474 971 q 494 1017 474 999 q 522 1044 513 1032 q 532 1072 532 1056 q 478 1128 532 1128 q 447 1122 461 1128 q 426 1111 433 1117 q 417 1104 418 1106 l 386 1164 q 405 1173 390 1167 q 441 1185 419 1179 q 483 1192 463 1192 q 567 1164 533 1192 q 601 1078 601 1136 q 590 1037 601 1051 q 556 1006 578 1022 q 535 990 542 996 q 529 974 529 983 l 529 963 l 475 961 z "},"ễ":{"ha":629,"x_min":51,"x_max":585,"o":"m 349 -14 q 131 73 210 -14 q 51 333 51 160 q 128 608 51 508 q 336 708 204 708 q 520 626 456 708 q 585 392 585 543 q 582 349 585 365 q 578 328 579 332 l 157 328 q 360 47 157 47 q 455 67 415 47 q 517 110 494 88 q 539 138 539 133 l 579 104 q 553 69 579 99 q 475 13 526 39 q 349 -14 424 -14 m 490 386 l 492 413 q 336 649 492 649 q 210 584 254 649 q 158 386 165 519 l 490 386 m 163 782 l 136 826 l 289 985 l 343 985 l 493 826 l 468 782 l 315 917 l 163 782 m 433 1006 q 380 1015 406 1006 q 322 1039 354 1024 q 266 1062 289 1054 q 219 1069 243 1069 q 177 1058 196 1069 q 149 1033 158 1046 q 136 1015 139 1019 l 104 1050 q 121 1076 104 1053 q 167 1118 138 1099 q 238 1138 197 1138 q 293 1129 268 1138 q 354 1103 318 1121 q 406 1081 385 1088 q 449 1074 426 1074 q 487 1082 471 1074 q 510 1099 503 1090 q 519 1111 518 1108 l 551 1076 q 538 1056 551 1074 q 498 1022 524 1038 q 433 1006 472 1006 z "},"ë":{"ha":629,"x_min":51,"x_max":585,"o":"m 228 840 q 192 854 210 840 q 176 894 176 869 q 192 936 176 921 q 228 950 210 950 q 265 936 247 950 q 281 894 281 918 q 265 854 281 872 q 228 840 247 840 m 442 840 q 406 854 424 840 q 390 894 390 869 q 406 936 390 921 q 442 950 424 950 q 478 936 460 950 q 494 894 494 919 q 478 854 494 871 q 442 840 460 840 m 349 -14 q 131 73 210 -14 q 51 333 51 160 q 128 608 51 508 q 336 708 204 708 q 520 626 456 708 q 585 392 585 543 q 582 349 585 365 q 578 328 579 332 l 157 328 q 360 47 157 47 q 455 67 415 47 q 517 110 494 88 q 539 138 539 133 l 579 104 q 553 69 579 99 q 475 13 526 39 q 349 -14 424 -14 m 490 386 l 492 413 q 336 649 492 649 q 210 584 254 649 q 158 386 165 519 l 490 386 z "},"ė":{"ha":629,"x_min":51,"x_max":585,"o":"m 338 835 q 297 850 313 835 q 279 894 279 868 q 297 939 279 921 q 338 954 313 954 q 379 940 364 954 q 396 894 396 922 q 379 850 396 869 q 338 835 360 835 m 349 -14 q 131 73 210 -14 q 51 333 51 160 q 128 608 51 508 q 336 708 204 708 q 520 626 456 708 q 585 392 585 543 q 582 349 585 365 q 578 328 579 332 l 157 328 q 360 47 157 47 q 455 67 415 47 q 517 110 494 88 q 539 138 539 133 l 579 104 q 553 69 579 99 q 475 13 526 39 q 349 -14 424 -14 m 490 386 l 492 413 q 336 649 492 649 q 210 584 254 649 q 158 386 165 519 l 490 386 z "},"ẹ":{"ha":629,"x_min":51,"x_max":585,"o":"m 349 -14 q 131 73 210 -14 q 51 333 51 160 q 128 608 51 508 q 336 708 204 708 q 520 626 456 708 q 585 392 585 543 q 582 349 585 365 q 578 328 579 332 l 157 328 q 360 47 157 47 q 455 67 415 47 q 517 110 494 88 q 539 138 539 133 l 579 104 q 553 69 579 99 q 475 13 526 39 q 349 -14 424 -14 m 490 386 l 492 413 q 336 649 492 649 q 210 584 254 649 q 158 386 165 519 l 490 386 m 315 -224 q 272 -207 290 -224 q 253 -160 253 -189 q 272 -112 253 -131 q 315 -96 290 -96 q 360 -112 340 -96 q 378 -160 378 -131 q 360 -207 378 -189 q 315 -224 340 -224 z "},"è":{"ha":629,"x_min":51,"x_max":585,"o":"m 326 796 l 181 983 l 267 1006 l 382 807 l 326 796 m 349 -14 q 131 73 210 -14 q 51 333 51 160 q 128 608 51 508 q 336 708 204 708 q 520 626 456 708 q 585 392 585 543 q 582 349 585 365 q 578 328 579 332 l 157 328 q 360 47 157 47 q 455 67 415 47 q 517 110 494 88 q 539 138 539 133 l 579 104 q 553 69 579 99 q 475 13 526 39 q 349 -14 424 -14 m 490 386 l 492 413 q 336 649 492 649 q 210 584 254 649 q 158 386 165 519 l 490 386 z "},"ẻ":{"ha":629,"x_min":51,"x_max":585,"o":"m 349 -14 q 131 73 210 -14 q 51 333 51 160 q 128 608 51 508 q 336 708 204 708 q 520 626 456 708 q 585 392 585 543 q 582 349 585 365 q 578 328 579 332 l 157 328 q 360 47 157 47 q 455 67 415 47 q 517 110 494 88 q 539 138 539 133 l 579 104 q 553 69 579 99 q 475 13 526 39 q 349 -14 424 -14 m 490 386 l 492 413 q 336 649 492 649 q 210 584 254 649 q 158 386 165 519 l 490 386 m 288 758 q 286 788 286 768 q 307 814 286 796 q 335 841 325 829 q 344 869 344 853 q 290 925 344 925 q 260 919 274 925 q 238 908 246 914 q 229 901 231 903 l 199 961 q 217 970 203 964 q 253 983 232 976 q 296 989 275 989 q 380 961 346 989 q 414 875 414 933 q 402 834 414 849 q 368 803 390 819 q 348 787 354 793 q 342 771 342 781 l 342 760 l 288 758 z "},"ē":{"ha":629,"x_min":51,"x_max":585,"o":"m 208 883 l 208 933 l 467 933 l 467 883 l 208 883 m 349 -14 q 131 73 210 -14 q 51 333 51 160 q 128 608 51 508 q 336 708 204 708 q 520 626 456 708 q 585 392 585 543 q 582 349 585 365 q 578 328 579 332 l 157 328 q 360 47 157 47 q 455 67 415 47 q 517 110 494 88 q 539 138 539 133 l 579 104 q 553 69 579 99 q 475 13 526 39 q 349 -14 424 -14 m 490 386 l 492 413 q 336 649 492 649 q 210 584 254 649 q 158 386 165 519 l 490 386 z "},"ę":{"ha":629,"x_min":51,"x_max":585,"o":"m 471 -347 q 316 -315 376 -347 q 256 -193 256 -282 q 285 -94 256 -139 q 360 -14 315 -49 l 349 -14 q 131 73 210 -14 q 51 333 51 160 q 128 608 51 508 q 336 708 204 708 q 520 626 456 708 q 585 392 585 543 q 582 349 585 365 q 578 328 579 332 l 157 328 q 360 47 157 47 q 455 67 415 47 q 517 110 494 88 q 539 138 539 133 l 579 104 q 562 80 579 101 q 512 35 544 58 q 435 -1 479 11 q 360 -73 396 -26 q 325 -187 325 -119 q 365 -278 325 -253 q 471 -303 404 -303 l 471 -347 m 490 386 l 492 413 q 336 649 492 649 q 210 584 254 649 q 158 386 165 519 l 490 386 z "},"ẽ":{"ha":629,"x_min":51,"x_max":585,"o":"m 349 -14 q 131 73 210 -14 q 51 333 51 160 q 128 608 51 508 q 336 708 204 708 q 520 626 456 708 q 585 392 585 543 q 582 349 585 365 q 578 328 579 332 l 157 328 q 360 47 157 47 q 455 67 415 47 q 517 110 494 88 q 539 138 539 133 l 579 104 q 553 69 579 99 q 475 13 526 39 q 349 -14 424 -14 m 490 386 l 492 413 q 336 649 492 649 q 210 584 254 649 q 158 386 165 519 l 490 386 m 421 826 q 367 835 393 826 q 310 860 342 844 q 253 883 276 875 q 207 890 231 890 q 165 878 183 890 q 136 853 146 867 q 124 836 126 840 l 92 871 q 108 897 92 874 q 155 939 125 919 q 225 958 185 958 q 281 950 256 958 q 342 924 306 942 q 393 901 372 908 q 436 894 414 894 q 474 903 458 894 q 498 920 490 911 q 507 932 506 929 l 539 897 q 525 876 539 894 q 485 842 511 858 q 421 826 460 826 z "},"f":{"ha":435,"x_min":60,"x_max":446,"o":"m 132 626 l 60 626 l 60 685 l 132 693 l 132 793 q 174 991 132 928 q 314 1054 215 1054 q 376 1045 347 1054 q 424 1026 406 1036 q 446 1014 442 1017 l 432 960 q 414 970 428 963 q 378 985 400 978 q 332 992 356 992 q 274 974 294 992 q 242 910 253 956 q 232 782 232 864 l 232 694 l 433 694 l 433 626 l 232 626 l 232 0 l 132 0 l 132 626 z "},"g":{"ha":626,"x_min":28,"x_max":619,"o":"m 328 -361 q 104 -303 181 -361 q 28 -135 28 -246 q 60 -18 28 -62 q 143 47 93 26 q 118 129 118 76 q 182 246 118 197 q 96 330 126 275 q 65 463 65 385 q 137 649 65 589 q 321 708 208 708 q 417 694 375 708 l 596 693 l 596 639 l 507 636 q 563 463 563 574 q 498 279 563 343 q 319 215 433 215 q 235 225 272 215 q 186 153 186 193 q 217 101 186 115 q 315 86 247 86 q 619 -128 619 86 q 544 -301 619 -242 q 328 -361 468 -361 m 317 271 q 464 464 464 271 q 425 606 464 564 q 315 649 386 649 q 203 607 244 649 q 163 463 163 565 q 203 319 163 368 q 317 271 243 271 m 328 -299 q 478 -259 425 -299 q 531 -144 531 -219 q 304 1 531 1 q 200 13 239 1 q 133 -41 158 -4 q 107 -133 107 -78 q 165 -258 107 -217 q 328 -299 222 -299 z "},"ğ":{"ha":626,"x_min":28,"x_max":619,"o":"m 315 799 q 195 829 238 799 q 139 892 153 860 q 125 936 125 925 l 188 944 l 188 942 q 199 916 188 936 q 238 878 210 896 q 315 860 265 860 q 394 878 365 860 q 435 916 424 896 q 446 942 446 936 l 446 944 l 508 936 q 494 892 508 925 q 436 829 479 860 q 315 799 393 799 m 328 -361 q 104 -303 181 -361 q 28 -135 28 -246 q 60 -18 28 -62 q 143 47 93 26 q 118 129 118 76 q 182 246 118 197 q 96 330 126 275 q 65 463 65 385 q 137 649 65 589 q 321 708 208 708 q 417 694 375 708 l 596 693 l 596 639 l 507 636 q 563 463 563 574 q 498 279 563 343 q 319 215 433 215 q 235 225 272 215 q 186 153 186 193 q 217 101 186 115 q 315 86 247 86 q 619 -128 619 86 q 544 -301 619 -242 q 328 -361 468 -361 m 317 271 q 464 464 464 271 q 425 606 464 564 q 315 649 386 649 q 203 607 244 649 q 163 463 163 565 q 203 319 163 368 q 317 271 243 271 m 328 -299 q 478 -259 425 -299 q 531 -144 531 -219 q 304 1 531 1 q 200 13 239 1 q 133 -41 158 -4 q 107 -133 107 -78 q 165 -258 107 -217 q 328 -299 222 -299 z "},"ģ":{"ha":626,"x_min":28,"x_max":619,"o":"m 315 792 q 281 804 294 792 q 254 883 254 829 q 287 1017 254 946 q 371 1129 319 1088 l 396 1103 q 334 1015 356 1065 q 313 917 313 964 q 314 892 313 900 q 350 879 336 892 q 365 842 365 864 q 350 804 365 819 q 315 792 336 792 m 328 -361 q 104 -303 181 -361 q 28 -135 28 -246 q 60 -18 28 -62 q 143 47 93 26 q 118 129 118 76 q 182 246 118 197 q 96 330 126 275 q 65 463 65 385 q 137 649 65 589 q 321 708 208 708 q 417 694 375 708 l 596 693 l 596 639 l 507 636 q 563 463 563 574 q 498 279 563 343 q 319 215 433 215 q 235 225 272 215 q 186 153 186 193 q 217 101 186 115 q 315 86 247 86 q 619 -128 619 86 q 544 -301 619 -242 q 328 -361 468 -361 m 317 271 q 464 464 464 271 q 425 606 464 564 q 315 649 386 649 q 203 607 244 649 q 163 463 163 565 q 203 319 163 368 q 317 271 243 271 m 328 -299 q 478 -259 425 -299 q 531 -144 531 -219 q 304 1 531 1 q 200 13 239 1 q 133 -41 158 -4 q 107 -133 107 -78 q 165 -258 107 -217 q 328 -299 222 -299 z "},"h":{"ha":711,"x_min":103,"x_max":615,"o":"m 103 1039 l 204 1044 l 204 632 l 206 632 q 223 651 206 632 q 292 689 240 669 q 404 708 343 708 q 560 652 506 708 q 615 485 615 596 l 615 0 l 515 0 l 515 472 q 371 635 515 635 q 283 619 321 635 q 225 586 246 604 q 204 565 204 568 l 204 0 l 103 0 l 103 1039 z "},"i":{"ha":308,"x_min":96,"x_max":213,"o":"m 154 835 q 114 850 129 835 q 96 894 96 868 q 114 939 96 921 q 154 954 129 954 q 196 940 181 954 q 213 894 213 922 q 196 850 213 869 q 154 835 176 835 m 103 0 l 103 694 l 204 694 l 204 0 l 103 0 z "},"ı":{"ha":308,"x_min":103,"x_max":204,"o":"m 103 0 l 103 694 l 204 694 l 204 0 l 103 0 z "},"í":{"ha":308,"x_min":103,"x_max":301,"o":"m 160 793 l 107 800 l 214 1001 l 301 981 l 160 793 m 103 0 l 103 694 l 204 694 l 204 0 l 103 0 z "},"î":{"ha":308,"x_min":-25,"x_max":332,"o":"m 1 829 l -25 874 l 128 1032 l 182 1032 l 332 874 l 307 829 l 154 964 l 1 829 m 103 0 l 103 694 l 204 694 l 204 0 l 103 0 z "},"ï":{"ha":308,"x_min":-6,"x_max":313,"o":"m 47 840 q 10 854 28 840 q -6 894 -6 869 q 10 936 -6 921 q 47 950 28 950 q 83 936 65 950 q 99 894 99 918 q 83 854 99 872 q 47 840 65 840 m 260 840 q 224 854 242 840 q 208 894 208 869 q 224 936 208 921 q 260 950 242 950 q 296 936 278 950 q 313 894 313 919 q 296 854 313 871 q 260 840 278 840 m 103 0 l 103 694 l 204 694 l 204 0 l 103 0 z "},"ị":{"ha":308,"x_min":92,"x_max":217,"o":"m 154 835 q 114 850 129 835 q 96 894 96 868 q 114 939 96 921 q 154 954 129 954 q 196 940 181 954 q 213 894 213 922 q 196 850 213 869 q 154 835 176 835 m 103 0 l 103 694 l 204 694 l 204 0 l 103 0 m 154 -224 q 111 -207 129 -224 q 92 -160 92 -189 q 111 -112 92 -131 q 154 -96 129 -96 q 199 -112 179 -96 q 217 -160 217 -131 q 199 -207 217 -189 q 154 -224 179 -224 z "},"ì":{"ha":308,"x_min":-4,"x_max":204,"o":"m 142 796 l -4 983 l 82 1006 l 197 807 l 142 796 m 103 0 l 103 694 l 204 694 l 204 0 l 103 0 z "},"ỉ":{"ha":308,"x_min":38,"x_max":253,"o":"m 103 0 l 103 694 l 204 694 l 204 0 l 103 0 m 126 758 q 125 788 125 768 q 146 814 125 796 q 174 841 164 829 q 183 869 183 853 q 129 925 183 925 q 99 919 113 925 q 77 908 85 914 q 68 901 69 903 l 38 961 q 56 970 42 964 q 92 983 71 976 q 135 989 114 989 q 219 961 185 989 q 253 875 253 933 q 241 834 253 849 q 207 803 229 819 q 187 787 193 793 q 181 771 181 781 l 181 760 l 126 758 z "},"ī":{"ha":308,"x_min":25,"x_max":283,"o":"m 25 883 l 25 933 l 283 933 l 283 883 l 25 883 m 103 0 l 103 694 l 204 694 l 204 0 l 103 0 z "},"į":{"ha":308,"x_min":-26,"x_max":210,"o":"m 151 835 q 111 850 126 835 q 93 894 93 868 q 111 939 93 921 q 151 954 126 954 q 193 940 178 954 q 210 894 210 922 q 193 850 210 869 q 151 835 174 835 m 189 -347 q 34 -315 94 -347 q -26 -193 -26 -282 q 13 -81 -26 -131 q 103 4 51 -31 l 103 694 l 204 694 l 204 0 l 156 0 q 81 -71 118 -24 q 43 -187 43 -118 q 83 -278 43 -253 q 189 -303 122 -303 l 189 -347 z "},"ĩ":{"ha":308,"x_min":-69,"x_max":378,"o":"m 103 0 l 103 694 l 204 694 l 204 0 l 103 0 m 260 826 q 206 835 232 826 q 149 860 181 844 q 92 883 115 875 q 46 890 69 890 q 3 878 22 890 q -25 853 -15 867 q -37 836 -35 840 l -69 871 q -53 897 -69 874 q -6 939 -36 919 q 64 958 24 958 q 119 950 94 958 q 181 924 144 942 q 232 901 211 908 q 275 894 253 894 q 313 903 297 894 q 337 920 329 911 q 346 932 344 929 l 378 897 q 364 876 378 894 q 324 842 350 858 q 260 826 299 826 z "},"j":{"ha":333,"x_min":-68,"x_max":238,"o":"m 179 835 q 139 850 154 835 q 121 894 121 868 q 139 939 121 921 q 179 954 154 954 q 221 940 206 954 q 238 894 238 922 q 221 850 238 869 q 179 835 201 835 m 33 -361 q -22 -354 0 -361 q -55 -340 -44 -347 q -68 -331 -65 -333 l -49 -274 q -38 -281 -47 -275 q -14 -291 -29 -286 q 21 -296 1 -296 q 101 -240 75 -296 q 128 -57 128 -185 l 128 694 l 229 694 l 229 -57 q 33 -361 229 -361 z "},"ȷ":{"ha":332,"x_min":-69,"x_max":228,"o":"m 32 -361 q -24 -354 -1 -361 q -56 -340 -46 -347 q -69 -331 -67 -333 l -50 -274 q -40 -281 -49 -275 q -15 -291 -31 -286 q 19 -296 0 -296 q 100 -240 74 -296 q 126 -57 126 -185 l 126 694 l 228 694 l 228 -57 q 32 -361 228 -361 z "},"k":{"ha":633,"x_min":103,"x_max":601,"o":"m 103 0 l 103 1039 l 204 1044 l 204 376 l 289 435 l 496 694 l 572 694 l 343 410 l 601 0 l 486 0 l 265 350 l 204 313 l 204 0 l 103 0 z "},"ķ":{"ha":633,"x_min":103,"x_max":601,"o":"m 103 0 l 103 1039 l 204 1044 l 204 376 l 289 435 l 496 694 l 572 694 l 343 410 l 601 0 l 486 0 l 265 350 l 204 313 l 204 0 l 103 0 m 260 -374 q 322 -285 300 -336 q 343 -187 343 -235 q 342 -162 343 -171 q 306 -150 321 -162 q 290 -112 290 -135 q 306 -75 290 -90 q 340 -62 321 -62 q 375 -75 361 -62 q 401 -154 401 -100 q 369 -287 401 -217 q 285 -400 336 -358 l 260 -374 z "},"l":{"ha":310,"x_min":104,"x_max":204,"o":"m 104 0 l 104 1039 l 204 1044 l 204 0 l 104 0 z "},"ĺ":{"ha":310,"x_min":104,"x_max":322,"o":"m 181 1106 l 128 1113 l 235 1314 l 322 1293 l 181 1106 m 104 0 l 104 1039 l 204 1044 l 204 0 l 104 0 z "},"ľ":{"ha":310,"x_min":104,"x_max":401,"o":"m 329 764 l 286 768 l 332 1068 l 401 1058 l 329 764 m 104 0 l 104 1039 l 204 1044 l 204 0 l 104 0 z "},"ļ":{"ha":310,"x_min":75,"x_max":217,"o":"m 104 0 l 104 1039 l 204 1044 l 204 0 l 104 0 m 75 -374 q 137 -285 115 -336 q 158 -187 158 -235 q 157 -162 158 -171 q 121 -150 136 -162 q 106 -112 106 -135 q 121 -75 106 -90 q 156 -62 135 -62 q 190 -75 175 -62 q 217 -154 217 -100 q 184 -287 217 -217 q 100 -400 151 -358 l 75 -374 z "},"ł":{"ha":360,"x_min":8,"x_max":392,"o":"m 129 0 l 129 451 l 35 378 l 8 411 l 129 504 l 129 1039 l 229 1044 l 229 582 l 365 689 l 392 656 l 229 529 l 229 0 l 129 0 z "},"m":{"ha":1007,"x_min":104,"x_max":913,"o":"m 104 694 l 188 694 l 200 621 q 272 678 224 649 q 396 708 321 708 q 488 688 453 708 q 542 624 524 668 q 615 679 564 650 q 744 708 667 708 q 872 663 832 708 q 913 510 913 617 l 913 0 l 811 0 l 811 499 q 786 608 811 579 q 707 636 761 636 q 612 610 650 636 q 556 560 574 585 q 558 511 558 529 l 558 0 l 457 0 l 457 499 q 433 607 457 578 q 356 636 408 636 q 258 610 297 636 q 204 561 218 583 l 204 0 l 104 0 l 104 694 z "},"n":{"ha":711,"x_min":104,"x_max":617,"o":"m 104 694 l 188 694 l 200 628 q 269 681 222 654 q 406 708 317 708 q 561 652 506 708 q 617 485 617 596 l 617 0 l 515 0 l 515 464 q 479 594 515 553 q 372 635 443 635 q 285 619 322 635 q 226 586 247 604 q 204 565 204 568 l 204 0 l 104 0 l 104 694 z "},"ń":{"ha":711,"x_min":104,"x_max":617,"o":"m 344 793 l 292 800 l 399 1001 l 486 981 l 344 793 m 104 694 l 188 694 l 200 628 q 269 681 222 654 q 406 708 317 708 q 561 652 506 708 q 617 485 617 596 l 617 0 l 515 0 l 515 464 q 479 594 515 553 q 372 635 443 635 q 285 619 322 635 q 226 586 247 604 q 204 565 204 568 l 204 0 l 104 0 l 104 694 z "},"ň":{"ha":711,"x_min":104,"x_max":617,"o":"m 335 796 l 169 967 l 210 1000 l 361 860 l 515 1000 l 554 964 l 389 796 l 335 796 m 104 694 l 188 694 l 200 628 q 269 681 222 654 q 406 708 317 708 q 561 652 506 708 q 617 485 617 596 l 617 0 l 515 0 l 515 464 q 479 594 515 553 q 372 635 443 635 q 285 619 322 635 q 226 586 247 604 q 204 565 204 568 l 204 0 l 104 0 l 104 694 z "},"ņ":{"ha":711,"x_min":104,"x_max":617,"o":"m 104 694 l 188 694 l 200 628 q 269 681 222 654 q 406 708 317 708 q 561 652 506 708 q 617 485 617 596 l 617 0 l 515 0 l 515 464 q 479 594 515 553 q 372 635 443 635 q 285 619 322 635 q 226 586 247 604 q 204 565 204 568 l 204 0 l 104 0 l 104 694 m 285 -374 q 347 -285 325 -336 q 368 -187 368 -235 q 367 -162 368 -171 q 331 -150 346 -162 q 315 -112 315 -135 q 331 -75 315 -90 q 365 -62 346 -62 q 400 -75 386 -62 q 426 -154 426 -100 q 394 -287 426 -217 q 310 -400 361 -358 l 285 -374 z "},"ñ":{"ha":711,"x_min":104,"x_max":617,"o":"m 447 826 q 394 835 419 826 q 336 860 368 844 q 280 883 303 875 q 233 890 257 890 q 191 878 210 890 q 163 853 172 867 q 150 836 153 840 l 118 871 q 135 897 118 874 q 181 939 151 919 q 251 958 211 958 q 307 950 282 958 q 368 924 332 942 q 419 901 399 908 q 463 894 440 894 q 501 903 485 894 q 524 920 517 911 q 533 932 532 929 l 565 897 q 551 876 565 894 q 512 842 538 858 q 447 826 486 826 m 104 694 l 188 694 l 200 628 q 269 681 222 654 q 406 708 317 708 q 561 652 506 708 q 617 485 617 596 l 617 0 l 515 0 l 515 464 q 479 594 515 553 q 372 635 443 635 q 285 619 322 635 q 226 586 247 604 q 204 565 204 568 l 204 0 l 104 0 l 104 694 z "},"o":{"ha":696,"x_min":51,"x_max":643,"o":"m 347 -14 q 127 81 203 -14 q 51 347 51 175 q 127 614 51 519 q 347 708 203 708 q 567 614 492 708 q 643 347 643 519 q 566 81 643 176 q 347 -14 489 -14 m 347 47 q 490 122 444 47 q 536 347 536 196 q 490 572 536 497 q 347 647 444 647 q 204 573 250 647 q 158 347 158 499 q 204 122 158 196 q 347 47 250 47 z "},"ó":{"ha":696,"x_min":51,"x_max":643,"o":"m 347 793 l 294 800 l 401 1001 l 489 981 l 347 793 m 347 -14 q 127 81 203 -14 q 51 347 51 175 q 127 614 51 519 q 347 708 203 708 q 567 614 492 708 q 643 347 643 519 q 566 81 643 176 q 347 -14 489 -14 m 347 47 q 490 122 444 47 q 536 347 536 196 q 490 572 536 497 q 347 647 444 647 q 204 573 250 647 q 158 347 158 499 q 204 122 158 196 q 347 47 250 47 z "},"ô":{"ha":696,"x_min":51,"x_max":643,"o":"m 186 829 l 160 874 l 313 1032 l 367 1032 l 517 874 l 492 829 l 339 964 l 186 829 m 347 -14 q 127 81 203 -14 q 51 347 51 175 q 127 614 51 519 q 347 708 203 708 q 567 614 492 708 q 643 347 643 519 q 566 81 643 176 q 347 -14 489 -14 m 347 47 q 490 122 444 47 q 536 347 536 196 q 490 572 536 497 q 347 647 444 647 q 204 573 250 647 q 158 347 158 499 q 204 122 158 196 q 347 47 250 47 z "},"ố":{"ha":696,"x_min":51,"x_max":696,"o":"m 347 -14 q 127 81 203 -14 q 51 347 51 175 q 127 614 51 519 q 347 708 203 708 q 567 614 492 708 q 643 347 643 519 q 566 81 643 176 q 347 -14 489 -14 m 347 47 q 490 122 444 47 q 536 347 536 196 q 490 572 536 497 q 347 647 444 647 q 204 573 250 647 q 158 347 158 499 q 204 122 158 196 q 347 47 250 47 m 196 782 l 169 826 l 322 985 l 376 985 l 526 826 l 501 782 l 349 917 l 196 782 m 554 899 l 501 906 l 608 1107 l 696 1086 l 554 899 z "},"ộ":{"ha":696,"x_min":51,"x_max":643,"o":"m 347 -14 q 127 81 203 -14 q 51 347 51 175 q 127 614 51 519 q 347 708 203 708 q 567 614 492 708 q 643 347 643 519 q 566 81 643 176 q 347 -14 489 -14 m 347 47 q 490 122 444 47 q 536 347 536 196 q 490 572 536 497 q 347 647 444 647 q 204 573 250 647 q 158 347 158 499 q 204 122 158 196 q 347 47 250 47 m 349 -224 q 306 -207 324 -224 q 286 -160 286 -189 q 306 -112 286 -131 q 349 -96 324 -96 q 393 -112 374 -96 q 411 -160 411 -131 q 393 -207 411 -189 q 349 -224 374 -224 m 196 782 l 169 826 l 322 985 l 376 985 l 526 826 l 501 782 l 349 917 l 196 782 z "},"ồ":{"ha":696,"x_min":51,"x_max":643,"o":"m 347 -14 q 127 81 203 -14 q 51 347 51 175 q 127 614 51 519 q 347 708 203 708 q 567 614 492 708 q 643 347 643 519 q 566 81 643 176 q 347 -14 489 -14 m 347 47 q 490 122 444 47 q 536 347 536 196 q 490 572 536 497 q 347 647 444 647 q 204 573 250 647 q 158 347 158 499 q 204 122 158 196 q 347 47 250 47 m 196 782 l 169 826 l 322 985 l 376 985 l 526 826 l 501 782 l 349 917 l 196 782 m 497 963 l 351 1150 l 438 1172 l 553 974 l 497 963 z "},"ổ":{"ha":696,"x_min":51,"x_max":643,"o":"m 347 -14 q 127 81 203 -14 q 51 347 51 175 q 127 614 51 519 q 347 708 203 708 q 567 614 492 708 q 643 347 643 519 q 566 81 643 176 q 347 -14 489 -14 m 347 47 q 490 122 444 47 q 536 347 536 196 q 490 572 536 497 q 347 647 444 647 q 204 573 250 647 q 158 347 158 499 q 204 122 158 196 q 347 47 250 47 m 196 782 l 169 826 l 322 985 l 376 985 l 526 826 l 501 782 l 349 917 l 196 782 m 508 961 q 507 990 507 971 q 528 1017 507 999 q 556 1044 546 1032 q 565 1072 565 1056 q 511 1128 565 1128 q 481 1122 494 1128 q 459 1111 467 1117 q 450 1104 451 1106 l 419 1164 q 438 1173 424 1167 q 474 1185 453 1179 q 517 1192 496 1192 q 601 1164 567 1192 q 635 1078 635 1136 q 623 1037 635 1051 q 589 1006 611 1022 q 569 990 575 996 q 563 974 563 983 l 563 963 l 508 961 z "},"ỗ":{"ha":696,"x_min":51,"x_max":643,"o":"m 347 -14 q 127 81 203 -14 q 51 347 51 175 q 127 614 51 519 q 347 708 203 708 q 567 614 492 708 q 643 347 643 519 q 566 81 643 176 q 347 -14 489 -14 m 347 47 q 490 122 444 47 q 536 347 536 196 q 490 572 536 497 q 347 647 444 647 q 204 573 250 647 q 158 347 158 499 q 204 122 158 196 q 347 47 250 47 m 196 782 l 169 826 l 322 985 l 376 985 l 526 826 l 501 782 l 349 917 l 196 782 m 467 1006 q 413 1015 439 1006 q 356 1039 388 1024 q 299 1062 322 1054 q 253 1069 276 1069 q 210 1058 229 1069 q 182 1033 192 1046 q 169 1015 172 1019 l 138 1050 q 154 1076 138 1053 q 201 1118 171 1099 q 271 1138 231 1138 q 326 1129 301 1138 q 388 1103 351 1121 q 439 1081 418 1088 q 482 1074 460 1074 q 520 1082 504 1074 q 544 1099 536 1090 q 553 1111 551 1108 l 585 1076 q 571 1056 585 1074 q 531 1022 557 1038 q 467 1006 506 1006 z "},"ö":{"ha":696,"x_min":51,"x_max":643,"o":"m 231 840 q 194 854 213 840 q 179 894 179 869 q 194 936 179 921 q 231 950 213 950 q 268 936 250 950 q 283 894 283 918 q 268 854 283 872 q 231 840 250 840 m 444 840 q 408 854 426 840 q 393 894 393 869 q 408 936 393 921 q 444 950 426 950 q 481 936 463 950 q 497 894 497 919 q 481 854 497 871 q 444 840 463 840 m 347 -14 q 127 81 203 -14 q 51 347 51 175 q 127 614 51 519 q 347 708 203 708 q 567 614 492 708 q 643 347 643 519 q 566 81 643 176 q 347 -14 489 -14 m 347 47 q 490 122 444 47 q 536 347 536 196 q 490 572 536 497 q 347 647 444 647 q 204 573 250 647 q 158 347 158 499 q 204 122 158 196 q 347 47 250 47 z "},"ọ":{"ha":696,"x_min":51,"x_max":643,"o":"m 347 -14 q 127 81 203 -14 q 51 347 51 175 q 127 614 51 519 q 347 708 203 708 q 567 614 492 708 q 643 347 643 519 q 566 81 643 176 q 347 -14 489 -14 m 347 47 q 490 122 444 47 q 536 347 536 196 q 490 572 536 497 q 347 647 444 647 q 204 573 250 647 q 158 347 158 499 q 204 122 158 196 q 347 47 250 47 m 349 -224 q 306 -207 324 -224 q 286 -160 286 -189 q 306 -112 286 -131 q 349 -96 324 -96 q 393 -112 374 -96 q 411 -160 411 -131 q 393 -207 411 -189 q 349 -224 374 -224 z "},"ò":{"ha":696,"x_min":51,"x_max":643,"o":"m 329 796 l 183 983 l 269 1006 l 385 807 l 329 796 m 347 -14 q 127 81 203 -14 q 51 347 51 175 q 127 614 51 519 q 347 708 203 708 q 567 614 492 708 q 643 347 643 519 q 566 81 643 176 q 347 -14 489 -14 m 347 47 q 490 122 444 47 q 536 347 536 196 q 490 572 536 497 q 347 647 444 647 q 204 573 250 647 q 158 347 158 499 q 204 122 158 196 q 347 47 250 47 z "},"ỏ":{"ha":696,"x_min":51,"x_max":643,"o":"m 347 -14 q 127 81 203 -14 q 51 347 51 175 q 127 614 51 519 q 347 708 203 708 q 567 614 492 708 q 643 347 643 519 q 566 81 643 176 q 347 -14 489 -14 m 347 47 q 490 122 444 47 q 536 347 536 196 q 490 572 536 497 q 347 647 444 647 q 204 573 250 647 q 158 347 158 499 q 204 122 158 196 q 347 47 250 47 m 321 758 q 319 788 319 768 q 340 814 319 796 q 368 841 358 829 q 378 869 378 853 q 324 925 378 925 q 293 919 307 925 q 272 908 279 914 q 263 901 264 903 l 232 961 q 251 970 236 964 q 287 983 265 976 q 329 989 308 989 q 413 961 379 989 q 447 875 447 933 q 435 834 447 849 q 401 803 424 819 q 381 787 388 793 q 375 771 375 781 l 375 760 l 321 758 z "},"ơ":{"ha":696,"x_min":51,"x_max":643,"o":"m 522 657 q 613 535 582 614 q 643 347 643 456 q 566 81 643 176 q 347 -14 489 -14 q 127 81 203 -14 q 51 347 51 175 q 127 614 51 519 q 347 708 203 708 q 446 694 403 708 q 509 726 488 697 q 532 818 531 756 l 618 818 q 592 719 618 760 q 522 657 567 678 m 347 47 q 490 122 444 47 q 536 347 536 196 q 490 572 536 497 q 347 647 444 647 q 204 573 250 647 q 158 347 158 499 q 204 122 158 196 q 347 47 250 47 z "},"ớ":{"ha":696,"x_min":51,"x_max":643,"o":"m 522 657 q 613 535 582 614 q 643 347 643 456 q 566 81 643 176 q 347 -14 489 -14 q 127 81 203 -14 q 51 347 51 175 q 127 614 51 519 q 347 708 203 708 q 446 694 403 708 q 509 726 488 697 q 532 818 531 756 l 618 818 q 592 719 618 760 q 522 657 567 678 m 347 47 q 490 122 444 47 q 536 347 536 196 q 490 572 536 497 q 347 647 444 647 q 204 573 250 647 q 158 347 158 499 q 204 122 158 196 q 347 47 250 47 m 304 793 l 251 800 l 358 1001 l 446 981 l 304 793 z "},"ợ":{"ha":696,"x_min":51,"x_max":643,"o":"m 522 657 q 613 535 582 614 q 643 347 643 456 q 566 81 643 176 q 347 -14 489 -14 q 127 81 203 -14 q 51 347 51 175 q 127 614 51 519 q 347 708 203 708 q 446 694 403 708 q 509 726 488 697 q 532 818 531 756 l 618 818 q 592 719 618 760 q 522 657 567 678 m 347 47 q 490 122 444 47 q 536 347 536 196 q 490 572 536 497 q 347 647 444 647 q 204 573 250 647 q 158 347 158 499 q 204 122 158 196 q 347 47 250 47 m 349 -224 q 306 -207 324 -224 q 286 -160 286 -189 q 306 -112 286 -131 q 349 -96 324 -96 q 393 -112 374 -96 q 411 -160 411 -131 q 393 -207 411 -189 q 349 -224 374 -224 z "},"ờ":{"ha":696,"x_min":51,"x_max":643,"o":"m 522 657 q 613 535 582 614 q 643 347 643 456 q 566 81 643 176 q 347 -14 489 -14 q 127 81 203 -14 q 51 347 51 175 q 127 614 51 519 q 347 708 203 708 q 446 694 403 708 q 509 726 488 697 q 532 818 531 756 l 618 818 q 592 719 618 760 q 522 657 567 678 m 347 47 q 490 122 444 47 q 536 347 536 196 q 490 572 536 497 q 347 647 444 647 q 204 573 250 647 q 158 347 158 499 q 204 122 158 196 q 347 47 250 47 m 393 796 l 247 983 l 333 1006 l 449 807 l 393 796 z "},"ở":{"ha":696,"x_min":51,"x_max":643,"o":"m 522 657 q 613 535 582 614 q 643 347 643 456 q 566 81 643 176 q 347 -14 489 -14 q 127 81 203 -14 q 51 347 51 175 q 127 614 51 519 q 347 708 203 708 q 446 694 403 708 q 509 726 488 697 q 532 818 531 756 l 618 818 q 592 719 618 760 q 522 657 567 678 m 347 47 q 490 122 444 47 q 536 347 536 196 q 490 572 536 497 q 347 647 444 647 q 204 573 250 647 q 158 347 158 499 q 204 122 158 196 q 347 47 250 47 m 321 758 q 319 788 319 768 q 340 814 319 796 q 368 841 358 829 q 378 869 378 853 q 324 925 378 925 q 293 919 307 925 q 272 908 279 914 q 263 901 264 903 l 232 961 q 251 970 236 964 q 287 983 265 976 q 329 989 308 989 q 413 961 379 989 q 447 875 447 933 q 435 834 447 849 q 401 803 424 819 q 381 787 388 793 q 375 771 375 781 l 375 760 l 321 758 z "},"ỡ":{"ha":696,"x_min":51,"x_max":643,"o":"m 522 657 q 613 535 582 614 q 643 347 643 456 q 566 81 643 176 q 347 -14 489 -14 q 127 81 203 -14 q 51 347 51 175 q 127 614 51 519 q 347 708 203 708 q 446 694 403 708 q 509 726 488 697 q 532 818 531 756 l 618 818 q 592 719 618 760 q 522 657 567 678 m 347 47 q 490 122 444 47 q 536 347 536 196 q 490 572 536 497 q 347 647 444 647 q 204 573 250 647 q 158 347 158 499 q 204 122 158 196 q 347 47 250 47 m 454 826 q 401 835 426 826 q 343 860 375 844 q 287 883 310 875 q 240 890 264 890 q 198 878 217 890 q 169 853 179 867 q 157 836 160 840 l 125 871 q 142 897 125 874 q 188 939 158 919 q 258 958 218 958 q 314 950 289 958 q 375 924 339 942 q 426 901 406 908 q 469 894 447 894 q 508 903 492 894 q 531 920 524 911 q 540 932 539 929 l 572 897 q 558 876 572 894 q 519 842 544 858 q 454 826 493 826 z "},"ő":{"ha":696,"x_min":51,"x_max":643,"o":"m 257 800 l 210 819 l 272 997 l 344 979 l 257 800 m 436 800 l 389 819 l 453 997 l 524 979 l 436 800 m 347 -14 q 127 81 203 -14 q 51 347 51 175 q 127 614 51 519 q 347 708 203 708 q 567 614 492 708 q 643 347 643 519 q 566 81 643 176 q 347 -14 489 -14 m 347 47 q 490 122 444 47 q 536 347 536 196 q 490 572 536 497 q 347 647 444 647 q 204 573 250 647 q 158 347 158 499 q 204 122 158 196 q 347 47 250 47 z "},"ō":{"ha":696,"x_min":51,"x_max":643,"o":"m 218 883 l 218 933 l 476 933 l 476 883 l 218 883 m 347 -14 q 127 81 203 -14 q 51 347 51 175 q 127 614 51 519 q 347 708 203 708 q 567 614 492 708 q 643 347 643 519 q 566 81 643 176 q 347 -14 489 -14 m 347 47 q 490 122 444 47 q 536 347 536 196 q 490 572 536 497 q 347 647 444 647 q 204 573 250 647 q 158 347 158 499 q 204 122 158 196 q 347 47 250 47 z "},"ø":{"ha":708,"x_min":51,"x_max":643,"o":"m 106 -240 l 204 18 q 90 141 129 57 q 51 347 51 225 q 127 614 51 519 q 347 708 203 708 q 463 689 411 708 l 546 903 l 597 894 l 508 665 q 609 542 575 624 q 643 347 643 461 q 566 81 643 176 q 347 -14 489 -14 q 251 -1 296 -14 l 156 -249 l 106 -240 m 438 624 q 347 647 399 647 q 204 573 250 647 q 158 347 158 499 q 231 88 158 154 l 438 624 m 347 47 q 490 122 444 47 q 536 347 536 196 q 479 588 536 517 l 275 60 q 347 47 307 47 z "},"õ":{"ha":696,"x_min":51,"x_max":643,"o":"m 450 826 q 397 835 422 826 q 339 860 371 844 q 283 883 306 875 q 236 890 260 890 q 194 878 213 890 q 165 853 175 867 q 153 836 156 840 l 121 871 q 138 897 121 874 q 184 939 154 919 q 254 958 214 958 q 310 950 285 958 q 371 924 335 942 q 422 901 401 908 q 465 894 443 894 q 503 903 488 894 q 527 920 519 911 q 536 932 535 929 l 568 897 q 554 876 568 894 q 515 842 540 858 q 450 826 489 826 m 347 -14 q 127 81 203 -14 q 51 347 51 175 q 127 614 51 519 q 347 708 203 708 q 567 614 492 708 q 643 347 643 519 q 566 81 643 176 q 347 -14 489 -14 m 347 47 q 490 122 444 47 q 536 347 536 196 q 490 572 536 497 q 347 647 444 647 q 204 573 250 647 q 158 347 158 499 q 204 122 158 196 q 347 47 250 47 z "},"œ":{"ha":1115,"x_min":51,"x_max":1071,"o":"m 347 -14 q 127 81 203 -14 q 51 347 51 175 q 127 614 51 519 q 347 708 203 708 q 494 674 432 708 q 592 576 556 640 q 687 674 628 640 q 822 708 746 708 q 1006 626 942 708 q 1071 392 1071 543 q 1068 349 1071 365 q 1064 328 1065 332 l 643 328 q 846 47 643 47 q 941 67 901 47 q 1003 110 981 88 q 1025 138 1025 133 l 1065 104 q 1039 69 1065 99 q 961 13 1013 39 q 835 -14 910 -14 q 688 17 751 -14 q 588 113 625 49 q 489 18 550 50 q 347 -14 428 -14 m 976 386 l 978 413 q 822 649 978 649 q 696 584 740 649 q 644 386 651 519 l 976 386 m 347 47 q 490 122 444 47 q 536 347 536 196 q 490 572 536 497 q 347 647 444 647 q 204 573 250 647 q 158 347 158 499 q 204 122 158 196 q 347 47 250 47 z "},"p":{"ha":717,"x_min":104,"x_max":665,"o":"m 104 694 l 188 694 l 200 611 q 267 675 219 642 q 397 708 314 708 q 592 618 519 708 q 665 367 665 528 q 592 89 665 192 q 383 -14 518 -14 q 287 1 326 -14 q 226 33 247 15 q 206 53 206 50 l 204 53 l 204 -347 l 104 -350 l 104 694 m 350 53 q 508 130 458 53 q 558 364 558 207 q 508 575 558 510 q 364 640 458 640 q 278 619 314 640 q 223 574 242 599 q 204 546 204 550 l 204 114 q 255 74 219 94 q 350 53 290 53 z "},"þ":{"ha":714,"x_min":101,"x_max":664,"o":"m 101 694 l 103 694 l 103 1039 l 204 1044 l 204 615 l 206 615 q 226 644 206 619 q 287 689 246 668 q 390 710 328 710 q 589 619 514 710 q 664 367 664 528 q 590 88 664 192 q 378 -15 517 -15 q 270 3 314 -15 q 203 44 226 22 l 203 -347 l 101 -350 l 101 694 m 351 51 q 508 130 458 51 q 557 364 557 208 q 507 576 557 508 q 361 643 457 643 q 254 607 292 643 q 204 543 217 571 l 204 114 q 251 74 214 96 q 351 51 289 51 z "},"q":{"ha":717,"x_min":53,"x_max":613,"o":"m 511 83 l 510 83 q 490 54 510 79 q 430 8 471 29 q 326 -14 389 -14 q 128 76 203 -14 q 53 328 53 167 q 128 605 53 501 q 340 708 204 708 q 451 688 408 708 q 517 644 494 667 l 540 694 l 613 694 l 613 -347 l 511 -350 l 511 83 m 357 54 q 442 75 408 54 q 494 120 476 96 q 511 149 511 144 l 511 582 q 458 622 493 603 q 368 642 424 642 q 210 565 261 642 q 158 331 158 489 q 210 119 158 183 q 357 54 261 54 z "},"r":{"ha":457,"x_min":103,"x_max":447,"o":"m 103 694 l 178 694 l 193 551 q 209 599 193 560 q 258 674 225 639 q 344 708 292 708 q 404 699 371 708 q 447 686 438 690 l 438 610 q 394 622 428 614 q 333 631 360 631 q 265 603 293 631 q 222 546 236 576 q 204 500 208 515 l 204 0 l 103 0 l 103 694 z "},"ŕ":{"ha":457,"x_min":103,"x_max":447,"o":"m 267 793 l 214 800 l 321 1001 l 408 981 l 267 793 m 103 694 l 178 694 l 193 551 q 209 599 193 560 q 258 674 225 639 q 344 708 292 708 q 404 699 371 708 q 447 686 438 690 l 438 610 q 394 622 428 614 q 333 631 360 631 q 265 603 293 631 q 222 546 236 576 q 204 500 208 515 l 204 0 l 103 0 l 103 694 z "},"ř":{"ha":456,"x_min":65,"x_max":450,"o":"m 231 796 l 65 967 l 106 1000 l 257 860 l 411 1000 l 450 964 l 285 796 l 231 796 m 103 694 l 178 694 l 193 551 q 209 599 193 560 q 258 674 225 639 q 344 708 292 708 q 404 699 371 708 q 447 686 438 690 l 438 610 q 394 622 428 614 q 333 631 360 631 q 265 603 293 631 q 222 546 236 576 q 204 500 208 515 l 204 0 l 103 0 l 103 694 z "},"ŗ":{"ha":457,"x_min":72,"x_max":447,"o":"m 103 694 l 178 694 l 193 551 q 209 599 193 560 q 258 674 225 639 q 344 708 292 708 q 404 699 371 708 q 447 686 438 690 l 438 610 q 394 622 428 614 q 333 631 360 631 q 265 603 293 631 q 222 546 236 576 q 204 500 208 515 l 204 0 l 103 0 l 103 694 m 72 -374 q 134 -285 113 -336 q 156 -187 156 -235 q 154 -162 156 -171 q 118 -150 133 -162 q 103 -112 103 -135 q 118 -75 103 -90 q 153 -62 133 -62 q 188 -75 174 -62 q 214 -154 214 -100 q 181 -287 214 -217 q 97 -400 149 -358 l 72 -374 z "},"s":{"ha":567,"x_min":50,"x_max":522,"o":"m 276 -14 q 152 9 203 -14 q 76 58 101 32 q 50 89 50 85 l 85 138 q 107 111 85 135 q 168 67 129 88 q 260 47 207 47 q 377 86 338 47 q 417 181 417 125 q 397 247 417 221 q 347 288 376 274 q 264 321 317 303 q 167 362 203 343 q 105 418 131 381 q 79 515 79 456 q 144 656 79 604 q 310 708 208 708 q 395 697 354 708 q 461 672 436 685 q 493 654 486 658 l 476 594 q 449 612 471 599 q 391 638 426 625 q 318 650 356 650 q 215 618 254 650 q 175 538 175 586 q 196 470 175 497 q 248 428 217 443 q 332 393 279 413 q 431 352 393 372 q 496 294 469 332 q 522 197 522 257 q 460 47 522 107 q 276 -14 397 -14 z "},"ś":{"ha":567,"x_min":50,"x_max":522,"o":"m 311 793 l 258 800 l 365 1001 l 453 981 l 311 793 m 276 -14 q 152 9 203 -14 q 76 58 101 32 q 50 89 50 85 l 85 138 q 107 111 85 135 q 168 67 129 88 q 260 47 207 47 q 377 86 338 47 q 417 181 417 125 q 397 247 417 221 q 347 288 376 274 q 264 321 317 303 q 167 362 203 343 q 105 418 131 381 q 79 515 79 456 q 144 656 79 604 q 310 708 208 708 q 395 697 354 708 q 461 672 436 685 q 493 654 486 658 l 476 594 q 449 612 471 599 q 391 638 426 625 q 318 650 356 650 q 215 618 254 650 q 175 538 175 586 q 196 470 175 497 q 248 428 217 443 q 332 393 279 413 q 431 352 393 372 q 496 294 469 332 q 522 197 522 257 q 460 47 522 107 q 276 -14 397 -14 z "},"š":{"ha":567,"x_min":50,"x_max":522,"o":"m 263 796 l 97 967 l 138 1000 l 289 860 l 443 1000 l 482 964 l 317 796 l 263 796 m 276 -14 q 152 9 203 -14 q 76 58 101 32 q 50 89 50 85 l 85 138 q 107 111 85 135 q 168 67 129 88 q 260 47 207 47 q 377 86 338 47 q 417 181 417 125 q 397 247 417 221 q 347 288 376 274 q 264 321 317 303 q 167 362 203 343 q 105 418 131 381 q 79 515 79 456 q 144 656 79 604 q 310 708 208 708 q 395 697 354 708 q 461 672 436 685 q 493 654 486 658 l 476 594 q 449 612 471 599 q 391 638 426 625 q 318 650 356 650 q 215 618 254 650 q 175 538 175 586 q 196 470 175 497 q 248 428 217 443 q 332 393 279 413 q 431 352 393 372 q 496 294 469 332 q 522 197 522 257 q 460 47 522 107 q 276 -14 397 -14 z "},"ş":{"ha":567,"x_min":50,"x_max":522,"o":"m 279 -349 q 209 -335 238 -349 q 166 -308 181 -322 q 151 -290 151 -293 l 176 -262 q 190 -277 179 -267 q 221 -297 200 -287 q 269 -307 242 -307 q 361 -212 361 -307 q 331 -155 361 -171 q 273 -134 301 -139 q 244 -128 244 -129 l 260 -14 q 145 12 192 -11 q 74 60 99 35 q 50 89 50 85 l 85 138 q 107 111 85 135 q 168 67 129 88 q 260 47 207 47 q 377 86 338 47 q 417 181 417 125 q 397 247 417 221 q 347 288 376 274 q 264 321 317 303 q 167 362 203 343 q 105 418 131 381 q 79 515 79 456 q 144 656 79 604 q 310 708 208 708 q 395 697 354 708 q 461 672 436 685 q 493 654 486 658 l 476 594 q 449 612 471 599 q 391 638 426 625 q 318 650 356 650 q 215 618 254 650 q 175 538 175 586 q 196 470 175 497 q 248 428 217 443 q 332 393 279 413 q 431 352 393 372 q 496 294 469 332 q 522 197 522 257 q 466 52 522 111 q 299 -12 410 -7 l 290 -96 q 326 -106 290 -97 q 392 -142 361 -115 q 424 -215 424 -168 q 387 -313 424 -278 q 279 -349 350 -349 z "},"ß":{"ha":736,"x_min":104,"x_max":686,"o":"m 418 -14 q 331 -6 365 -14 q 281 12 297 3 q 265 22 265 21 l 279 81 q 294 71 282 78 q 331 57 306 64 q 393 50 356 50 q 531 117 483 50 q 578 329 578 183 q 552 503 578 439 q 471 598 526 568 q 322 628 415 628 l 322 694 q 368 703 322 690 q 450 751 414 717 q 486 850 486 785 q 451 956 486 919 q 351 992 417 992 q 240 935 276 992 q 204 760 204 878 l 204 0 l 104 0 l 104 760 q 170 981 104 907 q 357 1054 236 1054 q 525 1003 464 1054 q 586 860 586 951 q 547 742 586 788 q 449 674 507 697 q 686 331 686 622 q 616 70 686 154 q 418 -14 546 -14 z "},"ſ":{"ha":308,"x_min":103,"x_max":418,"o":"m 103 793 q 145 990 103 926 q 286 1054 188 1054 q 349 1045 319 1054 q 396 1026 378 1036 q 418 1014 414 1017 l 404 960 q 386 970 400 963 q 349 985 372 978 q 301 992 326 992 q 226 947 249 992 q 204 782 204 901 l 204 0 l 103 0 l 103 793 z "},"t":{"ha":453,"x_min":56,"x_max":407,"o":"m 275 -14 q 164 33 200 -14 q 128 186 128 79 l 128 626 l 56 626 l 56 685 l 128 693 l 165 914 l 229 914 l 229 694 l 407 694 l 407 626 l 229 626 l 229 211 q 247 87 229 121 q 307 53 264 53 q 369 60 342 53 q 397 68 397 67 l 404 13 q 387 3 401 10 q 344 -8 372 -3 q 275 -14 315 -14 z "},"ť":{"ha":453,"x_min":56,"x_max":463,"o":"m 390 764 l 347 768 l 393 1068 l 463 1058 l 390 764 m 275 -14 q 164 33 200 -14 q 128 186 128 79 l 128 626 l 56 626 l 56 685 l 128 693 l 165 914 l 229 914 l 229 694 l 407 694 l 407 626 l 229 626 l 229 211 q 247 87 229 121 q 307 53 264 53 q 369 60 342 53 q 397 68 397 67 l 404 13 q 387 3 401 10 q 344 -8 372 -3 q 275 -14 315 -14 z "},"ț":{"ha":453,"x_min":56,"x_max":407,"o":"m 275 -14 q 164 33 200 -14 q 128 186 128 79 l 128 626 l 56 626 l 56 685 l 128 693 l 165 914 l 229 914 l 229 694 l 407 694 l 407 626 l 229 626 l 229 211 q 247 87 229 121 q 307 53 264 53 q 369 60 342 53 q 397 68 397 67 l 404 13 q 387 3 401 10 q 344 -8 372 -3 q 275 -14 315 -14 m 154 -374 q 216 -285 194 -336 q 238 -187 238 -235 q 236 -162 238 -171 q 200 -150 215 -162 q 185 -112 185 -135 q 200 -75 185 -90 q 235 -62 215 -62 q 269 -75 256 -62 q 272 -78 272 -78 q 296 -154 296 -103 q 263 -287 296 -217 q 179 -400 231 -358 l 154 -374 z "},"u":{"ha":711,"x_min":94,"x_max":607,"o":"m 307 -14 q 150 42 206 -14 q 94 210 94 99 l 94 694 l 196 694 l 196 231 q 340 60 196 60 q 426 76 390 60 q 484 110 463 92 q 506 131 506 128 l 506 694 l 607 694 l 607 0 l 522 0 l 508 67 q 442 14 490 42 q 307 -14 393 -14 z "},"ú":{"ha":711,"x_min":94,"x_max":607,"o":"m 358 793 l 306 800 l 413 1001 l 500 981 l 358 793 m 307 -14 q 150 42 206 -14 q 94 210 94 99 l 94 694 l 196 694 l 196 231 q 340 60 196 60 q 426 76 390 60 q 484 110 463 92 q 506 131 506 128 l 506 694 l 607 694 l 607 0 l 522 0 l 508 67 q 442 14 490 42 q 307 -14 393 -14 z "},"û":{"ha":711,"x_min":94,"x_max":607,"o":"m 199 829 l 172 874 l 325 1032 l 379 1032 l 529 874 l 504 829 l 351 964 l 199 829 m 307 -14 q 150 42 206 -14 q 94 210 94 99 l 94 694 l 196 694 l 196 231 q 340 60 196 60 q 426 76 390 60 q 484 110 463 92 q 506 131 506 128 l 506 694 l 607 694 l 607 0 l 522 0 l 508 67 q 442 14 490 42 q 307 -14 393 -14 z "},"ü":{"ha":711,"x_min":94,"x_max":607,"o":"m 244 840 q 207 854 225 840 q 192 894 192 869 q 207 936 192 921 q 244 950 225 950 q 281 936 263 950 q 296 894 296 918 q 281 854 296 872 q 244 840 263 840 m 457 840 q 421 854 439 840 q 406 894 406 869 q 421 936 406 921 q 457 950 439 950 q 493 936 475 950 q 510 894 510 919 q 493 854 510 871 q 457 840 475 840 m 307 -14 q 150 42 206 -14 q 94 210 94 99 l 94 694 l 196 694 l 196 231 q 340 60 196 60 q 426 76 390 60 q 484 110 463 92 q 506 131 506 128 l 506 694 l 607 694 l 607 0 l 522 0 l 508 67 q 442 14 490 42 q 307 -14 393 -14 z "},"ụ":{"ha":711,"x_min":94,"x_max":607,"o":"m 307 -14 q 150 42 206 -14 q 94 210 94 99 l 94 694 l 196 694 l 196 231 q 340 60 196 60 q 426 76 390 60 q 484 110 463 92 q 506 131 506 128 l 506 694 l 607 694 l 607 0 l 522 0 l 508 67 q 442 14 490 42 q 307 -14 393 -14 m 356 -224 q 313 -207 331 -224 q 293 -160 293 -189 q 313 -112 293 -131 q 356 -96 331 -96 q 400 -112 381 -96 q 418 -160 418 -131 q 400 -207 418 -189 q 356 -224 381 -224 z "},"ù":{"ha":711,"x_min":94,"x_max":607,"o":"m 340 796 l 194 983 l 281 1006 l 396 807 l 340 796 m 307 -14 q 150 42 206 -14 q 94 210 94 99 l 94 694 l 196 694 l 196 231 q 340 60 196 60 q 426 76 390 60 q 484 110 463 92 q 506 131 506 128 l 506 694 l 607 694 l 607 0 l 522 0 l 508 67 q 442 14 490 42 q 307 -14 393 -14 z "},"ủ":{"ha":711,"x_min":94,"x_max":607,"o":"m 307 -14 q 150 42 206 -14 q 94 210 94 99 l 94 694 l 196 694 l 196 231 q 340 60 196 60 q 426 76 390 60 q 484 110 463 92 q 506 131 506 128 l 506 694 l 607 694 l 607 0 l 522 0 l 508 67 q 442 14 490 42 q 307 -14 393 -14 m 328 758 q 326 788 326 768 q 347 814 326 796 q 375 841 365 829 q 385 869 385 853 q 331 925 385 925 q 300 919 314 925 q 278 908 286 914 q 269 901 271 903 l 239 961 q 258 970 243 964 q 294 983 272 976 q 336 989 315 989 q 420 961 386 989 q 454 875 454 933 q 442 834 454 849 q 408 803 431 819 q 388 787 394 793 q 382 771 382 781 l 382 760 l 328 758 z "},"ư":{"ha":711,"x_min":94,"x_max":776,"o":"m 776 818 q 728 690 776 736 q 607 639 681 643 l 607 0 l 522 0 l 508 67 q 442 14 490 42 q 307 -14 393 -14 q 150 42 206 -14 q 94 210 94 99 l 94 694 l 196 694 l 196 231 q 340 60 196 60 q 426 76 390 60 q 484 110 463 92 q 506 131 506 128 l 506 694 l 592 694 q 664 723 639 694 q 690 818 689 751 l 776 818 z "},"ứ":{"ha":711,"x_min":94,"x_max":776,"o":"m 776 818 q 728 690 776 736 q 607 639 681 643 l 607 0 l 522 0 l 508 67 q 442 14 490 42 q 307 -14 393 -14 q 150 42 206 -14 q 94 210 94 99 l 94 694 l 196 694 l 196 231 q 340 60 196 60 q 426 76 390 60 q 484 110 463 92 q 506 131 506 128 l 506 694 l 592 694 q 664 723 639 694 q 690 818 689 751 l 776 818 m 311 793 l 258 800 l 365 1001 l 453 981 l 311 793 z "},"ự":{"ha":711,"x_min":94,"x_max":776,"o":"m 776 818 q 728 690 776 736 q 607 639 681 643 l 607 0 l 522 0 l 508 67 q 442 14 490 42 q 307 -14 393 -14 q 150 42 206 -14 q 94 210 94 99 l 94 694 l 196 694 l 196 231 q 340 60 196 60 q 426 76 390 60 q 484 110 463 92 q 506 131 506 128 l 506 694 l 592 694 q 664 723 639 694 q 690 818 689 751 l 776 818 m 356 -224 q 313 -207 331 -224 q 293 -160 293 -189 q 313 -112 293 -131 q 356 -96 331 -96 q 400 -112 381 -96 q 418 -160 418 -131 q 400 -207 418 -189 q 356 -224 381 -224 z "},"ừ":{"ha":711,"x_min":94,"x_max":776,"o":"m 776 818 q 728 690 776 736 q 607 639 681 643 l 607 0 l 522 0 l 508 67 q 442 14 490 42 q 307 -14 393 -14 q 150 42 206 -14 q 94 210 94 99 l 94 694 l 196 694 l 196 231 q 340 60 196 60 q 426 76 390 60 q 484 110 463 92 q 506 131 506 128 l 506 694 l 592 694 q 664 723 639 694 q 690 818 689 751 l 776 818 m 400 796 l 254 983 l 340 1006 l 456 807 l 400 796 z "},"ử":{"ha":711,"x_min":94,"x_max":776,"o":"m 776 818 q 728 690 776 736 q 607 639 681 643 l 607 0 l 522 0 l 508 67 q 442 14 490 42 q 307 -14 393 -14 q 150 42 206 -14 q 94 210 94 99 l 94 694 l 196 694 l 196 231 q 340 60 196 60 q 426 76 390 60 q 484 110 463 92 q 506 131 506 128 l 506 694 l 592 694 q 664 723 639 694 q 690 818 689 751 l 776 818 m 328 758 q 326 788 326 768 q 347 814 326 796 q 375 841 365 829 q 385 869 385 853 q 331 925 385 925 q 300 919 314 925 q 278 908 286 914 q 269 901 271 903 l 239 961 q 258 970 243 964 q 294 983 272 976 q 336 989 315 989 q 420 961 386 989 q 454 875 454 933 q 442 834 454 849 q 408 803 431 819 q 388 787 394 793 q 382 771 382 781 l 382 760 l 328 758 z "},"ữ":{"ha":711,"x_min":94,"x_max":776,"o":"m 776 818 q 728 690 776 736 q 607 639 681 643 l 607 0 l 522 0 l 508 67 q 442 14 490 42 q 307 -14 393 -14 q 150 42 206 -14 q 94 210 94 99 l 94 694 l 196 694 l 196 231 q 340 60 196 60 q 426 76 390 60 q 484 110 463 92 q 506 131 506 128 l 506 694 l 592 694 q 664 723 639 694 q 690 818 689 751 l 776 818 m 461 826 q 408 835 433 826 q 350 860 382 844 q 294 883 317 875 q 247 890 271 890 q 205 878 224 890 q 176 853 186 867 q 164 836 167 840 l 132 871 q 149 897 132 874 q 195 939 165 919 q 265 958 225 958 q 321 950 296 958 q 382 924 346 942 q 433 901 413 908 q 476 894 454 894 q 515 903 499 894 q 538 920 531 911 q 547 932 546 929 l 579 897 q 565 876 579 894 q 526 842 551 858 q 461 826 500 826 z "},"ű":{"ha":711,"x_min":94,"x_max":607,"o":"m 276 800 l 229 819 l 292 997 l 364 979 l 276 800 m 456 800 l 408 819 l 472 997 l 543 979 l 456 800 m 307 -14 q 150 42 206 -14 q 94 210 94 99 l 94 694 l 196 694 l 196 231 q 340 60 196 60 q 426 76 390 60 q 484 110 463 92 q 506 131 506 128 l 506 694 l 607 694 l 607 0 l 522 0 l 508 67 q 442 14 490 42 q 307 -14 393 -14 z "},"ū":{"ha":711,"x_min":94,"x_max":607,"o":"m 228 883 l 228 933 l 486 933 l 486 883 l 228 883 m 307 -14 q 150 42 206 -14 q 94 210 94 99 l 94 694 l 196 694 l 196 231 q 340 60 196 60 q 426 76 390 60 q 484 110 463 92 q 506 131 506 128 l 506 694 l 607 694 l 607 0 l 522 0 l 508 67 q 442 14 490 42 q 307 -14 393 -14 z "},"ų":{"ha":711,"x_min":94,"x_max":615,"o":"m 615 -347 q 460 -315 521 -347 q 400 -193 400 -282 q 436 -83 400 -132 q 522 0 472 -35 l 508 67 q 442 14 490 42 q 307 -14 393 -14 q 150 42 206 -14 q 94 210 94 99 l 94 694 l 196 694 l 196 231 q 340 60 196 60 q 426 76 390 60 q 484 110 463 92 q 506 131 506 128 l 506 694 l 607 694 l 607 0 l 582 0 q 507 -71 544 -24 q 469 -187 469 -118 q 509 -278 469 -253 q 615 -303 549 -303 l 615 -347 z "},"ů":{"ha":711,"x_min":94,"x_max":607,"o":"m 354 765 q 265 799 299 765 q 231 894 231 832 q 265 990 231 956 q 354 1025 300 1025 q 442 990 407 1025 q 478 894 478 956 q 444 799 478 832 q 354 765 410 765 m 354 801 q 415 824 392 801 q 438 894 438 847 q 415 965 438 942 q 354 988 392 988 q 293 964 317 988 q 269 894 269 940 q 293 824 269 847 q 354 801 317 801 m 307 -14 q 150 42 206 -14 q 94 210 94 99 l 94 694 l 196 694 l 196 231 q 340 60 196 60 q 426 76 390 60 q 484 110 463 92 q 506 131 506 128 l 506 694 l 607 694 l 607 0 l 522 0 l 508 67 q 442 14 490 42 q 307 -14 393 -14 z "},"ũ":{"ha":711,"x_min":94,"x_max":607,"o":"m 307 -14 q 150 42 206 -14 q 94 210 94 99 l 94 694 l 196 694 l 196 231 q 340 60 196 60 q 426 76 390 60 q 484 110 463 92 q 506 131 506 128 l 506 694 l 607 694 l 607 0 l 522 0 l 508 67 q 442 14 490 42 q 307 -14 393 -14 m 461 826 q 408 835 433 826 q 350 860 382 844 q 294 883 317 875 q 247 890 271 890 q 205 878 224 890 q 176 853 186 867 q 164 836 167 840 l 132 871 q 149 897 132 874 q 195 939 165 919 q 265 958 225 958 q 321 950 296 958 q 382 924 346 942 q 433 901 413 908 q 476 894 454 894 q 515 903 499 894 q 538 920 531 911 q 547 932 546 929 l 579 897 q 565 876 579 894 q 526 842 551 858 q 461 826 500 826 z "},"v":{"ha":604,"x_min":18,"x_max":586,"o":"m 256 0 l 18 694 l 138 694 l 318 110 l 510 694 l 586 694 l 347 0 l 256 0 z "},"w":{"ha":913,"x_min":19,"x_max":894,"o":"m 201 0 l 19 694 l 132 694 l 263 128 l 428 694 l 507 694 l 681 128 l 817 694 l 894 694 l 707 0 l 618 0 l 456 560 l 292 0 l 201 0 z "},"x":{"ha":615,"x_min":17,"x_max":597,"o":"m 17 0 l 247 346 l 28 694 l 147 694 l 318 404 l 497 694 l 579 694 l 364 363 l 597 0 l 479 0 l 293 300 l 100 0 l 17 0 z "},"y":{"ha":624,"x_min":21,"x_max":606,"o":"m 106 -361 q 63 -357 81 -361 q 35 -349 44 -353 q 22 -343 25 -344 l 33 -279 q 54 -287 38 -282 q 90 -292 71 -292 q 197 -223 154 -292 q 293 -8 240 -154 l 21 694 l 140 694 l 346 114 l 532 694 l 606 694 l 365 -11 q 248 -272 306 -182 q 106 -361 190 -361 z "},"ý":{"ha":624,"x_min":21,"x_max":606,"o":"m 336 793 l 283 800 l 390 1001 l 478 981 l 336 793 m 106 -361 q 63 -357 81 -361 q 35 -349 44 -353 q 22 -343 25 -344 l 33 -279 q 54 -287 38 -282 q 90 -292 71 -292 q 197 -223 154 -292 q 293 -8 240 -154 l 21 694 l 140 694 l 346 114 l 532 694 l 606 694 l 365 -11 q 248 -272 306 -182 q 106 -361 190 -361 z "},"ÿ":{"ha":624,"x_min":21,"x_max":606,"o":"m 219 840 q 183 854 201 840 q 168 894 168 869 q 183 936 168 921 q 219 950 201 950 q 257 936 239 950 q 272 894 272 918 q 257 854 272 872 q 219 840 239 840 m 433 840 q 397 854 415 840 q 382 894 382 869 q 397 936 382 921 q 433 950 415 950 q 469 936 451 950 q 486 894 486 919 q 469 854 486 871 q 433 840 451 840 m 106 -361 q 63 -357 81 -361 q 35 -349 44 -353 q 22 -343 25 -344 l 33 -279 q 54 -287 38 -282 q 90 -292 71 -292 q 197 -223 154 -292 q 293 -8 240 -154 l 21 694 l 140 694 l 346 114 l 532 694 l 606 694 l 365 -11 q 248 -272 306 -182 q 106 -361 190 -361 z "},"ỵ":{"ha":624,"x_min":21,"x_max":606,"o":"m 106 -361 q 63 -357 81 -361 q 35 -349 44 -353 q 22 -343 25 -344 l 33 -279 q 54 -287 38 -282 q 90 -292 71 -292 q 197 -223 154 -292 q 293 -8 240 -154 l 21 694 l 140 694 l 346 114 l 532 694 l 606 694 l 365 -11 q 248 -272 306 -182 q 106 -361 190 -361 m 421 -224 q 378 -207 396 -224 q 358 -160 358 -189 q 378 -112 358 -131 q 421 -96 396 -96 q 465 -112 446 -96 q 483 -160 483 -131 q 465 -207 483 -189 q 421 -224 446 -224 z "},"ỳ":{"ha":624,"x_min":21,"x_max":606,"o":"m 106 -361 q 63 -357 81 -361 q 35 -349 44 -353 q 22 -343 25 -344 l 33 -279 q 54 -287 38 -282 q 90 -292 71 -292 q 197 -223 154 -292 q 293 -8 240 -154 l 21 694 l 140 694 l 346 114 l 532 694 l 606 694 l 365 -11 q 248 -272 306 -182 q 106 -361 190 -361 m 357 796 l 211 983 l 297 1006 l 413 807 l 357 796 z "},"ỷ":{"ha":624,"x_min":21,"x_max":606,"o":"m 106 -361 q 63 -357 81 -361 q 35 -349 44 -353 q 22 -343 25 -344 l 33 -279 q 54 -287 38 -282 q 90 -292 71 -292 q 197 -223 154 -292 q 293 -8 240 -154 l 21 694 l 140 694 l 346 114 l 532 694 l 606 694 l 365 -11 q 248 -272 306 -182 q 106 -361 190 -361 m 285 758 q 283 788 283 768 q 304 814 283 796 q 332 841 322 829 q 342 869 342 853 q 288 925 342 925 q 257 919 271 925 q 235 908 243 914 q 226 901 228 903 l 196 961 q 215 970 200 964 q 251 983 229 976 q 293 989 272 989 q 377 961 343 989 q 411 875 411 933 q 399 834 411 849 q 365 803 388 819 q 345 787 351 793 q 339 771 339 781 l 339 760 l 285 758 z "},"ỹ":{"ha":624,"x_min":21,"x_max":606,"o":"m 106 -361 q 63 -357 81 -361 q 35 -349 44 -353 q 22 -343 25 -344 l 33 -279 q 54 -287 38 -282 q 90 -292 71 -292 q 197 -223 154 -292 q 293 -8 240 -154 l 21 694 l 140 694 l 346 114 l 532 694 l 606 694 l 365 -11 q 248 -272 306 -182 q 106 -361 190 -361 m 418 826 q 365 835 390 826 q 307 860 339 844 q 251 883 274 875 q 204 890 228 890 q 162 878 181 890 q 133 853 143 867 q 121 836 124 840 l 89 871 q 106 897 89 874 q 152 939 122 919 q 222 958 182 958 q 278 950 253 958 q 339 924 303 942 q 390 901 369 908 q 433 894 411 894 q 472 903 456 894 q 495 920 488 911 q 504 932 503 929 l 536 897 q 522 876 536 894 q 483 842 508 858 q 418 826 457 826 z "},"z":{"ha":576,"x_min":49,"x_max":521,"o":"m 49 0 l 49 56 l 404 632 l 79 632 l 75 694 l 521 694 l 521 639 l 168 63 l 518 63 l 521 0 l 49 0 z "},"ź":{"ha":576,"x_min":49,"x_max":521,"o":"m 315 793 l 263 800 l 369 1001 l 457 981 l 315 793 m 49 0 l 49 56 l 404 632 l 79 632 l 75 694 l 521 694 l 521 639 l 168 63 l 518 63 l 521 0 l 49 0 z "},"ž":{"ha":576,"x_min":49,"x_max":521,"o":"m 279 796 l 114 967 l 154 1000 l 306 860 l 460 1000 l 499 964 l 333 796 l 279 796 m 49 0 l 49 56 l 404 632 l 79 632 l 75 694 l 521 694 l 521 639 l 168 63 l 518 63 l 521 0 l 49 0 z "},"ż":{"ha":576,"x_min":49,"x_max":521,"o":"m 306 835 q 265 850 281 835 q 247 894 247 868 q 265 939 247 921 q 306 954 281 954 q 347 940 332 954 q 364 894 364 922 q 347 850 364 869 q 306 835 328 835 m 49 0 l 49 56 l 404 632 l 79 632 l 75 694 l 521 694 l 521 639 l 168 63 l 518 63 l 521 0 l 49 0 z "},"ﬁ":{"ha":729,"x_min":60,"x_max":633,"o":"m 132 626 l 60 626 l 60 685 l 132 693 l 132 793 q 183 991 132 928 q 357 1054 235 1054 q 471 1023 422 1054 q 551 950 519 992 q 575 954 561 954 q 617 940 601 954 q 633 894 633 922 q 617 850 633 869 q 575 835 597 835 q 535 850 550 835 q 517 894 517 868 q 521 918 517 908 q 376 990 460 990 q 291 972 322 990 q 246 908 260 953 q 232 782 232 863 l 232 694 l 433 694 l 433 626 l 232 626 l 232 0 l 132 0 l 132 626 m 524 0 l 524 694 l 625 694 l 625 0 l 524 0 z "},"ﬂ":{"ha":726,"x_min":60,"x_max":621,"o":"m 132 626 l 60 626 l 60 685 l 132 693 l 132 793 q 313 1054 132 1054 q 521 999 403 1054 l 521 1039 l 621 1044 l 621 0 l 521 0 l 521 938 q 339 992 413 992 q 256 946 281 992 q 232 782 232 900 l 232 694 l 433 694 l 433 626 l 232 626 l 232 0 l 132 0 l 132 626 z "},"ª":{"ha":540,"x_min":46,"x_max":449,"o":"m 208 431 q 88 467 129 431 q 46 571 46 504 q 358 750 46 728 l 358 774 q 332 867 358 838 q 246 897 306 897 q 176 885 207 897 q 126 857 144 872 q 107 840 107 842 l 85 874 q 105 894 85 876 q 164 928 125 913 q 261 944 203 944 q 403 901 357 944 q 449 767 449 858 l 449 444 l 378 444 l 360 518 q 315 460 350 489 q 208 431 279 431 m 244 482 q 324 509 300 482 q 358 565 347 536 l 358 710 q 195 672 256 700 q 135 579 135 644 q 244 482 135 482 z "},"º":{"ha":582,"x_min":51,"x_max":529,"o":"m 290 431 q 112 498 172 431 q 51 688 51 565 q 112 877 51 810 q 290 944 172 944 q 469 877 408 944 q 529 688 529 810 q 467 499 529 567 q 290 431 406 431 m 290 476 q 435 688 435 476 q 399 844 435 792 q 290 896 364 896 q 146 688 146 896 q 290 476 146 476 z "},"Ԯ":{"ha":856,"x_min":29,"x_max":808,"o":"m 707 0 l 600 0 l 600 836 l 336 836 q 269 206 335 422 q 86 -10 204 -10 q 47 -6 61 -10 q 29 -1 32 -3 l 33 74 q 46 70 36 72 q 68 68 56 68 q 264 903 264 68 l 704 903 l 704 67 l 808 67 l 790 -235 l 722 -235 l 707 0 z "},"Ԩ":{"ha":900,"x_min":-125,"x_max":768,"o":"m 39 -299 q -54 -285 -18 -299 q -108 -258 -90 -272 q -125 -240 -125 -243 l -97 -186 q -84 -199 -97 -187 q -46 -222 -71 -211 q 15 -232 -21 -232 q 109 -187 74 -232 q 144 -19 144 -142 l 144 903 l 250 903 l 250 497 l 663 497 l 663 903 l 768 903 l 768 0 l 663 0 l 663 433 l 250 433 l 250 -19 q 194 -237 250 -175 q 39 -299 138 -299 z "},"А":{"ha":789,"x_min":32,"x_max":758,"o":"m 32 0 l 336 903 l 460 903 l 758 0 l 649 0 l 554 278 l 200 278 l 106 0 l 32 0 m 219 335 l 536 335 l 379 822 l 219 335 z "},"Б":{"ha":740,"x_min":131,"x_max":675,"o":"m 131 903 l 586 903 l 586 836 l 236 836 l 236 539 l 340 539 q 588 474 500 539 q 675 279 675 408 q 592 73 675 146 q 347 0 508 0 l 131 0 l 131 903 m 343 61 q 513 113 457 61 q 568 276 568 165 q 510 432 568 383 q 340 481 453 481 l 236 481 l 236 61 l 343 61 z "},"В":{"ha":753,"x_min":131,"x_max":686,"o":"m 131 903 l 358 903 q 569 841 494 903 q 643 678 643 779 q 606 553 643 603 q 513 474 568 503 q 640 396 593 451 q 686 256 686 340 q 605 67 686 133 q 360 0 524 0 l 131 0 l 131 903 m 400 494 q 462 511 429 494 q 518 567 494 528 q 542 671 542 607 q 490 799 542 756 q 354 842 439 842 l 236 842 l 236 494 l 400 494 m 356 61 q 582 260 582 61 q 533 393 582 349 q 406 438 485 438 l 236 438 l 236 61 l 356 61 z "},"Г":{"ha":568,"x_min":131,"x_max":565,"o":"m 131 0 l 131 903 l 565 903 l 565 836 l 236 836 l 236 0 l 131 0 z "},"Ѓ":{"ha":568,"x_min":131,"x_max":565,"o":"m 131 0 l 131 903 l 565 903 l 565 836 l 236 836 l 236 0 l 131 0 m 338 1001 l 285 1008 l 392 1210 l 479 1189 l 338 1001 z "},"Ґ":{"ha":539,"x_min":131,"x_max":533,"o":"m 131 0 l 131 903 l 453 903 l 468 1042 l 528 1042 l 533 835 l 236 835 l 236 0 l 131 0 z "},"Д":{"ha":849,"x_min":46,"x_max":803,"o":"m 46 67 l 121 67 q 208 373 179 183 q 238 903 238 563 l 697 903 l 697 67 l 803 67 l 786 -235 l 718 -235 l 703 0 l 140 0 l 115 -235 l 53 -235 l 46 67 m 593 67 l 593 836 l 311 836 q 279 358 308 535 q 196 67 250 182 l 593 67 z "},"Е":{"ha":704,"x_min":131,"x_max":647,"o":"m 131 0 l 131 903 l 617 903 l 617 836 l 236 836 l 236 489 l 585 489 l 585 425 l 236 425 l 236 67 l 647 67 l 647 0 l 131 0 z "},"Ѐ":{"ha":704,"x_min":131,"x_max":647,"o":"m 131 0 l 131 903 l 617 903 l 617 836 l 236 836 l 236 489 l 585 489 l 585 425 l 236 425 l 236 67 l 647 67 l 647 0 l 131 0 m 439 1004 l 293 1192 l 379 1214 l 494 1015 l 439 1004 z "},"Ё":{"ha":704,"x_min":131,"x_max":647,"o":"m 131 0 l 131 903 l 617 903 l 617 836 l 236 836 l 236 489 l 585 489 l 585 425 l 236 425 l 236 67 l 647 67 l 647 0 l 131 0 m 288 1049 q 250 1063 268 1049 q 235 1103 235 1078 q 250 1144 235 1129 q 288 1158 268 1158 q 324 1144 306 1158 q 339 1103 339 1126 q 324 1063 339 1081 q 288 1049 306 1049 m 500 1049 q 464 1063 482 1049 q 449 1103 449 1078 q 464 1144 449 1129 q 500 1158 482 1158 q 536 1144 518 1158 q 553 1103 553 1128 q 536 1063 553 1079 q 500 1049 518 1049 z "},"Ж":{"ha":1197,"x_min":58,"x_max":1139,"o":"m 58 0 l 329 492 l 83 903 l 171 903 l 393 519 l 528 519 l 528 903 l 632 903 l 632 521 l 761 521 l 1010 903 l 1097 903 l 829 510 l 1139 0 l 1015 0 l 749 454 l 632 454 l 632 0 l 528 0 l 528 454 l 411 454 l 181 0 l 58 0 z "},"З":{"ha":671,"x_min":28,"x_max":606,"o":"m 303 -14 q 142 17 203 -14 q 54 84 81 49 q 28 128 28 119 l 67 176 q 91 140 67 171 q 165 81 115 108 q 292 54 215 54 q 438 106 386 54 q 490 253 490 157 q 315 432 490 432 l 186 426 l 186 493 l 322 488 q 389 511 356 489 q 444 576 422 533 q 467 679 467 619 q 297 850 467 850 q 207 835 250 850 q 134 803 164 821 q 104 785 104 786 l 92 844 q 125 865 92 846 q 208 899 158 883 q 314 915 258 915 q 508 854 442 915 q 575 688 575 793 q 533 553 575 608 q 429 467 490 497 q 559 396 513 449 q 606 250 606 343 q 569 113 606 172 q 463 19 532 53 q 303 -14 394 -14 z "},"И":{"ha":906,"x_min":131,"x_max":775,"o":"m 131 0 l 131 903 l 236 903 l 236 176 l 229 131 l 231 131 l 669 888 l 676 903 l 775 903 l 775 0 l 671 0 l 671 719 l 676 771 l 675 771 l 238 15 l 231 0 l 131 0 z "},"Й":{"ha":906,"x_min":131,"x_max":775,"o":"m 131 0 l 131 903 l 236 903 l 236 176 l 229 131 l 231 131 l 669 888 l 676 903 l 775 903 l 775 0 l 671 0 l 671 719 l 676 771 l 675 771 l 238 15 l 231 0 l 131 0 m 451 988 q 327 1018 371 988 q 269 1081 283 1049 q 256 1125 256 1114 l 339 1133 l 339 1126 q 340 1115 339 1124 q 347 1096 342 1107 q 451 1042 371 1042 q 558 1097 533 1042 q 564 1116 563 1108 q 565 1126 565 1124 l 565 1133 l 649 1125 q 635 1081 649 1114 q 577 1018 621 1049 q 451 988 533 988 z "},"Ѝ":{"ha":906,"x_min":131,"x_max":775,"o":"m 131 0 l 131 903 l 236 903 l 236 176 l 229 131 l 231 131 l 669 888 l 676 903 l 775 903 l 775 0 l 671 0 l 671 719 l 676 771 l 675 771 l 238 15 l 231 0 l 131 0 m 497 1004 l 351 1192 l 438 1214 l 553 1015 l 497 1004 z "},"Ҋ":{"ha":933,"x_min":131,"x_max":886,"o":"m 714 -235 l 764 0 l 671 0 l 671 719 l 676 771 l 675 771 l 238 15 l 231 0 l 131 0 l 131 903 l 236 903 l 236 176 l 229 131 l 231 131 l 669 888 l 676 903 l 775 903 l 775 67 l 886 67 l 886 47 l 776 -235 l 714 -235 z "},"К":{"ha":833,"x_min":131,"x_max":778,"o":"m 131 0 l 131 903 l 236 903 l 236 411 l 346 508 l 650 903 l 735 903 l 418 500 l 778 0 l 646 0 l 340 419 l 236 332 l 236 0 l 131 0 z "},"Ќ":{"ha":833,"x_min":131,"x_max":778,"o":"m 131 0 l 131 903 l 236 903 l 236 411 l 346 508 l 650 903 l 735 903 l 418 500 l 778 0 l 646 0 l 340 419 l 236 332 l 236 0 l 131 0 m 372 1001 l 319 1008 l 426 1210 l 514 1189 l 372 1001 z "},"Л":{"ha":836,"x_min":29,"x_max":704,"o":"m 86 -10 q 47 -6 61 -10 q 29 -1 32 -3 l 33 74 q 46 70 36 72 q 68 68 56 68 q 264 903 264 68 l 704 903 l 704 0 l 600 0 l 600 836 l 336 836 q 269 206 335 422 q 86 -10 204 -10 z "},"М":{"ha":1160,"x_min":131,"x_max":1029,"o":"m 131 0 l 135 903 l 138 899 l 136 903 l 265 903 l 583 129 l 585 129 l 903 903 l 1025 903 l 1029 0 l 926 0 l 922 774 l 921 774 l 608 0 l 524 0 l 210 774 l 207 0 l 131 0 z "},"Н":{"ha":886,"x_min":131,"x_max":754,"o":"m 131 0 l 131 903 l 236 903 l 236 497 l 649 497 l 649 903 l 754 903 l 754 0 l 649 0 l 649 433 l 236 433 l 236 0 l 131 0 z "},"О":{"ha":908,"x_min":67,"x_max":842,"o":"m 453 -14 q 245 42 332 -14 q 113 202 158 97 q 67 450 67 307 q 113 698 67 593 q 245 859 158 803 q 453 915 332 915 q 661 859 574 915 q 795 698 749 803 q 842 450 842 593 q 795 202 842 307 q 661 42 749 97 q 453 -14 574 -14 m 453 53 q 658 154 586 53 q 729 450 729 256 q 658 746 729 643 q 453 849 586 849 q 250 746 321 849 q 179 450 179 643 q 249 154 179 256 q 453 53 319 53 z "},"П":{"ha":865,"x_min":131,"x_max":733,"o":"m 131 0 l 131 903 l 733 903 l 733 0 l 628 0 l 628 836 l 236 836 l 236 0 l 131 0 z "},"Р":{"ha":689,"x_min":131,"x_max":640,"o":"m 131 903 l 347 903 q 563 831 486 903 q 640 617 640 758 q 599 444 640 511 q 491 347 557 376 q 350 317 425 317 l 236 317 l 236 0 l 131 0 l 131 903 m 335 375 q 529 613 529 375 q 479 785 529 729 q 336 842 429 842 l 236 842 l 236 375 l 335 375 z "},"С":{"ha":792,"x_min":67,"x_max":764,"o":"m 463 -14 q 171 108 275 -14 q 67 443 67 229 q 115 693 67 586 q 251 858 163 800 q 456 915 339 915 q 578 899 519 915 q 679 861 638 882 q 721 839 721 840 l 708 772 q 668 793 708 774 q 574 829 628 813 q 467 846 521 846 q 256 744 332 846 q 179 446 179 642 q 257 154 179 253 q 475 56 335 56 q 604 86 549 56 q 692 151 660 117 q 725 192 725 186 l 764 147 q 728 99 764 140 q 624 22 692 58 q 463 -14 557 -14 z "},"Т":{"ha":640,"x_min":10,"x_max":631,"o":"m 267 0 l 267 836 l 10 836 l 10 903 l 631 903 l 631 836 l 372 836 l 372 0 l 267 0 z "},"У":{"ha":790,"x_min":42,"x_max":751,"o":"m 226 -12 q 167 -6 193 -12 q 128 6 142 0 q 111 15 114 13 l 126 89 q 142 80 129 86 q 176 68 154 74 q 226 63 199 63 q 321 92 279 63 q 403 207 363 122 l 42 903 l 164 903 l 456 318 l 668 903 l 751 903 l 493 242 q 374 44 438 101 q 226 -12 310 -12 z "},"Ў":{"ha":790,"x_min":42,"x_max":751,"o":"m 226 -12 q 167 -6 193 -12 q 128 6 142 0 q 111 15 114 13 l 126 89 q 142 80 129 86 q 176 68 154 74 q 226 63 199 63 q 321 92 279 63 q 403 207 363 122 l 42 903 l 164 903 l 456 318 l 668 903 l 751 903 l 493 242 q 374 44 438 101 q 226 -12 310 -12 m 464 988 q 340 1018 383 988 q 282 1081 296 1049 q 268 1125 268 1114 l 351 1133 l 351 1126 q 353 1115 351 1124 q 360 1096 354 1107 q 464 1042 383 1042 q 571 1097 546 1042 q 576 1116 575 1108 q 578 1126 578 1124 l 578 1133 l 661 1125 q 647 1081 661 1114 q 590 1018 633 1049 q 464 988 546 988 z "},"Ф":{"ha":986,"x_min":49,"x_max":938,"o":"m 440 111 q 151 197 254 114 q 49 450 49 281 q 152 706 49 621 q 440 794 256 792 l 440 903 l 544 903 l 544 794 q 834 708 731 792 q 938 454 938 625 q 834 198 938 282 q 544 111 731 114 l 544 0 l 440 0 l 440 111 m 440 738 q 228 666 297 735 q 158 450 158 597 q 228 239 158 306 q 440 169 297 172 l 440 738 m 544 169 q 758 240 688 172 q 828 454 828 308 q 758 667 828 599 q 544 738 688 735 l 544 169 z "},"Х":{"ha":751,"x_min":25,"x_max":726,"o":"m 25 0 l 314 449 l 36 903 l 164 903 l 388 525 l 621 903 l 708 903 l 432 465 l 726 0 l 597 0 l 360 388 l 358 388 l 118 0 l 25 0 z "},"Ч":{"ha":785,"x_min":96,"x_max":653,"o":"m 549 382 q 518 363 549 379 q 437 333 488 347 q 319 319 386 319 q 96 568 96 319 l 96 903 l 200 903 l 200 583 q 238 435 200 479 q 357 392 275 392 q 476 410 425 392 q 549 444 528 429 l 549 903 l 653 903 l 653 0 l 549 0 l 549 382 z "},"Ц":{"ha":885,"x_min":131,"x_max":838,"o":"m 751 -235 l 736 0 l 131 0 l 131 903 l 236 903 l 236 67 l 628 67 l 628 903 l 733 903 l 733 67 l 838 67 l 819 -235 l 751 -235 z "},"Ш":{"ha":1183,"x_min":131,"x_max":1051,"o":"m 131 0 l 131 903 l 236 903 l 236 67 l 539 67 l 539 903 l 644 903 l 644 67 l 947 67 l 947 903 l 1051 903 l 1051 0 l 131 0 z "},"Щ":{"ha":1203,"x_min":131,"x_max":1149,"o":"m 1064 -235 l 1049 0 l 131 0 l 131 903 l 236 903 l 236 67 l 539 67 l 539 903 l 644 903 l 644 67 l 947 67 l 947 903 l 1051 903 l 1051 67 l 1149 67 l 1132 -235 l 1064 -235 z "},"Џ":{"ha":865,"x_min":131,"x_max":733,"o":"m 400 -293 l 385 0 l 131 0 l 131 903 l 236 903 l 236 67 l 628 67 l 628 903 l 733 903 l 733 0 l 479 0 l 467 -293 l 400 -293 z "},"Ь":{"ha":740,"x_min":131,"x_max":675,"o":"m 131 903 l 236 903 l 236 539 l 343 539 q 588 474 501 539 q 675 279 675 408 q 592 73 675 146 q 349 0 510 0 l 131 0 l 131 903 m 346 61 q 513 115 458 61 q 568 276 568 168 q 510 431 568 382 q 343 481 453 481 l 236 481 l 236 61 l 346 61 z "},"Ъ":{"ha":861,"x_min":10,"x_max":796,"o":"m 251 836 l 10 836 l 10 903 l 357 903 l 357 539 l 464 539 q 709 474 622 539 q 796 279 796 408 q 713 73 796 146 q 469 0 631 0 l 251 0 l 251 836 m 467 61 q 634 115 579 61 q 689 276 689 168 q 631 431 689 382 q 464 481 574 481 l 357 481 l 357 61 l 467 61 z "},"Ы":{"ha":1051,"x_min":131,"x_max":921,"o":"m 131 903 l 236 903 l 236 539 l 343 539 q 588 474 501 539 q 675 279 675 408 q 592 73 675 146 q 349 0 510 0 l 131 0 l 131 903 m 815 0 l 815 903 l 921 903 l 921 0 l 815 0 m 346 61 q 513 115 458 61 q 568 276 568 168 q 510 431 568 382 q 343 481 453 481 l 236 481 l 236 61 l 346 61 z "},"Љ":{"ha":1210,"x_min":29,"x_max":1143,"o":"m 86 -10 q 47 -6 61 -10 q 29 -1 32 -3 l 33 74 q 46 70 36 72 q 68 68 56 68 q 264 903 264 68 l 704 903 l 704 539 l 811 539 q 1056 474 969 539 q 1143 279 1143 408 q 1060 73 1143 146 q 817 0 978 0 l 599 0 l 599 836 l 336 836 q 269 206 335 422 q 86 -10 204 -10 m 814 61 q 981 115 926 61 q 1036 276 1036 168 q 978 431 1036 382 q 811 481 921 481 l 704 481 l 704 61 l 814 61 z "},"Њ":{"ha":1258,"x_min":131,"x_max":1193,"o":"m 131 903 l 236 903 l 236 497 l 649 497 l 649 903 l 754 903 l 754 539 l 861 539 q 1106 474 1019 539 q 1193 279 1193 408 q 1110 73 1193 146 q 867 0 1028 0 l 649 0 l 649 433 l 236 433 l 236 0 l 131 0 l 131 903 m 864 61 q 1031 115 976 61 q 1086 276 1086 168 q 1028 431 1086 382 q 861 481 971 481 l 754 481 l 754 61 l 864 61 z "},"Ѕ":{"ha":681,"x_min":61,"x_max":615,"o":"m 328 -14 q 178 13 238 -14 q 90 69 118 39 q 61 104 61 99 l 96 158 q 122 127 96 154 q 199 77 149 100 q 324 54 250 54 q 461 105 411 54 q 511 231 511 156 q 486 317 511 282 q 424 372 461 351 q 325 419 388 393 q 208 475 253 449 q 133 548 164 501 q 103 667 103 594 q 175 848 103 781 q 368 915 247 915 q 476 898 428 915 q 553 860 524 881 q 582 838 582 840 l 568 776 q 540 799 568 779 q 469 835 513 818 q 374 851 426 851 q 251 808 296 851 q 207 692 207 765 q 231 606 207 640 q 292 551 256 572 q 390 506 329 531 q 508 448 464 475 q 584 372 553 421 q 615 247 615 324 q 580 112 615 171 q 479 19 544 53 q 328 -14 414 -14 z "},"Є":{"ha":799,"x_min":67,"x_max":767,"o":"m 465 -14 q 253 40 343 -14 q 115 195 163 93 q 67 439 67 297 q 114 689 67 581 q 249 856 161 797 q 454 915 336 915 q 576 899 518 915 q 676 861 635 882 q 717 839 717 840 l 703 772 q 664 793 703 774 q 572 829 625 813 q 465 846 519 846 q 261 752 335 846 q 181 475 188 658 l 635 475 l 635 410 l 181 410 q 264 143 186 231 q 478 56 342 56 q 608 86 551 56 q 697 151 664 117 q 729 192 729 186 l 767 147 q 731 99 767 140 q 627 22 694 58 q 465 -14 560 -14 z "},"Э":{"ha":779,"x_min":18,"x_max":714,"o":"m 321 -14 q 158 16 225 -14 q 54 80 90 46 q 18 119 18 114 l 54 176 q 85 141 54 172 q 172 83 117 110 q 300 56 226 56 q 510 148 431 56 q 597 422 590 240 l 154 422 l 154 486 l 597 486 q 525 761 593 675 q 317 847 457 847 q 210 832 258 847 q 132 799 163 817 q 101 778 101 781 l 89 840 q 124 863 89 843 q 212 899 158 882 q 329 915 265 915 q 616 795 518 915 q 714 456 714 675 q 665 208 714 314 q 526 44 615 101 q 321 -14 436 -14 z "},"І":{"ha":368,"x_min":131,"x_max":236,"o":"m 131 0 l 131 903 l 236 903 l 236 0 l 131 0 z "},"Ї":{"ha":368,"x_min":25,"x_max":343,"o":"m 131 0 l 131 903 l 236 903 l 236 0 l 131 0 m 78 1049 q 40 1063 58 1049 q 25 1103 25 1078 q 40 1144 25 1129 q 78 1158 58 1158 q 114 1144 96 1158 q 129 1103 129 1126 q 114 1063 129 1081 q 78 1049 96 1049 m 290 1049 q 254 1063 272 1049 q 239 1103 239 1078 q 254 1144 239 1129 q 290 1158 272 1158 q 326 1144 308 1158 q 343 1103 343 1128 q 326 1063 343 1079 q 290 1049 308 1049 z "},"Ј":{"ha":503,"x_min":8,"x_max":382,"o":"m 172 -14 q 79 -1 115 -14 q 26 27 43 13 q 8 44 8 42 l 36 99 q 49 85 36 97 q 88 63 63 74 q 149 53 113 53 q 242 98 207 53 q 278 265 278 143 l 278 903 l 382 903 l 382 265 q 326 48 382 110 q 172 -14 271 -14 z "},"Ћ":{"ha":931,"x_min":10,"x_max":811,"o":"m 253 839 l 10 839 l 10 903 l 600 903 l 600 839 l 358 839 l 358 453 q 396 488 367 464 q 476 533 425 511 q 593 556 528 556 q 760 500 710 556 q 811 328 811 444 l 811 0 l 706 0 l 706 307 q 691 414 706 376 q 644 467 676 451 q 554 482 611 482 q 437 451 488 482 q 358 390 386 421 l 358 0 l 253 0 l 253 839 z "},"Ю":{"ha":1249,"x_min":131,"x_max":1183,"o":"m 793 -14 q 516 100 618 -14 q 406 415 414 214 l 236 415 l 236 0 l 131 0 l 131 903 l 236 903 l 236 479 l 406 479 q 515 799 413 682 q 793 915 617 915 q 1002 859 914 915 q 1137 698 1090 803 q 1183 450 1183 593 q 1137 203 1183 307 q 1002 42 1090 99 q 793 -14 914 -14 m 793 50 q 998 153 926 50 q 1069 450 1069 257 q 997 747 1069 642 q 793 851 925 851 q 589 747 661 851 q 517 450 517 642 q 589 153 517 257 q 793 50 661 50 z "},"Я":{"ha":760,"x_min":68,"x_max":626,"o":"m 254 376 q 127 465 178 400 q 76 629 76 529 q 113 778 76 717 q 210 872 150 840 q 338 903 269 903 l 626 903 l 626 0 l 522 0 l 522 364 l 343 364 l 175 0 l 68 0 l 254 376 m 522 429 l 522 842 l 342 842 q 265 817 303 842 q 204 746 228 793 q 181 633 181 699 q 203 523 181 569 q 263 453 225 476 q 342 429 300 429 l 522 429 z "},"Ђ":{"ha":885,"x_min":10,"x_max":810,"o":"m 610 -14 q 537 -2 567 -14 q 492 24 507 10 q 476 40 476 38 l 496 86 q 510 73 499 83 q 541 53 521 63 q 588 44 561 44 q 706 225 701 44 l 706 307 q 691 414 706 376 q 644 467 676 451 q 554 482 611 482 q 437 451 488 482 q 358 390 386 421 l 358 0 l 253 0 l 253 839 l 10 839 l 10 903 l 600 903 l 600 839 l 358 839 l 358 453 q 396 488 367 464 q 476 533 425 511 q 593 556 528 556 q 760 500 710 556 q 810 328 810 444 l 810 260 q 756 46 810 106 q 610 -14 703 -14 z "},"Ѣ":{"ha":815,"x_min":10,"x_max":750,"o":"m 206 728 l 10 728 l 10 797 l 206 797 l 206 903 l 311 903 l 311 797 l 585 797 l 585 728 l 311 728 l 311 539 l 429 539 q 668 474 586 539 q 750 279 750 410 q 673 72 750 144 q 436 0 596 0 l 206 0 l 206 728 m 432 61 q 593 113 543 61 q 643 276 643 165 q 591 431 643 383 q 429 479 539 479 l 311 479 l 311 61 l 432 61 z "},"Ѫ":{"ha":993,"x_min":58,"x_max":935,"o":"m 58 68 q 103 342 58 246 q 222 474 149 439 q 401 518 294 510 l 143 903 l 860 903 l 593 518 q 772 474 700 510 q 890 342 844 439 q 935 68 935 246 l 935 0 l 813 0 l 813 76 q 740 366 813 274 q 549 458 667 458 l 549 0 l 444 0 l 444 458 q 241 378 301 458 q 181 114 181 297 l 181 0 l 58 0 l 58 68 m 511 503 l 744 849 l 289 849 l 511 503 z "},"Ѳ":{"ha":908,"x_min":67,"x_max":842,"o":"m 453 915 q 661 859 574 915 q 795 698 749 803 q 842 450 842 593 q 795 202 842 307 q 661 42 749 97 q 453 -14 574 -14 q 245 42 332 -14 q 113 202 158 97 q 67 450 67 307 q 113 698 67 593 q 245 859 158 803 q 453 915 332 915 m 453 849 q 256 753 326 849 q 179 478 185 657 l 729 478 q 652 753 724 657 q 453 849 581 849 m 453 53 q 653 147 582 53 q 729 424 724 242 l 179 424 q 255 147 185 242 q 453 53 325 53 z "},"Ѵ":{"ha":761,"x_min":21,"x_max":808,"o":"m 800 831 q 763 838 782 838 q 678 785 711 838 q 619 640 646 732 l 438 0 l 315 0 l 21 903 l 131 903 l 393 78 l 549 656 q 628 851 585 788 q 747 915 671 915 q 808 906 778 915 l 800 831 z "},"Ғ":{"ha":568,"x_min":47,"x_max":565,"o":"m 565 836 l 236 836 l 236 478 l 419 478 l 419 424 l 236 424 l 236 0 l 131 0 l 131 424 l 47 424 l 47 478 l 131 478 l 131 903 l 565 903 l 565 836 z "},"Ҕ":{"ha":781,"x_min":131,"x_max":715,"o":"m 450 583 q 594 548 536 583 q 683 424 651 513 q 715 179 715 335 q 672 -103 715 4 q 564 -254 628 -210 q 432 -299 500 -299 q 321 -272 363 -299 l 338 -218 q 360 -226 338 -219 q 413 -232 383 -232 q 507 -204 464 -232 q 581 -85 550 -176 q 611 183 611 7 q 585 390 611 318 q 517 486 560 461 q 413 511 474 511 q 236 460 310 511 l 236 0 l 131 0 l 131 903 l 565 903 l 565 836 l 236 836 l 236 522 q 310 563 260 542 q 450 583 360 583 z "},"Җ":{"ha":1165,"x_min":58,"x_max":1179,"o":"m 1099 67 l 1179 67 l 1161 -235 l 1093 -235 l 1078 0 l 1015 0 l 749 454 l 632 454 l 632 0 l 528 0 l 528 454 l 411 454 l 181 0 l 58 0 l 329 492 l 83 903 l 171 903 l 393 519 l 528 519 l 528 903 l 632 903 l 632 521 l 761 521 l 1010 903 l 1097 903 l 829 510 l 1099 67 z "},"Ҙ":{"ha":671,"x_min":28,"x_max":606,"o":"m 606 250 q 542 76 606 146 q 367 -10 479 7 l 350 -235 l 282 -235 l 268 -12 q 128 24 182 -7 q 51 88 75 56 q 28 128 28 121 l 67 176 q 91 140 67 171 q 165 81 115 108 q 292 54 215 54 q 438 106 386 54 q 490 253 490 157 q 315 432 490 432 l 186 426 l 186 493 l 322 488 q 389 511 356 489 q 444 576 422 533 q 467 679 467 619 q 297 850 467 850 q 207 835 250 850 q 134 803 164 821 q 104 785 104 786 l 92 844 q 125 865 92 846 q 208 899 158 883 q 314 915 258 915 q 508 854 442 915 q 575 688 575 793 q 533 553 575 608 q 429 467 490 497 q 559 396 513 449 q 606 250 606 343 z "},"Қ":{"ha":796,"x_min":131,"x_max":810,"o":"m 729 67 l 810 67 l 792 -235 l 724 -235 l 708 0 l 646 0 l 340 419 l 236 332 l 236 0 l 131 0 l 131 903 l 236 903 l 236 411 l 346 508 l 650 903 l 735 903 l 418 500 l 729 67 z "},"Ҝ":{"ha":847,"x_min":131,"x_max":792,"o":"m 432 500 l 792 0 l 660 0 l 354 419 l 342 408 l 342 264 l 294 264 l 294 369 l 236 321 l 236 0 l 131 0 l 131 903 l 236 903 l 236 399 l 294 450 l 294 608 l 342 608 l 342 493 l 360 508 l 664 903 l 749 903 l 432 500 z "},"Ҟ":{"ha":824,"x_min":10,"x_max":796,"o":"m 10 775 l 149 775 l 149 903 l 254 903 l 254 775 l 393 775 l 393 708 l 254 708 l 254 411 l 364 508 l 668 903 l 753 903 l 436 500 l 796 0 l 664 0 l 358 419 l 254 332 l 254 0 l 149 0 l 149 708 l 10 708 l 10 775 z "},"Ҡ":{"ha":969,"x_min":10,"x_max":914,"o":"m 554 500 l 914 0 l 782 0 l 476 419 l 372 332 l 372 0 l 267 0 l 267 836 l 10 836 l 10 903 l 372 903 l 372 411 l 482 508 l 786 903 l 871 903 l 554 500 z "},"Ң":{"ha":886,"x_min":131,"x_max":858,"o":"m 754 67 l 858 67 l 840 -235 l 772 -235 l 757 0 l 649 0 l 649 433 l 236 433 l 236 0 l 131 0 l 131 903 l 236 903 l 236 497 l 649 497 l 649 903 l 754 903 l 754 67 z "},"Ҧ":{"ha":1278,"x_min":131,"x_max":1213,"o":"m 929 -299 q 818 -272 860 -299 l 835 -218 q 858 -226 835 -219 q 910 -232 881 -232 q 1004 -204 961 -232 q 1078 -85 1047 -176 q 1108 183 1108 7 q 1083 390 1108 318 q 1014 486 1057 461 q 910 511 971 511 q 733 460 807 511 l 733 0 l 628 0 l 628 836 l 236 836 l 236 0 l 131 0 l 131 903 l 733 903 l 733 522 q 807 563 757 542 q 947 583 857 583 q 1091 548 1033 583 q 1181 424 1149 513 q 1213 179 1213 335 q 1169 -103 1213 4 q 1061 -254 1125 -210 q 929 -299 997 -299 z "},"Ԥ":{"ha":865,"x_min":131,"x_max":838,"o":"m 733 67 l 838 67 l 819 -235 l 751 -235 l 736 0 l 628 0 l 628 836 l 236 836 l 236 0 l 131 0 l 131 903 l 733 903 l 733 67 z "},"Ҩ":{"ha":950,"x_min":67,"x_max":894,"o":"m 894 47 q 724 -14 828 -14 q 599 13 656 -14 q 528 -8 571 -1 q 446 -14 486 -14 q 249 41 335 -14 q 115 196 163 96 q 67 429 67 296 q 176 797 67 681 q 464 915 285 914 l 464 850 q 247 742 315 850 q 179 429 179 635 q 212 228 179 314 q 304 98 244 143 q 442 53 364 53 q 532 61 497 53 q 451 138 490 85 q 388 263 413 192 q 364 404 364 333 q 406 603 364 525 q 507 717 447 682 q 624 751 567 751 q 808 675 739 751 q 878 432 878 599 q 844 267 878 344 q 763 137 811 190 q 672 58 715 83 q 746 44 710 44 q 868 92 808 44 l 894 47 m 471 407 q 508 220 471 307 q 606 88 546 133 q 717 219 669 126 q 765 431 765 311 q 622 685 765 685 q 512 610 553 685 q 471 407 471 535 z "},"Ҫ":{"ha":792,"x_min":67,"x_max":764,"o":"m 764 147 q 733 104 764 142 q 643 31 701 67 q 503 -12 585 -4 l 486 -235 l 418 -235 l 403 -11 q 155 128 243 8 q 67 443 67 247 q 115 693 67 586 q 251 858 163 800 q 456 915 339 915 q 578 899 519 915 q 679 861 638 882 q 721 839 721 840 l 708 772 q 668 793 708 774 q 574 829 628 813 q 467 846 521 846 q 256 744 332 846 q 179 446 179 642 q 257 154 179 253 q 475 56 335 56 q 604 86 549 56 q 692 151 660 117 q 725 192 725 186 l 764 147 z "},"Ҭ":{"ha":640,"x_min":10,"x_max":631,"o":"m 390 -235 l 375 0 l 267 0 l 267 836 l 10 836 l 10 903 l 631 903 l 631 836 l 372 836 l 372 67 l 476 67 l 458 -235 l 390 -235 z "},"Ү":{"ha":704,"x_min":3,"x_max":701,"o":"m 301 0 l 301 374 l 3 903 l 121 903 l 369 458 l 617 903 l 701 903 l 407 381 l 407 0 l 301 0 z "},"Ұ":{"ha":704,"x_min":3,"x_max":701,"o":"m 701 903 l 413 390 l 539 390 l 539 336 l 407 336 l 407 0 l 301 0 l 301 336 l 167 336 l 167 390 l 292 390 l 3 903 l 121 903 l 369 458 l 617 903 l 701 903 z "},"Ҳ":{"ha":836,"x_min":25,"x_max":789,"o":"m 703 -235 l 688 0 l 597 0 l 360 388 l 358 388 l 118 0 l 25 0 l 314 449 l 36 903 l 164 903 l 388 525 l 621 903 l 708 903 l 432 465 l 683 67 l 789 67 l 771 -235 l 703 -235 z "},"Ҷ":{"ha":785,"x_min":96,"x_max":758,"o":"m 758 67 l 740 -235 l 672 -235 l 657 0 l 549 0 l 549 382 q 518 363 549 379 q 437 333 488 347 q 319 319 386 319 q 96 568 96 319 l 96 903 l 200 903 l 200 583 q 238 435 200 479 q 357 392 275 392 q 476 410 425 392 q 549 444 528 429 l 549 903 l 653 903 l 653 67 l 758 67 z "},"Ҹ":{"ha":785,"x_min":96,"x_max":653,"o":"m 653 903 l 653 0 l 549 0 l 549 382 q 527 369 544 379 q 478 346 510 358 q 403 326 446 333 l 403 185 l 356 185 l 356 321 q 319 319 344 319 q 96 568 96 319 l 96 903 l 200 903 l 200 583 q 237 435 200 479 q 356 392 274 392 l 356 529 l 403 529 l 403 394 q 492 416 454 400 q 549 444 531 432 l 549 903 l 653 903 z "},"Һ":{"ha":785,"x_min":132,"x_max":689,"o":"m 236 521 q 267 540 236 524 q 348 569 297 556 q 465 583 399 583 q 689 335 689 583 l 689 0 l 585 0 l 585 319 q 547 467 585 424 q 428 511 510 511 q 308 492 360 511 q 236 458 257 474 l 236 0 l 132 0 l 132 903 l 236 903 l 236 521 z "},"Ԧ":{"ha":819,"x_min":131,"x_max":792,"o":"m 690 0 l 583 0 l 583 319 q 546 467 583 424 q 426 511 508 511 q 307 492 358 511 q 235 458 256 474 l 235 0 l 131 0 l 131 903 l 235 903 l 235 521 q 265 540 235 524 q 347 569 296 556 q 464 583 397 583 q 688 335 688 583 l 688 67 l 792 67 l 774 -235 l 706 -235 l 690 0 z "},"Ҽ":{"ha":1001,"x_min":0,"x_max":935,"o":"m 328 410 q 411 143 333 231 q 625 56 489 56 q 755 86 699 56 q 844 151 811 117 q 876 192 876 186 l 914 147 q 878 99 914 140 q 774 22 842 58 q 613 -14 707 -14 q 326 99 432 -14 q 214 413 219 211 q 83 438 129 418 q 18 494 36 458 q 0 588 0 529 l 79 606 q 92 539 82 564 q 131 498 103 514 q 214 476 160 482 q 266 706 219 607 q 393 860 313 806 q 578 915 474 915 q 774 852 693 915 q 894 681 854 789 q 935 439 935 572 l 935 410 l 328 410 m 578 849 q 399 749 464 849 q 328 475 335 650 l 822 475 q 753 750 815 651 q 578 849 692 849 z "},"Ҿ":{"ha":1001,"x_min":0,"x_max":935,"o":"m 546 -8 q 307 120 394 11 q 214 413 219 229 q 83 438 129 418 q 18 494 36 458 q 0 588 0 529 l 79 606 q 92 539 82 564 q 131 498 103 514 q 214 476 160 482 q 266 706 219 607 q 393 860 313 806 q 578 915 474 915 q 774 852 693 915 q 894 681 854 789 q 935 439 935 572 l 935 410 l 328 410 q 411 143 333 231 q 625 56 489 56 q 755 86 699 56 q 844 151 811 117 q 876 192 876 186 l 914 147 q 881 103 914 142 q 786 28 847 64 q 639 -12 725 -7 l 628 -293 l 561 -293 l 546 -8 m 578 849 q 399 749 464 849 q 328 475 335 650 l 822 475 q 753 750 815 651 q 578 849 692 849 z "},"Ӏ":{"ha":368,"x_min":131,"x_max":236,"o":"m 131 0 l 131 903 l 236 903 l 236 0 l 131 0 z "},"Ӂ":{"ha":1197,"x_min":58,"x_max":1139,"o":"m 58 0 l 329 492 l 83 903 l 171 903 l 393 519 l 528 519 l 528 903 l 632 903 l 632 521 l 761 521 l 1010 903 l 1097 903 l 829 510 l 1139 0 l 1015 0 l 749 454 l 632 454 l 632 0 l 528 0 l 528 454 l 411 454 l 181 0 l 58 0 m 581 988 q 456 1018 500 988 q 399 1081 413 1049 q 385 1125 385 1114 l 468 1133 l 468 1126 q 469 1115 468 1124 q 476 1096 471 1107 q 581 1042 500 1042 q 688 1097 663 1042 q 693 1116 692 1108 q 694 1126 694 1124 l 694 1133 l 778 1125 q 764 1081 778 1114 q 706 1018 750 1049 q 581 988 663 988 z "},"Ӄ":{"ha":785,"x_min":131,"x_max":757,"o":"m 625 -268 q 672 -124 672 -231 q 596 100 672 -42 q 340 419 519 242 l 236 332 l 236 0 l 131 0 l 131 903 l 236 903 l 236 411 l 346 508 l 650 903 l 735 903 l 418 500 q 682 155 607 296 q 757 -93 757 14 q 738 -199 757 -151 q 665 -299 719 -246 l 625 -268 z "},"Ӆ":{"ha":863,"x_min":29,"x_max":815,"o":"m 693 0 l 600 0 l 600 836 l 336 836 q 269 206 335 422 q 86 -10 204 -10 q 47 -6 61 -10 q 29 -1 32 -3 l 33 74 q 46 70 36 72 q 68 68 56 68 q 264 903 264 68 l 704 903 l 704 67 l 815 67 l 815 47 l 706 -235 l 643 -235 l 693 0 z "},"Ӈ":{"ha":886,"x_min":131,"x_max":754,"o":"m 543 -299 q 450 -285 486 -299 q 397 -258 414 -272 q 379 -240 379 -243 l 407 -186 q 420 -199 407 -187 q 458 -222 433 -211 q 519 -232 483 -232 q 613 -187 578 -232 q 649 -19 649 -142 l 649 433 l 236 433 l 236 0 l 131 0 l 131 903 l 236 903 l 236 497 l 649 497 l 649 903 l 754 903 l 754 -19 q 698 -237 754 -175 q 543 -299 642 -299 z "},"Ӊ":{"ha":913,"x_min":131,"x_max":865,"o":"m 693 -235 l 743 0 l 649 0 l 649 433 l 236 433 l 236 0 l 131 0 l 131 903 l 236 903 l 236 497 l 649 497 l 649 903 l 754 903 l 754 67 l 865 67 l 865 47 l 756 -235 l 693 -235 z "},"Ӌ":{"ha":785,"x_min":96,"x_max":758,"o":"m 758 67 l 740 -235 l 672 -235 l 657 0 l 549 0 l 549 382 q 518 363 549 379 q 437 333 488 347 q 319 319 386 319 q 96 568 96 319 l 96 903 l 200 903 l 200 583 q 238 435 200 479 q 357 392 275 392 q 476 410 425 392 q 549 444 528 429 l 549 903 l 653 903 l 653 67 l 758 67 z "},"Ӎ":{"ha":1188,"x_min":131,"x_max":1140,"o":"m 968 -235 l 1018 0 l 926 0 l 922 774 l 921 774 l 608 0 l 524 0 l 210 774 l 207 0 l 131 0 l 135 903 l 138 899 l 136 903 l 265 903 l 583 129 l 585 129 l 903 903 l 1025 903 l 1029 67 l 1140 67 l 1140 47 l 1031 -235 l 968 -235 z "},"Ӑ":{"ha":789,"x_min":32,"x_max":758,"o":"m 32 0 l 336 903 l 460 903 l 758 0 l 649 0 l 554 278 l 200 278 l 106 0 l 32 0 m 219 335 l 536 335 l 379 822 l 219 335 m 393 988 q 269 1018 313 988 q 211 1081 225 1049 q 197 1125 197 1114 l 281 1133 l 281 1126 q 282 1115 281 1124 q 289 1096 283 1107 q 393 1042 313 1042 q 500 1097 475 1042 q 506 1116 504 1108 q 507 1126 507 1124 l 507 1133 l 590 1125 q 576 1081 590 1114 q 519 1018 563 1049 q 393 988 475 988 z "},"Ӓ":{"ha":789,"x_min":32,"x_max":758,"o":"m 32 0 l 336 903 l 460 903 l 758 0 l 649 0 l 554 278 l 200 278 l 106 0 l 32 0 m 219 335 l 536 335 l 379 822 l 219 335 m 288 1049 q 250 1063 268 1049 q 235 1103 235 1078 q 250 1144 235 1129 q 288 1158 268 1158 q 324 1144 306 1158 q 339 1103 339 1126 q 324 1063 339 1081 q 288 1049 306 1049 m 500 1049 q 464 1063 482 1049 q 449 1103 449 1078 q 464 1144 449 1129 q 500 1158 482 1158 q 536 1144 518 1158 q 553 1103 553 1128 q 536 1063 553 1079 q 500 1049 518 1049 z "},"Ӗ":{"ha":704,"x_min":131,"x_max":647,"o":"m 131 0 l 131 903 l 617 903 l 617 836 l 236 836 l 236 489 l 585 489 l 585 425 l 236 425 l 236 67 l 647 67 l 647 0 l 131 0 m 393 988 q 269 1018 313 988 q 211 1081 225 1049 q 197 1125 197 1114 l 281 1133 l 281 1126 q 282 1115 281 1124 q 289 1096 283 1107 q 393 1042 313 1042 q 500 1097 475 1042 q 506 1116 504 1108 q 507 1126 507 1124 l 507 1133 l 590 1125 q 576 1081 590 1114 q 519 1018 563 1049 q 393 988 475 988 z "},"Ә":{"ha":822,"x_min":67,"x_max":756,"o":"m 399 915 q 659 795 563 915 q 756 443 756 675 q 715 203 756 306 q 597 43 674 100 q 415 -14 519 -14 q 158 92 249 -14 q 67 394 67 199 q 70 451 67 429 q 75 478 74 472 l 643 478 q 577 756 644 664 q 385 849 510 849 q 251 818 308 849 q 139 724 193 788 l 88 767 q 224 878 153 840 q 399 915 294 915 m 171 401 q 169 389 171 399 q 168 368 168 379 q 233 134 168 215 q 404 53 297 53 q 576 138 518 53 q 642 401 635 224 l 171 401 z "},"Ӛ":{"ha":822,"x_min":67,"x_max":756,"o":"m 399 915 q 659 795 563 915 q 756 443 756 675 q 715 203 756 306 q 597 43 674 100 q 415 -14 519 -14 q 158 92 249 -14 q 67 394 67 199 q 70 451 67 429 q 75 478 74 472 l 643 478 q 577 756 644 664 q 385 849 510 849 q 251 818 308 849 q 139 724 193 788 l 88 767 q 224 878 153 840 q 399 915 294 915 m 171 401 q 169 389 171 399 q 168 368 168 379 q 233 134 168 215 q 404 53 297 53 q 576 138 518 53 q 642 401 635 224 l 171 401 m 299 1049 q 261 1063 279 1049 q 246 1103 246 1078 q 261 1144 246 1129 q 299 1158 279 1158 q 335 1144 317 1158 q 350 1103 350 1126 q 335 1063 350 1081 q 299 1049 317 1049 m 511 1049 q 475 1063 493 1049 q 460 1103 460 1078 q 475 1144 460 1129 q 511 1158 493 1158 q 547 1144 529 1158 q 564 1103 564 1128 q 547 1063 564 1079 q 511 1049 529 1049 z "},"Ӝ":{"ha":1197,"x_min":58,"x_max":1139,"o":"m 58 0 l 329 492 l 83 903 l 171 903 l 393 519 l 528 519 l 528 903 l 632 903 l 632 521 l 761 521 l 1010 903 l 1097 903 l 829 510 l 1139 0 l 1015 0 l 749 454 l 632 454 l 632 0 l 528 0 l 528 454 l 411 454 l 181 0 l 58 0 m 475 1049 q 438 1063 456 1049 q 422 1103 422 1078 q 438 1144 422 1129 q 475 1158 456 1158 q 511 1144 493 1158 q 526 1103 526 1126 q 511 1063 526 1081 q 475 1049 493 1049 m 688 1049 q 651 1063 669 1049 q 636 1103 636 1078 q 651 1144 636 1129 q 688 1158 669 1158 q 724 1144 706 1158 q 740 1103 740 1128 q 724 1063 740 1079 q 688 1049 706 1049 z "},"Ӟ":{"ha":671,"x_min":28,"x_max":606,"o":"m 303 -14 q 142 17 203 -14 q 54 84 81 49 q 28 128 28 119 l 67 176 q 91 140 67 171 q 165 81 115 108 q 292 54 215 54 q 438 106 386 54 q 490 253 490 157 q 315 432 490 432 l 186 426 l 186 493 l 322 488 q 389 511 356 489 q 444 576 422 533 q 467 679 467 619 q 297 850 467 850 q 207 835 250 850 q 134 803 164 821 q 104 785 104 786 l 92 844 q 125 865 92 846 q 208 899 158 883 q 314 915 258 915 q 508 854 442 915 q 575 688 575 793 q 533 553 575 608 q 429 467 490 497 q 559 396 513 449 q 606 250 606 343 q 569 113 606 172 q 463 19 532 53 q 303 -14 394 -14 m 201 1049 q 164 1063 182 1049 q 149 1103 149 1078 q 164 1144 149 1129 q 201 1158 182 1158 q 238 1144 219 1158 q 253 1103 253 1126 q 238 1063 253 1081 q 201 1049 219 1049 m 414 1049 q 378 1063 396 1049 q 363 1103 363 1078 q 378 1144 363 1129 q 414 1158 396 1158 q 450 1144 432 1158 q 467 1103 467 1128 q 450 1063 467 1079 q 414 1049 432 1049 z "},"Ӡ":{"ha":678,"x_min":35,"x_max":613,"o":"m 376 519 q 547 441 482 504 q 613 268 613 378 q 576 126 613 190 q 470 24 539 61 q 310 -14 401 -14 q 149 17 210 -14 q 61 84 88 49 q 35 128 35 119 l 74 176 q 98 140 74 171 q 172 81 122 108 q 299 54 222 54 q 444 114 390 54 q 497 271 497 174 q 449 417 497 367 q 308 468 400 467 l 186 463 l 186 529 l 283 525 l 486 836 l 79 836 l 79 903 l 601 903 l 601 846 l 376 519 z "},"Ӣ":{"ha":906,"x_min":131,"x_max":775,"o":"m 131 0 l 131 903 l 236 903 l 236 176 l 229 131 l 231 131 l 669 888 l 676 903 l 775 903 l 775 0 l 671 0 l 671 719 l 676 771 l 675 771 l 238 15 l 231 0 l 131 0 m 324 1092 l 324 1142 l 582 1142 l 582 1092 l 324 1092 z "},"Ӥ":{"ha":906,"x_min":131,"x_max":775,"o":"m 131 0 l 131 903 l 236 903 l 236 176 l 229 131 l 231 131 l 669 888 l 676 903 l 775 903 l 775 0 l 671 0 l 671 719 l 676 771 l 675 771 l 238 15 l 231 0 l 131 0 m 346 1049 q 308 1063 326 1049 q 293 1103 293 1078 q 308 1144 293 1129 q 346 1158 326 1158 q 382 1144 364 1158 q 397 1103 397 1126 q 382 1063 397 1081 q 346 1049 364 1049 m 558 1049 q 522 1063 540 1049 q 507 1103 507 1078 q 522 1144 507 1129 q 558 1158 540 1158 q 594 1144 576 1158 q 611 1103 611 1128 q 594 1063 611 1079 q 558 1049 576 1049 z "},"Ӧ":{"ha":908,"x_min":67,"x_max":842,"o":"m 453 -14 q 245 42 332 -14 q 113 202 158 97 q 67 450 67 307 q 113 698 67 593 q 245 859 158 803 q 453 915 332 915 q 661 859 574 915 q 795 698 749 803 q 842 450 842 593 q 795 202 842 307 q 661 42 749 97 q 453 -14 574 -14 m 453 53 q 658 154 586 53 q 729 450 729 256 q 658 746 729 643 q 453 849 586 849 q 250 746 321 849 q 179 450 179 643 q 249 154 179 256 q 453 53 319 53 m 347 1049 q 310 1063 328 1049 q 294 1103 294 1078 q 310 1144 294 1129 q 347 1158 328 1158 q 383 1144 365 1158 q 399 1103 399 1126 q 383 1063 399 1081 q 347 1049 365 1049 m 560 1049 q 524 1063 542 1049 q 508 1103 508 1078 q 524 1144 508 1129 q 560 1158 542 1158 q 596 1144 578 1158 q 613 1103 613 1128 q 596 1063 613 1079 q 560 1049 578 1049 z "},"Ө":{"ha":908,"x_min":67,"x_max":842,"o":"m 453 915 q 661 859 574 915 q 795 698 749 803 q 842 450 842 593 q 795 202 842 307 q 661 42 749 97 q 453 -14 574 -14 q 245 42 332 -14 q 113 202 158 97 q 67 450 67 307 q 113 698 67 593 q 245 859 158 803 q 453 915 332 915 m 453 849 q 256 753 326 849 q 179 478 185 657 l 729 478 q 652 753 724 657 q 453 849 581 849 m 453 53 q 653 147 582 53 q 729 424 724 242 l 179 424 q 255 147 185 242 q 453 53 325 53 z "},"Ӫ":{"ha":908,"x_min":67,"x_max":842,"o":"m 453 915 q 661 859 574 915 q 795 698 749 803 q 842 450 842 593 q 795 202 842 307 q 661 42 749 97 q 453 -14 574 -14 q 245 42 332 -14 q 113 202 158 97 q 67 450 67 307 q 113 698 67 593 q 245 859 158 803 q 453 915 332 915 m 453 849 q 256 753 326 849 q 179 478 185 657 l 729 478 q 652 753 724 657 q 453 849 581 849 m 453 53 q 653 147 582 53 q 729 424 724 242 l 179 424 q 255 147 185 242 q 453 53 325 53 m 347 1049 q 310 1063 328 1049 q 294 1103 294 1078 q 310 1144 294 1129 q 347 1158 328 1158 q 383 1144 365 1158 q 399 1103 399 1126 q 383 1063 399 1081 q 347 1049 365 1049 m 560 1049 q 524 1063 542 1049 q 508 1103 508 1078 q 524 1144 508 1129 q 560 1158 542 1158 q 596 1144 578 1158 q 613 1103 613 1128 q 596 1063 613 1079 q 560 1049 578 1049 z "},"Ӭ":{"ha":779,"x_min":18,"x_max":714,"o":"m 321 -14 q 158 16 225 -14 q 54 80 90 46 q 18 119 18 114 l 54 176 q 85 141 54 172 q 172 83 117 110 q 300 56 226 56 q 510 148 431 56 q 597 422 590 240 l 154 422 l 154 486 l 597 486 q 525 761 593 675 q 317 847 457 847 q 210 832 258 847 q 132 799 163 817 q 101 778 101 781 l 89 840 q 124 863 89 843 q 212 899 158 882 q 329 915 265 915 q 616 795 518 915 q 714 456 714 675 q 665 208 714 314 q 526 44 615 101 q 321 -14 436 -14 m 242 1049 q 204 1063 222 1049 q 189 1103 189 1078 q 204 1144 189 1129 q 242 1158 222 1158 q 278 1144 260 1158 q 293 1103 293 1126 q 278 1063 293 1081 q 242 1049 260 1049 m 454 1049 q 418 1063 436 1049 q 403 1103 403 1078 q 418 1144 403 1129 q 454 1158 436 1158 q 490 1144 472 1158 q 507 1103 507 1128 q 490 1063 507 1079 q 454 1049 472 1049 z "},"Ӯ":{"ha":790,"x_min":42,"x_max":751,"o":"m 226 -12 q 167 -6 193 -12 q 128 6 142 0 q 111 15 114 13 l 126 89 q 142 80 129 86 q 176 68 154 74 q 226 63 199 63 q 321 92 279 63 q 403 207 363 122 l 42 903 l 164 903 l 456 318 l 668 903 l 751 903 l 493 242 q 374 44 438 101 q 226 -12 310 -12 m 336 1092 l 336 1142 l 594 1142 l 594 1092 l 336 1092 z "},"Ӱ":{"ha":790,"x_min":42,"x_max":751,"o":"m 226 -12 q 167 -6 193 -12 q 128 6 142 0 q 111 15 114 13 l 126 89 q 142 80 129 86 q 176 68 154 74 q 226 63 199 63 q 321 92 279 63 q 403 207 363 122 l 42 903 l 164 903 l 456 318 l 668 903 l 751 903 l 493 242 q 374 44 438 101 q 226 -12 310 -12 m 358 1049 q 321 1063 339 1049 q 306 1103 306 1078 q 321 1144 306 1129 q 358 1158 339 1158 q 394 1144 376 1158 q 410 1103 410 1126 q 394 1063 410 1081 q 358 1049 376 1049 m 571 1049 q 535 1063 553 1049 q 519 1103 519 1078 q 535 1144 519 1129 q 571 1158 553 1158 q 607 1144 589 1158 q 624 1103 624 1128 q 607 1063 624 1079 q 571 1049 589 1049 z "},"Ӳ":{"ha":790,"x_min":42,"x_max":751,"o":"m 226 -12 q 167 -6 193 -12 q 128 6 142 0 q 111 15 114 13 l 126 89 q 142 80 129 86 q 176 68 154 74 q 226 63 199 63 q 321 92 279 63 q 403 207 363 122 l 42 903 l 164 903 l 456 318 l 668 903 l 751 903 l 493 242 q 374 44 438 101 q 226 -12 310 -12 m 389 1008 l 342 1028 l 404 1206 l 476 1188 l 389 1008 m 568 1008 l 521 1028 l 585 1206 l 656 1188 l 568 1008 z "},"Ӵ":{"ha":785,"x_min":96,"x_max":653,"o":"m 549 382 q 518 363 549 379 q 437 333 488 347 q 319 319 386 319 q 96 568 96 319 l 96 903 l 200 903 l 200 583 q 238 435 200 479 q 357 392 275 392 q 476 410 425 392 q 549 444 528 429 l 549 903 l 653 903 l 653 0 l 549 0 l 549 382 m 265 1049 q 228 1063 246 1049 q 213 1103 213 1078 q 228 1144 213 1129 q 265 1158 246 1158 q 301 1144 283 1158 q 317 1103 317 1126 q 301 1063 317 1081 q 265 1049 283 1049 m 478 1049 q 442 1063 460 1049 q 426 1103 426 1078 q 442 1144 426 1129 q 478 1158 460 1158 q 514 1144 496 1158 q 531 1103 531 1128 q 514 1063 531 1079 q 478 1049 496 1049 z "},"Ӷ":{"ha":568,"x_min":131,"x_max":565,"o":"m 565 836 l 236 836 l 236 67 l 340 67 l 322 -235 l 254 -235 l 239 0 l 131 0 l 131 903 l 565 903 l 565 836 z "},"Ӹ":{"ha":1051,"x_min":131,"x_max":921,"o":"m 131 903 l 236 903 l 236 539 l 343 539 q 588 474 501 539 q 675 279 675 408 q 592 73 675 146 q 349 0 510 0 l 131 0 l 131 903 m 815 0 l 815 903 l 921 903 l 921 0 l 815 0 m 346 61 q 513 115 458 61 q 568 276 568 168 q 510 431 568 382 q 343 481 453 481 l 236 481 l 236 61 l 346 61 m 419 1049 q 382 1063 400 1049 q 367 1103 367 1078 q 382 1144 367 1129 q 419 1158 400 1158 q 456 1144 438 1158 q 471 1103 471 1126 q 456 1063 471 1081 q 419 1049 438 1049 m 632 1049 q 596 1063 614 1049 q 581 1103 581 1078 q 596 1144 581 1129 q 632 1158 614 1158 q 668 1144 650 1158 q 685 1103 685 1128 q 668 1063 685 1079 q 632 1049 650 1049 z "},"Ӻ":{"ha":660,"x_min":14,"x_max":642,"o":"m 215 -244 q 153 -233 189 -244 l 153 -172 q 213 -181 174 -181 q 274 -147 249 -181 q 299 0 299 -112 l 146 0 l 146 426 l 14 426 l 14 490 l 146 490 l 146 903 l 642 903 l 642 836 l 251 836 l 251 490 l 497 490 l 497 426 l 251 426 l 251 67 l 394 67 l 394 4 q 344 -187 394 -129 q 215 -244 293 -244 z "},"Ӽ":{"ha":722,"x_min":25,"x_max":708,"o":"m 564 -268 q 611 -144 611 -218 q 556 54 611 -68 q 360 388 501 176 l 118 0 l 25 0 l 314 449 l 36 903 l 164 903 l 388 525 l 621 903 l 708 903 l 432 465 q 594 198 544 285 q 669 39 643 111 q 696 -104 696 -33 q 677 -201 696 -154 q 604 -299 658 -247 l 564 -268 z "},"Ӿ":{"ha":751,"x_min":25,"x_max":726,"o":"m 290 488 l 36 903 l 164 903 l 388 525 l 621 903 l 708 903 l 446 488 l 619 488 l 619 424 l 458 424 l 726 0 l 597 0 l 360 388 l 358 388 l 118 0 l 25 0 l 297 424 l 126 424 l 126 488 l 290 488 z "},"Ԑ":{"ha":689,"x_min":83,"x_max":661,"o":"m 381 -14 q 162 53 240 -14 q 83 236 83 119 q 131 384 83 329 q 260 457 178 439 q 155 540 196 486 q 114 674 114 593 q 181 848 114 781 q 375 915 249 915 q 481 899 431 915 q 564 865 531 883 q 597 844 597 846 l 585 785 q 555 803 585 786 q 482 835 525 821 q 392 850 439 850 q 265 801 307 850 q 222 665 222 751 q 265 536 222 583 q 367 488 307 489 l 503 493 l 503 426 l 374 432 q 242 379 285 431 q 199 239 199 328 q 392 54 199 54 q 504 77 456 54 q 582 129 553 100 q 622 183 611 158 l 661 135 q 618 79 650 114 q 525 15 586 44 q 381 -14 464 -14 z "},"Ԓ":{"ha":836,"x_min":29,"x_max":704,"o":"m 494 -299 q 401 -285 438 -299 q 348 -258 365 -272 q 331 -240 331 -243 l 358 -186 q 372 -199 358 -187 q 410 -222 385 -211 q 471 -232 435 -232 q 565 -187 529 -232 q 600 -19 600 -142 l 600 836 l 336 836 q 269 206 335 422 q 86 -10 204 -10 q 47 -6 61 -10 q 29 -1 32 -3 l 33 74 q 46 70 36 72 q 68 68 56 68 q 264 903 264 68 l 704 903 l 704 -19 q 649 -237 704 -175 q 494 -299 593 -299 z "},"Ԛ":{"ha":908,"x_min":67,"x_max":842,"o":"m 708 -221 q 547 -162 626 -221 q 418 -12 467 -104 q 159 122 251 -1 q 67 450 67 244 q 113 698 67 593 q 245 859 158 803 q 453 915 332 915 q 661 860 574 915 q 795 701 749 804 q 842 454 842 597 q 758 138 842 261 q 525 -8 675 15 q 623 -119 571 -76 q 729 -162 675 -162 q 775 -154 751 -162 l 782 -207 q 708 -221 749 -221 m 453 53 q 658 155 586 53 q 729 450 729 257 q 657 745 729 642 q 453 849 585 849 q 250 745 321 849 q 179 450 179 642 q 250 155 179 257 q 453 53 321 53 z "},"Ԝ":{"ha":1178,"x_min":21,"x_max":1154,"o":"m 269 0 l 21 903 l 132 903 l 338 121 l 558 903 l 651 903 l 876 122 l 1076 903 l 1154 903 l 911 0 l 814 0 l 589 769 l 367 0 l 269 0 z "},"Ҍ":{"ha":758,"x_min":10,"x_max":693,"o":"m 149 775 l 149 903 l 254 903 l 254 775 l 393 775 l 393 708 l 254 708 l 254 539 l 361 539 q 606 474 519 539 q 693 279 693 408 q 610 73 693 146 q 367 0 528 0 l 149 0 l 149 708 l 10 708 l 10 775 l 149 775 m 364 61 q 531 115 476 61 q 586 276 586 168 q 528 431 586 382 q 361 481 471 481 l 254 481 l 254 61 l 364 61 z "},"Ҏ":{"ha":689,"x_min":131,"x_max":640,"o":"m 131 903 l 347 903 q 563 831 486 903 q 640 617 640 758 q 521 363 640 439 l 601 244 l 550 208 l 463 335 q 350 317 410 317 l 236 317 l 236 0 l 131 0 l 131 903 m 475 428 q 529 613 529 489 q 479 785 529 729 q 336 842 429 842 l 236 842 l 236 375 l 335 375 q 424 392 385 375 l 344 510 l 396 544 l 475 428 z "},"а":{"ha":663,"x_min":44,"x_max":633,"o":"m 247 -14 q 100 31 156 -14 q 44 157 44 76 q 438 403 44 361 l 438 476 q 406 611 438 575 q 293 647 374 647 q 219 634 257 647 q 156 606 182 621 q 124 588 131 592 l 113 644 q 148 665 119 650 q 220 694 176 681 q 308 708 264 708 q 483 658 428 708 q 539 482 539 608 l 539 142 q 549 67 539 86 q 575 47 560 47 q 606 52 588 47 q 629 60 624 57 l 633 13 q 586 -3 622 8 q 525 -14 550 -14 q 469 9 489 -14 q 446 90 450 32 l 444 90 q 422 58 444 85 q 356 9 400 32 q 247 -14 313 -14 m 278 47 q 364 69 328 47 q 419 118 400 92 q 438 149 438 144 l 438 351 q 230 297 311 338 q 149 169 149 257 q 183 78 149 110 q 278 47 218 47 z "},"б":{"ha":701,"x_min":58,"x_max":650,"o":"m 354 -14 q 132 88 206 -14 q 58 368 58 189 q 81 700 58 569 q 177 915 104 831 q 393 1021 250 1000 l 581 1047 l 585 947 l 421 928 q 244 865 308 915 q 151 726 179 815 q 121 496 124 636 l 128 496 q 165 590 138 542 q 244 674 193 639 q 371 708 296 708 q 578 615 506 708 q 650 350 650 521 q 572 83 650 179 q 354 -14 494 -14 m 354 47 q 497 123 451 47 q 543 350 543 199 q 497 575 543 501 q 354 649 451 649 q 213 570 261 649 q 165 367 165 492 q 211 126 165 204 q 354 47 257 47 z "},"в":{"ha":647,"x_min":104,"x_max":596,"o":"m 104 694 l 338 694 q 514 646 458 694 q 569 514 569 597 q 535 417 569 453 q 451 361 501 381 q 555 304 514 346 q 596 201 596 263 q 537 54 596 108 q 333 0 478 0 l 104 0 l 104 694 m 353 379 q 385 386 353 376 q 444 424 418 396 q 469 507 469 453 q 336 639 469 639 l 204 639 l 204 379 l 353 379 m 332 56 q 458 97 422 56 q 493 207 493 139 q 456 299 493 264 q 344 335 418 335 l 204 335 l 204 56 l 332 56 z "},"г":{"ha":489,"x_min":104,"x_max":464,"o":"m 104 0 l 104 694 l 464 694 l 464 629 l 204 629 l 204 0 l 104 0 z "},"ѓ":{"ha":489,"x_min":104,"x_max":464,"o":"m 104 0 l 104 694 l 464 694 l 464 629 l 204 629 l 204 0 l 104 0 m 269 793 l 217 800 l 324 1001 l 411 981 l 269 793 z "},"ґ":{"ha":458,"x_min":104,"x_max":458,"o":"m 104 0 l 104 694 l 381 694 l 394 878 l 454 878 l 458 629 l 204 629 l 204 0 l 104 0 z "},"д":{"ha":699,"x_min":7,"x_max":675,"o":"m 7 64 l 94 64 q 160 326 143 181 q 178 694 178 471 l 578 694 l 578 64 l 675 64 l 665 -208 l 608 -208 l 592 0 l 90 0 l 72 -208 l 14 -208 l 7 64 m 476 64 l 476 631 l 244 631 q 228 306 243 439 q 171 64 213 174 l 476 64 z "},"е":{"ha":629,"x_min":51,"x_max":585,"o":"m 349 -14 q 131 73 210 -14 q 51 333 51 160 q 128 608 51 508 q 336 708 204 708 q 520 626 456 708 q 585 392 585 543 q 582 349 585 365 q 578 328 579 332 l 157 328 q 360 47 157 47 q 455 67 415 47 q 517 110 494 88 q 539 138 539 133 l 579 104 q 553 69 579 99 q 475 13 526 39 q 349 -14 424 -14 m 490 386 l 492 413 q 336 649 492 649 q 210 584 254 649 q 158 386 165 519 l 490 386 z "},"ѐ":{"ha":629,"x_min":51,"x_max":585,"o":"m 349 -14 q 131 73 210 -14 q 51 333 51 160 q 128 608 51 508 q 336 708 204 708 q 520 626 456 708 q 585 392 585 543 q 582 349 585 365 q 578 328 579 332 l 157 328 q 360 47 157 47 q 455 67 415 47 q 517 110 494 88 q 539 138 539 133 l 579 104 q 553 69 579 99 q 475 13 526 39 q 349 -14 424 -14 m 490 386 l 492 413 q 336 649 492 649 q 210 584 254 649 q 158 386 165 519 l 490 386 m 388 796 l 242 983 l 328 1006 l 443 807 l 388 796 z "},"ё":{"ha":629,"x_min":51,"x_max":585,"o":"m 349 -14 q 131 73 210 -14 q 51 333 51 160 q 128 608 51 508 q 336 708 204 708 q 520 626 456 708 q 585 392 585 543 q 582 349 585 365 q 578 328 579 332 l 157 328 q 360 47 157 47 q 455 67 415 47 q 517 110 494 88 q 539 138 539 133 l 579 104 q 553 69 579 99 q 475 13 526 39 q 349 -14 424 -14 m 490 386 l 492 413 q 336 649 492 649 q 210 584 254 649 q 158 386 165 519 l 490 386 m 236 840 q 199 854 217 840 q 183 894 183 869 q 199 936 183 921 q 236 950 217 950 q 272 936 254 950 q 288 894 288 918 q 272 854 288 872 q 236 840 254 840 m 449 840 q 413 854 431 840 q 397 894 397 869 q 413 936 397 921 q 449 950 431 950 q 485 936 467 950 q 501 894 501 919 q 485 854 501 871 q 449 840 467 840 z "},"ж":{"ha":928,"x_min":35,"x_max":893,"o":"m 35 0 l 250 374 l 57 694 l 138 694 l 311 399 l 413 397 l 413 694 l 514 694 l 514 397 l 613 399 l 803 694 l 882 694 l 676 371 l 893 0 l 781 0 l 594 336 l 514 335 l 514 0 l 413 0 l 413 336 l 335 338 l 146 0 l 35 0 z "},"з":{"ha":578,"x_min":15,"x_max":526,"o":"m 254 -14 q 113 10 165 -14 q 38 62 60 35 q 15 96 15 89 l 50 140 q 70 112 50 135 q 132 68 90 89 q 240 47 174 47 q 374 92 325 47 q 422 203 422 136 q 383 298 422 264 q 285 332 344 332 l 164 329 l 164 389 l 290 386 l 294 386 q 363 419 328 390 q 399 518 399 449 q 360 613 399 578 q 244 649 321 649 q 163 635 201 649 q 99 603 125 621 q 72 585 72 586 l 60 643 q 91 662 60 644 q 166 694 122 679 q 257 708 210 708 q 438 660 378 708 q 499 528 499 611 q 389 367 499 414 q 488 308 450 350 q 526 199 526 265 q 453 45 526 104 q 254 -14 381 -14 z "},"и":{"ha":738,"x_min":104,"x_max":633,"o":"m 104 0 l 104 694 l 204 694 l 204 140 l 543 694 l 633 694 l 633 0 l 532 0 l 532 569 l 182 0 l 104 0 z "},"й":{"ha":738,"x_min":104,"x_max":633,"o":"m 104 0 l 104 694 l 204 694 l 204 140 l 543 694 l 633 694 l 633 0 l 532 0 l 532 569 l 182 0 l 104 0 m 371 800 q 247 831 290 800 q 189 894 203 861 q 175 938 175 926 l 258 946 l 258 939 q 260 926 258 936 q 268 904 263 915 q 371 854 297 854 q 476 908 453 854 q 483 928 482 919 q 485 939 485 936 l 485 946 l 568 938 q 554 894 568 926 q 497 831 540 861 q 371 800 453 800 z "},"ѝ":{"ha":738,"x_min":104,"x_max":633,"o":"m 104 0 l 104 694 l 204 694 l 204 140 l 543 694 l 633 694 l 633 0 l 532 0 l 532 569 l 182 0 l 104 0 m 417 796 l 271 983 l 357 1006 l 472 807 l 417 796 z "},"ҋ":{"ha":761,"x_min":104,"x_max":728,"o":"m 567 -208 l 624 0 l 532 0 l 532 569 l 182 0 l 104 0 l 104 694 l 204 694 l 204 140 l 543 694 l 633 694 l 633 65 l 728 65 l 728 47 l 625 -208 l 567 -208 z "},"к":{"ha":633,"x_min":104,"x_max":603,"o":"m 104 0 l 104 694 l 204 694 l 204 376 l 290 424 l 490 694 l 561 694 l 356 410 l 603 0 l 486 0 l 281 349 l 204 313 l 204 0 l 104 0 z "},"ќ":{"ha":633,"x_min":104,"x_max":603,"o":"m 104 0 l 104 694 l 204 694 l 204 376 l 290 424 l 490 694 l 561 694 l 356 410 l 603 0 l 486 0 l 281 349 l 204 313 l 204 0 l 104 0 m 297 793 l 244 800 l 351 1001 l 439 981 l 297 793 z "},"л":{"ha":665,"x_min":10,"x_max":561,"o":"m 29 -12 q 10 -11 17 -12 l 14 57 l 21 57 q 149 217 106 57 q 193 694 193 378 l 561 694 l 561 0 l 460 0 l 460 629 l 264 629 q 201 153 260 319 q 29 -12 142 -12 z "},"м":{"ha":900,"x_min":100,"x_max":800,"o":"m 100 0 l 119 694 l 243 694 l 450 103 l 668 694 l 790 694 l 800 0 l 707 0 l 701 551 l 700 592 l 475 0 l 397 0 l 178 592 l 176 576 l 165 0 l 100 0 z "},"н":{"ha":718,"x_min":104,"x_max":615,"o":"m 104 0 l 104 694 l 204 694 l 204 389 l 514 389 l 514 694 l 615 694 l 615 0 l 514 0 l 514 326 l 204 326 l 204 0 l 104 0 z "},"о":{"ha":696,"x_min":51,"x_max":643,"o":"m 347 -14 q 127 81 203 -14 q 51 347 51 175 q 127 614 51 519 q 347 708 203 708 q 567 614 492 708 q 643 347 643 519 q 566 81 643 176 q 347 -14 489 -14 m 347 47 q 490 122 444 47 q 536 347 536 196 q 490 572 536 497 q 347 647 444 647 q 204 573 250 647 q 158 347 158 499 q 204 122 158 196 q 347 47 250 47 z "},"п":{"ha":708,"x_min":104,"x_max":604,"o":"m 104 0 l 104 694 l 604 694 l 604 0 l 504 0 l 504 629 l 204 629 l 204 0 l 104 0 z "},"р":{"ha":717,"x_min":104,"x_max":665,"o":"m 104 694 l 188 694 l 200 611 q 267 675 219 642 q 397 708 314 708 q 592 618 519 708 q 665 367 665 528 q 592 89 665 192 q 383 -14 518 -14 q 287 1 326 -14 q 226 33 247 15 q 206 53 206 50 l 204 53 l 204 -347 l 104 -350 l 104 694 m 350 53 q 508 130 458 53 q 558 364 558 207 q 508 575 558 510 q 364 640 458 640 q 278 619 314 640 q 223 574 242 599 q 204 546 204 550 l 204 114 q 255 74 219 94 q 350 53 290 53 z "}}}
